<svg xmlns="http://www.w3.org/2000/svg" width="520" height="520" viewBox="496 102 520 520"><g transform="translate(0.000000,1045.000000) scale(0.100000,-0.100000)" fill="#ae0608" stroke="none"><path d="M8517 8693 c-13 -12 -7 -100 9 -138 12 -30 13 -43 4 -65 -15 -36 -79
-100 -166 -166 -107 -80 -184 -162 -184 -196 0 -18 -5 -28 -15 -28 -10 0 -15
10 -15 30 0 60 -55 127 -140 171 -38 20 -60 24 -135 24 -103 0 -148 -13 -211
-61 -43 -33 -46 -34 -90 -23 -60 15 -171 5 -204 -19 -14 -10 -32 -33 -42 -51
l-16 -33 -11 54 c-6 29 -12 67 -14 83 -2 28 -5 30 -44 33 -37 3 -49 -3 -120
-56 -97 -73 -183 -165 -211 -226 -16 -33 -28 -46 -43 -46 -29 0 -74 -26 -98
-56 l-21 -27 0 41 c0 141 -138 352 -294 451 -83 51 -263 131 -298 131 -25 0
-28 -3 -28 -33 0 -29 9 -41 66 -88 149 -123 243 -283 281 -474 15 -81 23 -228
12 -239 -3 -4 -26 3 -50 14 -59 26 -177 27 -235 1 -134 -61 -214 -257 -214
-528 0 -62 -3 -113 -6 -113 -4 0 -22 9 -40 21 -24 15 -46 19 -81 17 l-48 -3 0
-56 c0 -55 0 -57 -23 -48 -44 17 -186 10 -256 -12 l-67 -20 3 -42 c3 -41 4
-41 63 -62 81 -29 118 -49 200 -111 90 -67 125 -105 170 -179 34 -57 70 -153
61 -163 -3 -2 -20 8 -39 22 -57 43 -109 56 -232 56 -127 0 -138 -5 -133 -66 3
-35 7 -39 53 -58 197 -81 283 -174 413 -446 116 -242 245 -413 401 -531 92
-69 249 -144 366 -174 145 -38 190 -65 247 -150 26 -38 65 -113 88 -165 l41
-95 -10 -145 c-12 -160 -14 -372 -5 -407 16 -60 134 7 134 76 0 17 -5 31 -11
31 -11 0 -7 246 7 421 4 54 1 94 -10 140 -18 69 -72 184 -112 236 -13 17 -24
34 -24 36 0 3 54 7 119 9 142 4 161 14 161 84 0 34 -8 53 -44 101 -69 91 -179
193 -321 297 -196 145 -228 172 -318 265 -98 102 -174 206 -229 316 -36 72
-41 87 -41 155 0 60 6 91 30 155 49 131 134 292 184 351 54 64 68 107 75 233
4 61 13 103 31 144 13 32 27 82 30 112 5 50 4 54 -18 58 -19 3 -18 5 8 6 32 1
33 3 57 84 14 45 32 111 41 146 9 35 23 81 32 103 l15 39 28 -38 c18 -24 59
-55 107 -83 84 -47 123 -77 123 -95 0 -14 -63 -65 -183 -149 -54 -37 -125 -90
-158 -118 l-60 -50 3 -51 c3 -51 4 -52 35 -55 28 -3 44 6 102 57 39 33 105 83
148 112 142 95 201 148 228 205 30 64 50 78 140 105 172 51 427 140 497 173
42 20 104 61 138 91 33 30 67 55 75 55 27 0 46 -13 60 -41 37 -71 10 -126
-116 -235 -54 -46 -128 -122 -166 -169 -49 -61 -78 -87 -103 -96 -53 -17 -235
-114 -325 -173 -218 -143 -358 -316 -434 -538 -77 -220 -63 -505 34 -714 74
-162 169 -278 350 -429 61 -51 118 -106 127 -122 17 -30 17 -31 -11 -69 -15
-22 -40 -50 -55 -63 -27 -25 -37 -83 -16 -96 6 -4 4 -12 -5 -21 -19 -20 -19
-67 1 -133 18 -61 15 -74 -36 -161 -21 -36 -43 -90 -49 -120 -13 -73 -33 -212
-38 -277 l-5 -53 34 0 c52 0 76 33 104 141 13 50 24 98 24 107 0 8 24 63 52
121 48 97 52 112 53 177 l0 71 35 -10 c19 -5 73 -7 120 -5 73 3 94 9 148 38
58 31 172 137 172 161 0 5 26 9 57 9 84 0 182 35 271 97 42 29 98 68 124 85
45 32 48 35 48 81 l0 47 -45 0 c-45 0 -175 -44 -266 -90 -55 -28 -51 -23 77
111 113 118 140 171 224 449 77 254 97 305 208 527 49 98 108 221 131 273 44
102 96 189 121 201 8 4 62 30 120 57 112 54 190 115 240 187 42 61 106 122
168 158 52 32 53 32 50 77 l-3 45 -58 3 c-33 2 -83 -4 -115 -13 -102 -29 -155
-70 -319 -245 -146 -156 -158 -166 -216 -186 -134 -45 -261 -125 -329 -206
-72 -85 -88 -114 -88 -152 0 -34 2 -36 33 -36 28 0 39 7 68 47 32 43 160 148
220 178 l27 14 -45 -99 c-24 -54 -69 -145 -100 -202 -106 -198 -180 -387 -248
-641 -46 -170 -89 -249 -187 -351 l-79 -81 24 50 c45 93 96 233 116 317 11 46
32 133 46 193 14 61 39 162 57 225 31 113 31 119 32 345 1 260 2 263 92 396
38 55 45 72 42 105 -3 37 -5 39 -40 42 -40 3 -57 -10 -111 -88 -17 -25 -58
-81 -91 -125 -59 -80 -127 -212 -140 -272 -4 -18 -11 -33 -16 -33 -19 0 -31
415 -16 561 11 108 2 170 -29 208 l-25 28 69 59 c37 33 81 77 97 99 28 39 29
44 29 155 0 102 -2 119 -22 145 l-21 30 80 17 c44 10 104 28 134 42 73 33 149
111 164 167 16 59 6 169 -19 217 -11 20 -22 58 -24 84 -7 72 -28 98 -81 98
-23 0 -46 -3 -49 -7z m-559 -510 c27 -16 56 -45 67 -65 l20 -37 -21 -28 c-23
-30 -100 -93 -115 -93 -5 0 -9 18 -9 39 0 39 -2 41 -90 102 -86 58 -90 62 -71
76 73 50 144 53 219 6z m-697 -179 c33 -35 74 -59 136 -79 l53 -17 -50 -40
c-28 -22 -50 -43 -50 -46 0 -4 -13 -22 -28 -40 l-28 -33 -59 35 c-33 19 -79
46 -102 60 -23 13 -54 43 -70 67 -15 23 -32 47 -37 54 -13 18 48 99 114 150
l55 43 21 -64 c11 -35 31 -75 45 -90z m249 141 c0 -11 -81 -57 -88 -51 -10 11
45 56 69 56 10 0 19 -2 19 -5z m-919 -92 c16 -27 44 -92 61 -147 l31 -98 -17
-152 c-9 -83 -16 -169 -16 -191 0 -41 -20 -117 -41 -156 -9 -17 -113 -154
-135 -178 -3 -3 20 66 51 153 60 172 85 296 85 421 0 90 -22 252 -45 335 -17
64 -17 60 -10 60 3 0 19 -21 36 -47z m1088 -19 l59 -46 -37 -33 c-34 -32 -36
-33 -39 -12 -5 33 -15 38 -81 51 l-61 11 47 37 c27 20 49 37 50 37 2 1 30 -20
62 -45z m-1219 -488 c0 -6 -18 -70 -41 -141 -71 -229 -89 -311 -89 -416 0
-109 18 -183 56 -228 l25 -30 -27 -53 c-15 -29 -33 -71 -39 -93 l-12 -40 -17
40 c-61 142 -86 260 -86 405 0 63 5 96 20 129 11 24 20 59 20 78 0 33 -1 34
-37 31 -35 -3 -40 -7 -65 -58 -36 -71 -48 -139 -48 -262 0 -160 36 -293 145
-538 26 -58 80 -188 122 -290 153 -378 280 -604 401 -711 57 -50 41 -48 -96
16 -249 117 -403 284 -582 630 -45 88 -86 164 -91 169 -5 6 1 14 13 20 32 16
40 70 35 221 -4 109 -11 157 -46 295 -22 91 -41 169 -41 173 0 5 12 -5 26 -22
19 -23 34 -31 59 -31 l33 0 -5 173 c-5 152 -3 182 16 259 11 49 32 110 45 136
39 77 125 141 213 160 42 9 93 -3 93 -22z m1637 -143 c-3 -10 -5 -4 -5 12 0
17 2 24 5 18 2 -7 2 -21 0 -30z m-61 -215 c35 -99 37 -110 44 -283 6 -143 13
-200 33 -276 30 -117 42 -140 102 -207 l46 -51 -100 -133 c-55 -73 -120 -159
-145 -190 -32 -41 -48 -74 -57 -115 -17 -82 -33 -108 -85 -143 -25 -18 -47
-30 -48 -28 -14 15 -49 99 -74 178 -99 310 -131 567 -97 770 38 230 113 397
280 624 l50 68 7 -55 c4 -30 24 -102 44 -159z m-380 -40 c-35 -61 -82 -183
-106 -277 -63 -248 -40 -615 59 -930 l30 -94 -66 64 c-167 164 -263 348 -294
564 -16 114 36 281 133 431 46 70 243 284 262 284 4 0 -4 -19 -18 -42z m-1017
-48 c-12 -38 -96 -147 -106 -136 -2 2 3 21 12 42 17 42 94 148 102 141 2 -3
-1 -24 -8 -47z m-831 -240 c57 -41 53 -47 -5 -8 -60 39 -58 38 -46 38 5 0 29
-14 51 -30z m2593 -315 c-19 -89 -22 -91 -65 -40 l-37 45 20 98 c10 53 30 124
42 157 l23 60 15 -130 c11 -106 12 -141 2 -190z m-1225 -229 c48 -249 244
-511 513 -686 18 -12 22 -21 17 -38 -7 -21 -10 -20 -64 27 -31 28 -95 82 -140
122 -142 122 -233 247 -293 403 -35 90 -60 207 -58 269 2 33 3 35 6 12 2 -16
10 -65 19 -109z m1011 -458 c-8 -18 -24 -51 -36 -73 l-22 -40 5 55 c4 41 11
59 28 72 34 26 40 22 25 -14z m-1402 -163 c39 -33 115 -91 169 -129 55 -38
145 -113 200 -167 99 -96 100 -98 69 -99 -48 0 -166 43 -246 91 -126 76 -248
221 -342 409 l-38 75 59 -60 c33 -34 91 -88 129 -120z m1220 -69 c-10 -39 -28
-97 -41 -128 -13 -32 -24 -73 -24 -92 0 -34 1 -35 47 -38 l46 -3 -52 -57 c-66
-73 -163 -124 -213 -113 -18 4 -46 15 -63 24 -16 9 -43 21 -60 27 l-30 11 31
16 c48 25 113 104 151 184 34 70 36 72 56 58 12 -8 36 -15 54 -15 32 0 33 1
33 43 0 25 -8 54 -19 71 l-20 30 57 41 c68 50 72 44 47 -59z"/><path d="M7385 4380 c-14 -16 -16 -29 -10 -77 4 -32 4 -364 0 -737 l-8 -680
-24 48 c-45 89 -53 156 -54 506 -1 179 -4 413 -8 520 l-6 195 -38 3 c-57 5
-80 -26 -72 -98 8 -65 14 -333 19 -780 3 -179 9 -339 14 -356 15 -47 28 -70
95 -171 62 -92 62 -93 104 -93 23 0 45 6 50 13 4 6 8 77 10 157 1 80 7 291 12
470 6 179 11 499 11 713 l0 387 -38 0 c-26 0 -45 -7 -57 -20z"/></g></svg>