<svg xmlns="http://www.w3.org/2000/svg" viewBox="1068 501 2446 1997"><path fill="#b80000" d="M1846 587c4.4.3 7.3 1 11.1 3.2 5.2 3 10.6 5.3 16.1 7.7 7.2 3.1 14.3 6.2 21.3 9.8 4 2.1 8 3.8 12.2 5.4 7.2 2.9 7.2 2.9 10.3 4.9v2c.4.1.4.1 2.6.8 3.4 1.1 6.3 2.9 9.2 5 1.1.7 2.1 1.4 3.1 2.1.6.4 1.1.7 1.6 1.1 2.9 2 5.9 3.9 9 5.8l1.5 1.2v2c1.3.7 2.7 1.4 4 2 5.4 4.1 10.2 9.1 15 13.8l1.8 1.8c.5.5 1.1 1 1.6 1.6l1.5 1.5c1.1 1.3 1.1 1.3 1.1 3.3 1 .3 2 .7 3 1v2h2c1.4 1.5 1.4 1.5 3.1 3.8.6.8 1.2 1.6 1.8 2.5l2.1 2.7c.7.9 1.4 1.9 2.1 2.8 18.6 24.1 30.3 48.9 34.6 79.1 0 .5 0 .5.3 2.6 2.1 15.9 2.1 32 2.1 48.1 0 1.9 0 3.8-.1 5.7V826c.1-.6.2-1.2.2-1.8 2.9-22.6 2.9-22.6 5.8-32.2.2-.6.3-1.2.5-1.8 4.6-16 12.7-29.1 27-38.2 3.2-1.6 5.4-2 9-2.1 7.9-.1 7.9-.1 11.5-1.9 3.6-3.8 5.2-9.1 7.1-13.9 2.5-5.8 6.3-11 9.9-16.1.4-.5.8-1.1 1.2-1.7 10.8-15.2 24.7-29.2 40-40l6.6-4.8c4-3 8-6 12.1-8.9 1.4-1.1 2.8-2.1 4.2-3.1.6-.5 1.2-.9 1.8-1.4.6-.4 1.1-.8 1.7-1.2 1.4-.9 1.4-.9 3.4-.9v-2c5.2-4.8 5.2-4.8 9-5 4.1 1 6.4 3 9 6.2 1.8 3.2 1.4 6.2 1.2 9.8-.1 1.5-.1 3-.1 4.5-.1.8-.1 1.5-.1 2.3 0 18.5 8.2 36.2 19.9 50.2 2 1.9 3.6 3 6.1 4-.3-.6-.6-1.2-.8-1.8-.4-.8-.8-1.6-1.1-2.4-.4-.8-.8-1.6-1.1-2.4-3.4-8.3-2.9-17.7 0-26 4.5-10.5 11.8-17.5 22.3-21.8 13.8-5.1 30.4-5.2 44.3-.3.6.2 1.3.4 1.9.7 3.6 1.2 6.8 2.6 10.1 4.4 2.6 1.4 3.2 1.6 6.4 1.3 4.2-2.4 7.5-5.4 11-8.7 4.6-4 4.6-4 7-4v-2c1.2-1.1 1.2-1.1 2.9-2.1.2-.2.2-.2 1.6-1.1 1.5-.8 1.5-.8 3.5-.8v-2c1.9-1.1 3.8-2 5.8-2.9.6-.2 1.2-.5 1.8-.8 5.4-2.4 10.8-4.4 16.4-6.3.6-.2 1.3-.4 1.9-.7 17.8-5.5 37.1-2.6 53.4 5.5 2.6 1.4 5.2 2.8 7.7 4.2 1 .6 2 1.1 3 1.7 15.4 9.2 27.6 22.4 32.8 39.8 1.3 5.2 3 12.3.2 17.3-.3.4-.7.8-1 1.2.6-.2 1.1-.4 1.7-.7 13.8-4.5 29-3.8 42.3 1.7v2c1.3.7 2.7 1.3 4 2 11.5 10.2 16.4 26.2 17.4 41.2.8 19.3-5.1 34.6-17.8 49-1.5 1.6-3.1 3.2-4.6 4.8-.7.8-1.5 1.5-2.2 2.3-4.6 4.7-9.4 8.9-14.6 12.9-1.9 1.5-3.5 3.1-5.2 4.8l-2 2h-2v2c-1.1.9-2.2 1.9-3.4 2.7-2.4 1.9-4.5 4.1-6.6 6.3l-3 3-1.6 1.6L2429 864l1.5.3c10.3 2.3 15.5 7 21.5 15.7 1.3 2.3 2.1 4.5 3 7 .2.4.2.4 1 2.4 5 13.4 2.9 33.9.1 47.9-2.6 13-3.3 26.3-3.8 39.5 0 1.3-.1 2.6-.1 4-.4 7.7-.1 14.9 1 22.5 1 6.5 1.1 12.9 1.2 19.4.5 35.9 2.5 73.1 10.2 108.2.8 4 1.4 8 2 12.1.4 2 .4 2 1.4 3 .1-.6.3-1.1.4-1.7 1.4-5.9 2.9-11.8 4.3-17.7.6-2.2 1.1-4.4 1.6-6.6 3.5-14.3 7.5-28.2 12.7-42 .3-.7.5-1.4.8-2.1 5.5-15 12.8-29.3 22.1-42.3 1.3-1.8 2.6-3.7 3.9-5.6 5.2-7.5 10.6-14.9 16-22.3 3.6-4.9 7.2-9.8 10.8-14.8.5-.7 1.1-1.5 1.6-2.3 2.6-3.5 5.1-7 7.6-10.5 4.8-6.9 9.8-13.6 15.2-20.1.6-.7 1.1-1.4 1.7-2.1 4.5-5.3 4.5-5.3 7.3-6.9 2.7.2 4.1 1 6.3 2.6 1.7 2.4 1.7 2.4 1.6 5.6-.8 4.5-3.2 7.7-5.8 11.4-.3.3-.3.3-1.5 2.1-1.5 2.1-3.1 4.2-4.6 6.3-1.8 2.4-3.5 4.9-5.2 7.3-.3.3-.3.3-1.3 1.8-11.7 16.3-19.2 32.1-22.2 52-.2 1.4-.5 2.8-.8 4.2-2 9.7-1.8 19.4-1.8 29.2v17.7c.1 5.6.7 10.8 1.8 16.3.7 3.8 1 7.5 1.1 11.3.1.7.1 1.5.1 2.4.6 14.7 1.2 29.3-1.7 43.8-.3 2.2-.7 4.3-1 6.5-.4 2.8-.8 5.1-1.9 7.7-1.3 3.3-1.9 6.6-2.6 10.1-2.9 14.9-6.7 29.6-11.6 43.9-1.5 4.4-2.5 8.6-3.3 13.1-.9 4.4-2.2 8.6-3.5 12.8-2.8 9.7-4.9 19.5-6.8 29.4-.4 2-.7 4-1.1 6-1.4 7-2.6 13.9-3.7 20.9-.9 4.6-2.2 9.1-3.5 13.6-.5 1.7-.9 3.4-1.4 5.1-3 11.2-6.1 22.2-10.6 32.9-1.5 3.7-2.8 7.5-4.2 11.3-1.9 5.8-3.9 11.3-6.8 16.7-1.2 2.4-2.2 4.9-3.2 7.5-2.4 5.7-5.1 11.2-7.9 16.7-1.8 3.6-3.5 7.1-4.9 10.9-1.9 4.9-4.3 9.4-6.9 14.1-2.3 4.4-4.6 8.8-6.8 13.2-2.5 5.1-5.2 9.9-8.3 14.6-.4.6-.7 1.2-1.1 1.8-.9 1.4-1.9 2.8-2.9 4.2h-2c-.3.7-.5 1.4-.8 2.1-1.5 3.7-3.5 6.9-6.2 9.9h-2c-.1.3-.1.3-.8 1.6-1.7 3.4-4.1 5.8-6.7 8.5-.3.3-.3.3-1.6 1.7-16.6 17.8-16.6 17.8-21.5 18.7-2.4-.5-2.4-.5-4.3-2.4-1.8-4.9.4-8.5 2.4-13.2.4-.8.7-1.7 1.1-2.6 1.5-3.8 3.1-7.5 4.7-11.2 3-7.1 5.3-14.1 7.3-21.5.1-.5.3-1.1.4-1.7 5.3-20 7.8-40.1 10-60.6.9-8.2 1.8-16.4 2.8-24.6.2-1.4.3-2.7.5-4.1.2-1.8.4-3.7.7-5.5 0-.5 0-.5.4-3.1 2.2-10.1 10.6-16.3 18.6-22h2v-2c1.7-1.6 1.7-1.6 3.9-3.4 3.9-3.3 3.9-3.3 5.2-5.3.3-.4.6-.9.9-1.3h2c.7-1.3 1.4-2.7 2-4 .9-1.2 1.7-2.4 2.7-3.5.5-.7 1-1.3 1.5-2 .6-.7 1.2-1.5 1.7-2.2 6.2-7.9 11.6-16.1 17-24.5 1.4-2.3 3-4.5 4.5-6.7 29.6-41.7 29.6-41.7 29.6-57.1-.4.7-.9 1.4-1.3 2.1-5.3 8.5-11 16.2-17.8 23.6-3.8 4.1-7.4 8.5-10.9 12.8-1.6 2-3.2 3.9-4.9 5.8-8 9.3-14.6 19.8-21.5 30-4.5 6.6-8.9 13-14.6 18.7-1 1.4-1.9 2.8-2.9 4.3-1.7 2.7-3.7 5.2-5.6 7.7-1.4 1.8-2.6 3.6-3.7 5.5-.6.8-1.2 1.7-1.8 2.5h-2c-.7 1.3-1.4 2.7-2 4-.6.9-1.3 1.8-1.9 2.8-5.1 7.6-5.8 15.6-6.9 24.5-2.1 16.7-12.1 26.7-24.8 36.7-3.5 2.6-7 5.1-10.8 7.4-5 3.1-9.7 6.6-14.4 10.2-.7.6-1.4 1.1-2.2 1.7-1.8 1.5-3.5 2.9-5 4.7-.4 4.5 2.9 8.1 5.6 11.6.2.3.2.3 1.3 1.9 2.1 2.9 4.3 5.8 6.5 8.6 6.1 7.8 6.1 7.8 6.1 12.1-.2.9-.3 1.8-.5 2.8-2.8.8-5 1.5-7.7.2-1.8-1.2-3.5-2.4-5.2-3.8-.6-.4-1.2-.9-1.8-1.4-1.8-1.3-3.6-2.6-5.3-4-1.5-1.2-3.1-2.3-4.6-3.5-.3-.2-.3-.2-1.8-1.3-1.8-1.3-3.6-2.3-5.6-3.2-.2 1.1-.5 2.2-.8 3.4-1 4.2-2.5 8.1-4.2 12.1-.6 1.5-1.2 3.1-1.8 4.7-6.3 17.1-16.6 36.3-30.2 48.8h-2c-.3.6-.6 1.2-.9 1.9-1.3 2.5-2.5 2.9-5.1 4.1v2c-6.5 5.9-13.7 10.7-21.5 14.6-.7.4-1.3.7-2 1.1-3.6 1.7-6.4 2.8-10.5 2.3-1.8-1.1-1.8-1.1-3-3-.6-2.9-.8-4.2 0-7 2.2-2.9 4.8-5.4 7.6-7.8 2.2-2.1 4.4-4.2 6.5-6.3.4-.4.9-.8 1.3-1.3 3.6-3.5 6.7-7.2 9.6-11.3.4-.5.8-1 1.1-1.6 4.1-5.9 6.7-12 5.5-19.2-5.5-21.7-23.6-37.9-42-49.3-.5-.4-1.1-.8-1.6-1.2v-2c-.6-.3-1.1-.5-1.7-.8-2.9-1.5-5.1-3.6-7.5-5.9-4.2-3.9-8.5-7.5-13.2-10.9-.3-.3-.3-.3-1.6-1.4v-2c-1.3-.7-2.7-1.4-4-2-1.6-1.4-1.6-1.4-3.2-3-.5-.6-1.1-1.2-1.7-1.7-.3-.3-.3-.3-1.7-1.9l-3.5-3.5c-.5-.6-1-1.1-1.5-1.6-1.4-1.3-1.4-1.3-3.4-2.3v-2c-1-.3-2-.7-3-1v-2c-1-.3-2-.7-3-1v-2c-.6-.2-1.1-.5-1.7-.8-3.2-1.7-5.3-4.2-7.3-7.2v-2h-2c-1.7-2-3.2-3.9-4.8-6-.4-.6-.9-1.2-1.3-1.8l-2.7-3.6c-.9-1.3-1.9-2.5-2.9-3.8-24-30.9-41.8-68.2-50.7-106.2-.5-2.1-1-4.3-1.5-6.4-7.1-29.1-8.9-61.4-4.4-91.2.3-2 .6-4 .8-6.1 2.8-19.9 8.7-40.3 16.5-58.9.3-.6.5-1.2.8-1.9 4.4-11 10-21.4 15.9-31.7l3.6-6.6c5.1-9.6 11.1-18.4 17.5-27.1 1-1.4 2-2.8 2.9-4.2.4-.5.9-1 1.3-1.5h2c.7-1.3 1.4-2.7 2-4 11.1-15.4 25.3-30 40-42 .3-.2.3-.2 1.5-1.3 12.3-10.1 25.2-19.5 38.7-27.9 2.8-1.8 5.6-3.7 8.3-5.5 5.8-3.9 11.5-7.5 17.6-10.7 3.6-2 7-4 10.4-6.1 6.1-3.7 12.2-7.2 18.5-10.5 1.3-.7 2.7-1.5 4-2.2 7.4-3.9 14.6-7.7 22.4-10.7q3.6-1.5 7.2-3.3c4-1.8 7.9-2.6 12.1-3.3 5-1.1 7.2-3.3 10.4-7.3.8-1 1.5-2 2.3-3 .5-.5.9-1 1.3-1.6 2.2-2.7 4.5-5.4 6.8-8.1 3.4-4 6.8-8.1 10.1-12.2 3.7-4.5 7.5-8.8 11.4-13.1 1.6-1.8 3.1-3.5 4.6-5.4 2.4-3 5.3-5.4 8.3-7.9 3-2.7 5.7-5.5 8.4-8.4 1.7-1.5 1.7-1.5 3.7-1.5v-2c1.5-1.4 3.1-2.7 4.7-3.9 1-.9 2-1.7 3-2.5.6-.4 1.1-.8 1.7-1.3 4.9-4 9.8-8.1 14.6-12.3.6-.5 1.2-1 1.8-1.6 13.5-11.7 23.1-24.2 24.4-42.8.4-12.1-.6-27.2-9.2-36.6-6.6-6.2-13.3-6.2-22-6.2-8.5.5-15.7 3.5-22 9.2-1.1 1.3-2.2 2.5-3.3 3.8-6.4 7.5-14 12.9-22.2 18.2-1.4.9-2.8 1.9-4.2 2.8-6.5 4.4-13.3 7.5-20.5 10.6q-4.65 1.95-9 4.2c-10 5.1-20.5 8.8-30.9 12.7-1.3.5-2.5.9-3.8 1.4-5.4 2.1-11 3.9-16.5 5.7l-3 .9c-4.9 1.6-9.8 3.1-14.8 4.5-8.4 2.3-16.6 5.2-24.8 8.2-9.6 3.5-19.1 6.7-28.9 9.4-7.4 2.1-14.7 4.4-22.1 6.6-.7.2-1.4.4-2.2.7-8.5 2.6-16.3 5.4-23.8 10.3-.6.4-1.1.7-1.7 1.1-3.2 2.6-3.8 5.4-4.6 9.4-3.1 14.3-13.8 25.4-24.7 34.5-.8.7-1.7 1.5-2.5 2.2-6.2 5.3-12.6 10.2-19.1 14.9l-2.4 1.8c-.8.5-1.5 1.1-2.3 1.6-.7.5-1.3 1-2 1.5-1.7 1-1.7 1-3.7 1v2c-1.3 1-1.3 1-3.2 2.2-.7.4-1.3.8-2 1.2-.4.2-.4.2-2.2 1.4l-4.5 2.7c-.7.4-1.4.9-2.2 1.3-8.8 5.4-17.2 11.5-25.4 17.9-.3.3-.3.3-1.8 1.4-1.2.9-2.3 1.8-3.5 2.8-4 3.1-4 3.1-6.2 3.1v2c-1.5 1.3-3.1 2.6-4.7 3.8-5.3 4.2-10.1 8.9-14.8 13.8-2.9 3-5.6 5.6-9.5 7.4-3-.6-4.4-1.3-6.3-3.7-1-3.3-1.5-6-.7-9.3 3.3-5.6 7.8-10 12.7-14.1q3.45-2.85 6.6-6c5.6-5.2 11.3-9.6 17.7-13.9 2.3-1.6 4.5-3.2 6.8-4.8 1.2-.9 2.4-1.7 3.6-2.6 2.4-1.7 4.8-3.4 7.2-5.2 6-4.3 12-8.5 18.1-12.6 3.3-2.1 6.5-4.3 9.7-6.6.8-.5 1.6-1.1 2.4-1.7 1.4-.9 2.7-1.9 4.1-2.8 3.9-2.7 3.9-2.7 6.1-2.7v-2c1.2-1.1 1.2-1.1 2.9-2.1.5-.4 1-.7 1.6-1.1 1.5-.8 1.5-.8 3.5-.8v-2c1.6-1.3 1.6-1.3 3.8-2.9 4-3 7.6-6.2 11.1-9.7.2-.3.2-.3 1.4-1.4 3.6-3.7 6.7-6.9 6.8-12.2-1.9-9.4-9.8-16.2-17.3-21.3-5.4-3.4-11.1-6.2-16.8-9-4.5-2.2-8.8-4.7-13-7.5-1.2-.7-2.3-1.5-3.5-2.2-2.5-1.6-4.9-3.2-7.4-4.8-.3-.2-.3-.2-1.6-1-.5-.3-1-.7-1.5-1-.6-.3-1.1-.7-1.7-1-.2-.2-.2-.2-1.3-1v-2c-1-.3-2-.7-3-1-5.4-5.7-10-12.2-14.6-18.6-.2-.3-.2-.3-1.3-1.8-3.1-4.4-3.1-4.4-3.1-6.6h-2c-1.8-1.5-3.4-3.3-5-5-.1.4-.1.4-.7 2.4-.9 2.8-2.2 5.4-3.6 8q-3 6-5.1 12.3c-.2.7-.4 1.3-.6 2-2.6 8-4.8 16-7 24.1-.4 1.5-.8 3-1.2 4.6-.9 3-1.7 6-2.5 9-.9 3.2-1.8 6.3-2.7 9.4-.2.8-.4 1.6-.6 2.5-.5 1.5-.9 3-1.3 4.5-1.4 4.9-2.6 9.9-3.7 15-1.3 5.7-2.9 11.1-5 16.6-2 5.4-3.6 10.8-5.2 16.4-.2.8-.5 1.7-.7 2.6-1.2 4.1-2.3 8.3-3 12.5-1.2 5.8-2.9 11.3-4.7 16.9-.3.9-.6 1.9-1 2.9-1.6 5.2-3.6 9.7-6.5 14.3-5 7.9-6.1 14.5-6.2 23.8 0 3.9-.2 7.7-.4 11.6v2.3c-.4 9.2-1.7 18.2-3.3 27.3-.2.9-.3 1.8-.5 2.7-3.4 20.3-9.7 32.7-23.1 48.2-10.6 12.2-18.1 26-25.1 40.5-1 1.9-1.9 3.8-2.9 5.8-13.7 27.8-27.3 56.2-33.4 86.8-.1.5-.1.5-.6 2.7-1.9 15.2-.8 31.3 1.6 46.3.2 1 .3 2 .5 3 5.7 27.3 23.6 53.8 40.4 75.6 1.5 1.9 3 3.9 4.4 5.8 1.5 2 3 4.1 4.5 6.1.8 1 1.6 2 2.4 3.1 4.5 6.1 9.1 11.9 14.3 17.5.3.3.3.3 1.6 1.7 5.3 5.7 10.9 11.3 16.5 16.9 1.7 1.7 3.4 3.4 5 5.1 5.1 5.1 10.2 10.1 15.7 14.7 2.2 1.9 4.2 3.9 6.3 5.8 8.9 8.4 18.4 16.8 29.1 22.8.5.3.9.6 1.3.9v2c1.3.7 2.6 1.4 4 2 3.1 1.9 6 4 9 6 .9.6 1.9 1.3 2.8 1.9 6.9 4.7 13.7 9.6 20.5 14.5.9.7 1.7 1.3 2.6 1.9l2.4 1.8c.4.2.4.2 2.2 1.5.5.5 1 .9 1.5 1.4v2c.7.3 1.4.5 2.1.8 3.7 1.5 6.9 3.5 9.9 6.2v2c1.3.7 2.7 1.3 4 2 2 1.4 4 2.9 6 4.4.6.5 1.1.9 1.7 1.4 5.5 4.3 10.7 9 15.7 13.7 1.7 1.6 3.3 3.1 5 4.6 13 11.7 13 11.7 16.6 16.9v2h2c1.4 1.4 1.4 1.4 3.1 3.4 2.8 3.3 5.7 6.6 8.7 9.8 7.2 8 7.2 8 7.2 10.8h2c1.1 1.3 1.1 1.3 2.3 3.1.4.7.8 1.3 1.3 2 .4.7.9 1.4 1.3 2.1.5.7.9 1.3 1.4 2 1.2 1.9 2.5 3.9 3.7 5.8.3.5.3.5 1.8 2.8 1.3 2.4 1.9 4.5 1.8 7.3-1.5 5-6 8.7-10 11.7-10.9 5-21.5 6.6-33.4 6.4h-3.2c-7.8-.1-15.3-.6-23-2.2-.8-.2-1.5-.3-2.3-.5-29.4-6.2-59.1-17.6-82.7-36.5l-2.7-2.1c-6.6-5.2-13-10.6-18.9-16.5-1.5-1.5-2.9-2.9-4.4-4.3-17.8-17.5-17.8-17.5-20-24.1h-2c-1.3-1.4-1.3-1.4-2.7-3.4-.5-.7-1-1.5-1.6-2.2-.6-.8-1.1-1.6-1.7-2.5l-1.8-2.4c-1.7-2.5-3.5-5-5.2-7.5-.5-.7-1-1.4-1.4-2.1-15.6-22.4-28.3-47.3-39-72.3-3.3-7.5-6.6-14.9-10.4-22.2-2-3.9-3.7-8-5.3-12.1-2-5.1-4.3-10.1-6.8-15-2.2-4.2-3.7-8.7-5.2-13.2-1.2-3.1-2.3-6.1-3.9-9.1-1.8-3.4-3.1-6.8-4.3-10.4-1.9-5.5-4-10.8-6.2-16.2-2.1-5-4.1-10-6.1-15-5.3-14-11.2-27.6-17.7-41.1-3.8-8-7.4-15.8-10.5-24.1-1.4-3.7-3-7.2-4.7-10.7-2.6-5.4-4.9-10.9-7-16.6-1.2-3.1-2.4-6.2-3.7-9.3-10.1-24.6-19.6-50.1-24.6-76.2-.1-.5-.2-1.1-.4-1.7-2-11.7-2-23.5-1.9-35.4v-8.1c-.1-26.7-.1-26.7 2.8-37 .2-.7.3-1.3.5-2 9.8-36 9.8-36 20.8-44.2 2.9-.4 2.9-.4 5 0 1.1 2.7 1.1 3.8-.1 6.6-.5.9-1 1.9-1.6 2.8-9.5 17.9-10.5 37.8-10.5 57.6v7.3c-.1 7.8.2 15.3 1.7 23 .7 3.7 1.1 7.5 1.5 11.3 4.2 36.5 16.2 69.5 31 103 8 18 8 18 8 22.4h2c0-.9-.1-1.8-.1-2.8-.6-16.4 2.9-32.1 9.1-47.2.3-.8.6-1.5.9-2.3 1-2.3 2-4.5 3.1-6.7.3-.6.5-1.1.8-1.7 5.2-10.6 10.5-21.2 17-31 .4-.8.8-1.5 1.2-2.3-1.1-3.4-1.7-3.7-4.6-5.6-1.9-1.2-1.9-1.2-3.4-2.4v-2c-1-.3-2-.7-3-1-12-12.7-15.7-28.4-19-45-.1-.4-.1-.4-.5-2.3-.5-3-.6-5.8-.7-8.8v-9.2c.1-14.5 2-27.8 5.7-41.9l2.1-8.1c2.3-9.2 4.9-18.3 7.6-27.4 1.5-5 2.8-10.1 4.1-15.2.7-2.1.7-2.1 1.7-3.5 1.6-2.6 2.2-5.5 3-8.5 1.8-6.5 1.8-6.5 3-9.5 1.1-2.8 1.8-5.5 2.5-8.4.9-4 2.1-7.9 3.2-11.9.2-.9.5-1.8.8-2.7 2.1-7.6 4.6-15 7.2-22.4 1.9-5.4 2.9-10.5 3.3-16.2-.4-.1-.4-.1-2.3-.8-4-1.3-8-2.8-11.9-4.3-18.1-5.9-40.2 0-56.8 8.1-6.8 3.7-13.5 7.8-19.3 12.8-2.7 2.2-2.7 2.2-4.7 2.2v2c-1.4 1.2-2.9 2.4-4.4 3.6-16.9 14.8-22.4 44-26.7 65.1-.2.6-.3 1.3-.4 1.9-5.7 28.9-5.9 60.3-3.8 89.7.2 1.8.3 3.6.4 5.5.4 5.9 1 11.6 2.5 17.4.6 2.6.5 5.1.4 7.8-2.1.9-2.1.9-5 1-2.4-1.5-4.3-3.6-6.2-5.7l-1.8-1.8c-5.2-5.5-9.6-11.4-14-17.5-6.4-8.4-15.8-16.6-26-20l1.2 2.4c4.4 9.4 7.8 19 11 28.8.3.7.5 1.3.7 2 3.4 10.3 6.4 20.6 8.3 31.2 1.5 7.8 3.4 15.4 5.2 23 .2.7.3 1.3.5 2 1.6 6.4 3.1 12.8 4.8 19.2 2.4 9.7 4.6 19.4 6.6 29.3.5 2.1.9 4.2 1.4 6.3 5.3 23.6 5.4 46.3 3 70.4-.1.6-.1 1.1-.2 1.8-1.4 13.6-1.4 13.6-6.9 18.9-2.7 1.8-4.4 2.5-7.6 2.7-3.2-.9-3.9-1.9-5.6-4.8-.9-2-1.6-3.9-2.2-6-6.7-17.9-25.5-29.1-41.9-37-5.6-2.6-11.3-4.8-17.3-6.2-.4-.1-.4-.1-2.2-.6-7.3-1.7-14.4-1.6-21.8-1.4 2.2 2.2 3.7 2.8 6.6 3.9 4.6 1.8 9 3.8 13.4 6.1.3.2.3.2 2.1 1.1 17.1 9.3 36 21.5 48.1 36.8.4.5.8.9 1.1 1.4 1.3 1.6 2.5 3.1 3.7 4.7.2.3.2.3 1.5 1.9 9.1 11.8 17 23.9 24.2 37 1.5 2.6 3 5.2 4.5 7.9 6.1 10.5 11.3 21.5 16.5 32.5 5.1 10.6 10.5 21 16.1 31.3.2.5.5 1.1.8 1.6 2.9 5.4 5.9 10.7 9.4 15.8.6 1.1 1.3 2.3 1.9 3.4 2.3 4 4.9 7.7 7.6 11.5 1.1 1.5 2.1 3 3.2 4.5.6.7 1.1 1.5 1.7 2.3 1.6 2.2 3.2 4.5 4.7 6.8 11.5 16.5 24.4 31.2 38.6 45.3 1.8 1.8 3.5 3.6 5.3 5.4 1.2 1.1 2.3 2.2 3.4 3.4.6.5 1.1 1 1.6 1.6 3.8 3.7 3.8 3.7 6 4.8v2c1.3.7 2.7 1.4 4 2 1.4.9 2.7 1.9 4 2.9.8.6 1.6 1.2 2.3 1.7.9.7 1.7 1.3 2.5 1.9 7.7 5.7 15.5 11.2 23.6 16.4 1.5 1 2.9 2 4.4 3 7.7 5.1 15.9 9.1 24.2 13.1.4.2.4.2 2.6 1.2 17.3 8.2 34.5 15.5 53.5 18.7 21.6 3.9 44 11.1 61.9 24.1.6.4 1.1.8 1.7 1.2 31.6 23 50.5 60.9 61.7 97.5.3.8.5 1.6.8 2.4 2.5 8.6 3 17 3 25.9v2.8c-.1 7.6-.8 15.1-1.9 22.7-1.5 11.2-2.8 22.5-3.4 33.8-.1.7-.1 1.5-.2 2.2-.6 11.4-.7 22.8-.6 34.2.1 2.2.1 4.5.1 6.7 0 1.6 0 3.1.1 4.6v2.3c0 4.5.1 9 .2 13.6.1 2.9.2 5.7.2 8.6 0 1.4 0 2.7.1 4.1.4 10.2-2 15.7-8.8 23.4-.5.6-1 1.3-1.5 2-1.9 2.6-3.1 3.9-6.3 4.9-.4 0-.4 0-2.2.1-1.2-4.6-1.1-9.1-1.1-13.9 0-.4 0-.4-.1-2.7v-41.1c-.1-44.9-.1-44.9 2-65.8.4-5.3.6-10.7.8-16 .1-4.7.9-8.9 1.9-13.4 2.2-10.3.3-20.3-3.5-30.1-.2-.6-.4-1.2-.7-1.8-7.5-20-17-40.1-28.8-57.9-1.4-2.2-2.6-4.4-3.8-6.6-12.4-22.5-29.8-32.9-53.7-40.7-5.4-1.5-10.8-2.8-16.2-4.1-13.3-3.2-26.3-6.8-39.1-11.7-.6-.2-1.2-.5-1.8-.7-7.2-2.8-14.1-6-20.9-9.5-1.1-.6-2.3-1.1-3.4-1.7-9.5-4.6-18.6-9.8-27.6-15.3-.7-.4-1.4-.8-2.1-1.3-8.4-5-16.2-10.1-23.5-16.5-1.5-1.3-3.1-2.6-4.6-3.9-5.9-4.9-11.7-9.9-17.4-15.1-1.6-1.5-3.3-3-5-4.5-5.2-4.6-9.9-9.3-14.4-14.7-.9-1.1-1.9-2.2-2.9-3.3-15-17.4-15-17.4-17.2-21.9l-.9-1.8h-2c-1.1-1.2-1.1-1.2-2.3-3-.4-.7-.9-1.3-1.3-2l-1.5-2.1c-.5-.7-.9-1.5-1.4-2.2-6.7-9.9-13.1-20-19.3-30.1-1.6-2.7-3.3-5.4-5-8-4.6-7.4-8.9-14.5-12-22.7-1.4-3.3-2.9-6.4-4.5-9.5-3.2-6.3-6.1-12.7-8.9-19.2-1.9-4.1-3.7-8.2-5.8-12.2l-6-12c-.3-.5-.5-1.1-.8-1.6-1.2-2.4-2.4-4.8-3.5-7.2-3.8-7.4-8.4-14.4-13.2-21.3-2.5-3.7-2.5-3.7-2.5-5.9h-2c-1.7-2.1-1.7-2.1-3.6-4.9-.3-.4-.3-.4-1.9-2.7-1.5-2.4-1.5-2.4-1.5-4.4h-2c-1.3-1.3-1.3-1.3-2.9-3.2-9.5-11.2-20.8-23.1-34.1-29.8v-2c-1.6-.7-3.3-1.4-5-2-1.4-.8-2.9-1.7-4.2-2.6-11-6.7-23-11.6-34.8-16.4l-6.6-2.7c-.9-.4-1.9-.8-2.9-1.2-3.9-1.7-3.9-1.7-5.5-3.1-.5-3.5-.5-5.3 1.5-8.2 15.1-10.9 41-7.6 58.3-5.2 22.9 3.9 45.3 19.9 60.2 37.4v2c.7-.3 1.3-.7 2-1 2.8-13.7 2.2-30.4-1-44l-.6-2.7c-1.7-7.4-4.9-13.9-8.5-20.6-.8-1.6-1.6-3.1-2.4-4.6-2.9-5.6-6.2-10.8-9.8-16-1.6-2.2-2.8-4.3-3.8-7l-.9-2.1h-2c-1.7-1.9-1.7-1.9-3.6-4.4-.7-.8-1.3-1.6-1.9-2.4-1.5-2.2-1.5-2.2-1.5-4.2h-2c-1.2-1.4-2.4-2.9-3.6-4.3-2.3-2.7-5.1-4.8-8-6.9-1.2-1-2.5-2-3.7-2.9-.3-.3-.3-.3-1.9-1.5-2.7-2.1-5.3-4.3-8-6.6-5.4-4.6-11-8.7-16.8-12.8-.8-.6-1.5-1.2-2.3-1.8-6.8-5-14.1-8.6-21.7-12.2-1.4-.7-2.7-1.3-3.9-2-5-2.6-10-4.4-15.3-6-.8-.3-1.6-.5-2.5-.8-3.8-1.2-7.5-2.3-11.4-3.3-.6-.2-1.2-.3-1.8-.5-1.6-.4-3.1-.8-4.7-1.2-2.4-1.2-2.4-1.2-3.9-3.6-.5-2.6-.5-2.6.1-4.7 9.3-12.2 35.6-14.4 49.7-16.4 19.6-2.1 39.5 3.5 55.7 14.5l1.8 1.2c1.9 1.3 3.9 2.7 5.8 4l1.8 1.2c3.1 2.3 5.6 4.3 7.6 7.6v2h2c-3.3-14-8-25.6-16-37.5-.2-.4-.2-.4-1.5-2.4-1-1.4-2-2.9-3.1-4.4-3.4-5-3.4-5-3.4-8.5 1-2.2 1.8-3.5 3.6-5l1.3-1.3c3.9-1.7 8-1.6 11.9-.3 1.9.9 3.6 1.8 5.4 2.8.6.4 1.3.8 1.9 1.1 6.1 3.5 11.8 7.3 17.4 11.4q2.1 1.65 4.2 3c.8.6 1.7 1.2 2.5 1.9l2.1 1.5c1.7 1.7 1.7 1.7 2.8 4.4.3.8.6 1.5.9 2.3h3c-.1-.3-.1-.3-.5-1.7-7.3-32.3-5.4-85.3 5.5-116.3.3-1.3.6-2.5.8-3.8 5.1-23.2 13.4-48.6 30.1-66 2.1-2.2 2.1-2.2 4.1-4.8 3.1-3.8 7-6.4 11-9.4.3-.2.3-.2 1.6-1.3 10-8.3 24.1-10.9 36.7-10.8h2.4c8.8 0 16.5.7 24.6 4.1.7.3 1.5.6 2.2.9 11 4.9 19.4 12.4 27.5 21.1.7-.3 1.3-.7 2-1 .4-2.4.4-2.4.6-5.6.1-.6.1-1.2.2-1.8.1-2 .2-3.9.3-5.8.1-.7.1-1.4.1-2.1 2.4-38.5.9-79.1-12.2-115.7-.3-.7-.5-1.5-.8-2.3-1.7-4.8-3.5-9.6-5.3-14.4-.8-2.2-1.6-4.3-2.4-6.5-4.6-13-10.6-25.5-18.9-36.5-1.3-1.9-2.4-3.7-3.5-5.7-6.4-11.3-15.6-20.4-24.7-29.4l-1.5-1.5c-1.4-1.4-2.8-2.9-4.3-4.3l-1.3-1.3c-1.7-1.7-3.2-3-5.3-4.1v-2c-1.3-.7-2.7-1.3-4-2-1.9-1.5-3.7-3-5.6-4.5-5.1-4.3-5.1-4.3-7.2-5.7-.4-.2-.8-.5-1.2-.8v-2c-1.3-.7-2.7-1.4-4-2-1.4-1-2.9-2.1-4.2-3.1-.8-.6-1.5-1.1-2.2-1.7-.3-.2-.3-.2-1.6-1.2.3-1 .7-2 1-3m87 71c1.5 3.8 3.2 7.5 5 11.2 13 27 22.3 54.6 29 83.8.2.8.4 1.6.5 2.4 3.8 17 5.1 34.5 6.7 51.8 0 .5 0 .5.2 2.7 1.1 11.9.7 23.6-.5 35.5-.1.6-.2 1.3-.2 1.9-2.5 22.8-7 45-14.7 66.7-.4 1.2-.8 2.4-1.3 3.6-4.3 12.5-8.7 24.8-13.3 37.2-14.6 39.1-28.7 82.8-14.4 124.2.7.3 1.3.7 2 1v-3.4c-.1-14.4.2-27.9 4.4-41.8.4-1.2.7-2.3 1.1-3.5 4.5-16.1 14.9-29.8 25.2-42.7 2.4-2.9 4.6-5.9 6.9-8.8.5-.5.9-1.1 1.4-1.7 3-3.9 3-3.9 3-6.1h2c4-4.5 4-4.5 4-7h2c5.8-6.3 10.3-14.8 13.4-22.7.3-.5.5-1.1.7-1.7 3.7-9.8 5.4-19.9 6.5-30.2.1-.6.2-1.2.2-1.8.9-8.4 1.4-16.8 1.6-25.4.3-9.6 1.2-19.1 2.5-28.7 0-.3 0-.3.2-2 .5-3.2.9-6.5 1.4-9.7 4.3-30.9 7-62-5.5-91.3-1.1-2.8-2-5.7-2.8-8.6-4.8-16-12.5-31-22.6-44.3-.4-.5-.8-1.1-1.3-1.7-1-1.3-2.2-2.6-3.3-3.9h-2c-.3-1-.7-2-1-3h-2c-.2-.5-.2-.5-1-3h-2c-.2-.5-.2-.5-1-3h-2c-.2-.5-.2-.5-1-3h-2c-.2-.5-.2-.5-1-3h-2c-.3-1-.7-2-1-3-1.6-1.6-1.6-1.6-3.4-3.2-.7-.5-1.3-1-1.9-1.6-1.7-1.2-1.7-1.2-3.7-1.2v-2c-1.4-1-2.9-1.9-4.3-2.8-1.7-1.2-3-2.5-4.5-4l-2.2-2.2zm395 8c-.8.3-1.6.7-2.4 1-9.8 4.6-18.4 11.1-26.6 18 1.3 1.7 2.6 3.4 4 5h2v2c1.8 1.7 1.8 1.7 4.3 3.6.5.4.9.7 1.4 1.1 10.5 8.1 21.4 15.6 32.7 22.7 16.9 10.7 16.9 10.7 18.8 15.7-.5 6.2-4.4 9.2-8.8 13-2.5 2-5 3.8-7.6 5.7-10.2 7.3-19.5 15.7-28.8 24.2 2.5 0 4-.2 6.4-.9.7-.2 1.4-.4 2-.6.8-.2 1.5-.4 2.2-.6.8-.2 1.5-.5 2.3-.7 12.3-3.7 24.3-8.1 36.1-13.2 1.3-.6 2.6-1.1 3.9-1.7 7.8-3.2 15.1-6.7 22.1-11.3.7-.4 1.5-.9 2.2-1.4 10.7-6.7 22.1-16.2 26.5-28.5 2.1-13.6-.6-23.6-8.6-34.7-2.5-2.8-5.2-5.1-8.2-7.3-.5-.5-1.1-.9-1.7-1.3-4.4-3.4-9-6.1-14-8.6-2.2-1.2-2.2-1.2-3.6-2.2-15.8-10.1-40.8-6.6-56.6 1m-161 1c-2 1.4-2 1.4-4 3v2c-1.3.7-2.6 1.4-4 2-9 5.3-17.4 11.4-25.6 17.9-.9.7-1.9 1.5-2.9 2.2-1.2.9-2.3 1.9-3.5 2.9v2c-.6.3-1.1.5-1.7.8-3 1.5-5.1 3.7-7.5 6.1l-1.4 1.4c-5.1 5.2-9.3 10.8-13.4 16.7-.6.8-1.1 1.6-1.7 2.4-4.5 6.4-10.7 15.4-10.3 23.6 2.4 1.9 3.9 3 7 3v2c1.1.9 2.2 1.8 3.4 2.7 4.1 3.4 6.7 7.2 9.5 11.7 4 6.3 8.2 11.9 14.1 16.6h2v2c2.1 1.6 4.3 3 6.5 4.4.6.4 1.3.8 2 1.2 4.4 2.8 8.8 5.2 13.5 7.4 9.7 4.6 19.3 9.3 27.7 16.2 2.3 1.8 2.3 1.8 4.3 1.8.7 1.3 1.3 2.7 2 4 1.9 2.8 1.9 2.8 4 5 2.5-.2 3.6-.6 5.4-2.4.4-.6.8-1.3 1.3-1.9.5-.7 1-1.4 1.5-2.2.6-.8 1.2-1.6 1.8-2.5l4.5-6c4.1-5.5 4.1-5.5 6-8.1 8-11.1 18.2-22.7 30.5-28.9v-2c1.6-.7 3.3-1.4 5-2 2.5-1.2 4.9-2.6 7.3-3.9 4.7-2.5 9.5-5 14.4-7.2 1.3-.9 1.3-.9 2.3-3.9-.5 0-1.1 0-1.6.1h-2.3c-.7 0-1.4.1-2.2.1-27.8-1.9-57.1-13.5-75.9-34.2-2.1-2.6-4.1-5.2-6-8-.2-.4-.2-.4-1.5-2.2-1.9-3.5-3-7.1-4.1-10.9-.2-.7-.5-1.4-.7-2.1-1.5-4.9-2.8-9.4-2.9-14.5-.1-.8-.1-1.7-.1-2.6-.1-1.9-.2-3.7-.2-5.5-.1-.9-.1-1.8-.1-2.7 0-.8-.1-1.6-.1-2.4-.3-2.2-.9-3.4-2.3-5.1m66 16c-.8.3-1.5.5-2.3.8-7.2 2.9-11.5 7-14.6 14.1-2 6.1-1 11.7 1.8 17.5 1.3 2.6 2.7 4.8 5.1 6.6 10.5-.4 23.4-9.3 31.3-15.7 1.7-1.3 3.4-2.4 5.2-3.5.8-.6 1.7-1.2 2.5-1.8v-2c1.3-.7 2.7-1.3 4-2 1.7-1.3 3.4-2.6 5-4 .6-.5 1.2-1 1.9-1.6.3-.4.7-.9 1.1-1.4-.2-.5-.2-.5-1-3-2.5-1.1-2.5-1.1-5.6-2.1-1-.3-2.1-.6-3.1-.9-1.1-.4-2.2-.7-3.3-1-.3-.1-.3-.1-1.7-.6-4.3-1.3-8.3-1.7-12.9-1.6-.3-.1-.3-.1-1.9-.1-4.2 0-7.5.8-11.5 2.3m46.6 17.4c-9.6 10-21.1 17.4-32.9 24.6-1.5.9-2.9 1.7-4.3 2.6-2.7 1.6-5.3 2.6-8.2 3.6-1 .3-2 .7-3 1-.7.3-1.4.5-2.2.8 9.9 10.7 28.6 11.3 42.3 12.8 6.4.8 13.3 1.7 17.7 7.1 1.6 2.1 2 2.9 2.2 5.7-1.5 3-3.3 4.4-5.9 6.3-.2.2-.2.2-1.3 1.1v2c-.7.2-.7.2-4 1v2c-1.7.7-3.3 1.4-5 2-16.2 8.3-30.3 20.3-44 32 3 1 3 1 4.8.4.3-.2.3-.2 2-1 3.9-1.9 7.8-3.4 11.9-4.8 11.3-3.9 23.1-8.4 33.3-14.6v-2c1.6-.7 3.3-1.4 5-2 2.3-1 2.3-1 4-2v-2c.3-.1.3-.1 2.1-.8 3.6-1.5 6.1-3.6 9-6.2.6-.5 1.2-1 1.7-1.5 3.7-3.1 7.2-6.4 10.8-9.6 6.3-5.9 13.2-11.1 20.4-15.9.9-.6 1.8-1.2 2.8-1.9.4-.2.4-.2 2.4-1.6l1.8-1.5v-3c-1.8-.9-1.8-.9-4.3-1.8-16.2-6-30.6-18.8-42.9-30.6-6.7-6.3-6.7-6.3-9.8-7.1-3 .8-4.4 2.6-6.4 4.9M2065 763l-2 2c-1.1.4-2.1.8-3.2 1.2-7.7 3.2-11 10.6-14 17.9-.2.4-.2.4-1.1 2.3-2.7 6.3-4.8 12.6-6 19.4-.1.6-.3 1.3-.4 1.9-.4 2.2-.7 4.4-1.1 6.5-.1.8-.3 1.6-.4 2.3-2.4 13.8-4.1 27.5-5.6 41.4-1.4 12.7-3.3 25.1-5.8 37.7-2 9.8-3.4 19.4-3.4 29.4 3-1 3-1 4.5-3.5.5-1 1-2.1 1.5-3.1.1-.3.1-.3.8-1.7.7-1.6 1.5-3.1 2.2-4.7.2-.3.2-.3.9-2 3.2-6.9 5-14.2 6.6-21.6.6-2.7 1.2-5.4 1.9-8.2 1.3-5.9 2.5-11.8 3.7-17.8.1-.8.3-1.7.5-2.5.8-4.6 1.6-9.1 2.3-13.7 8.7-52.1 8.7-52.1 18.9-75.1.3-.6.6-1.2.9-1.9.2-.5.5-1.1.7-1.6.6-1.6.6-1.6.6-4.6zm-207.7 96.4c-.8.9-1.5 1.7-2.3 2.6.3.7.7 1.3 1 2 .3-.3.3-.3 2-1.6 5.7-4.3 11.2-7.7 17.9-10.5 2.1-.9 2.1-.9 3.1-1.9 1.5-.4 3-.7 4.4-1 2.4-.5 4.4-.9 6.6-2l5.7-.9c4.6-.8 8.9-1.7 13.3-3.1v-2c-18.4-.7-38.3 5.3-51.7 18.4M2425 879c-10.1 15.5-7.3 37.9-3.8 55.1 1.7 8.1 3.8 16 6.7 23.8 1.2 3.3 2.2 6.7 3.1 10.1h2c3.6-37.7 3.6-37.7 4-52 0-.8.1-1.6.1-2.5.5-18.3.5-18.3-3.1-26.5-.3-.7-.6-1.5-1-2.3-.3-.5-.7-1.1-1-1.7h-2c-.3-1-.7-2-1-3-2.1-.7-2.1-.7-4-1m-21 10c-.3 1-.7 2-1 3h-2c-1.3 1.3-1.3 1.3-2.9 3.2-2.5 3-5.1 5.8-7.8 8.6-8.2 8.8-15.2 18.5-22.3 28.2-.6.8-1.2 1.6-1.8 2.5-6.4 8.6-12.6 17.3-18.2 26.5-.8 1.2-1.5 2.5-2.3 3.7-5.7 9-11.3 18.1-16.7 27.3-.4.6-.7 1.2-1.1 1.9-10.1 17.1-18.2 35.1-23.9 54.1-.2.7-.5 1.5-.7 2.2-2.3 7.6-4.5 15.2-6.5 22.9-.6 2-1.1 4-1.7 6.1-2.6 9.1-4.4 18.2-5.9 27.5-.4 2.4-.8 4.7-1.2 7-1.3 8.1-2.4 16-2.8 24.2-.2 3.4-.7 6.6-1.3 10-2.3 16-2.7 35.5.6 51.5.5 2.7.7 5.3.9 8.1.9 14.7 2.5 29 5.1 43.5.5 2.9.9 5.8 1.4 8.7 2.1 13.1 5.1 25.9 8.4 38.7 1.4 5.5 2.7 11 4 16.5 4 17.3 9.1 34 14.8 50.7 1.3 3.7 2.6 7.5 3.8 11.2 2.2 6.5 4.4 12.9 6.9 19.3.3.8.7 1.6 1 2.5 2.7 6.5 5.9 12.6 9.5 18.6 1.4 2.3 2.6 4.5 3.7 6.8 4.3-1.4 7.4-3.7 10.9-6.5 2-1.4 4-2.6 6.1-3.7l3-1.8v-2c1.7-.7 3.3-1.3 5-2 9.9-6.2 19.8-14.9 22.7-26.8.2-1 .4-2.1.6-3.2.2-1.2.5-2.4.7-3.5.1-.4.1-.4.4-1.9 3.3-16.8 7.4-30.4 18.6-43.6.4-.5.9-1.1 1.3-1.6 2.3-2.8 4.7-5.5 7-8.2 3.2-3.8 6.4-7.7 9.5-11.5 1.5-1.8 2.9-3.5 4.3-5.2 6.3-7.5 11.9-15.4 17.4-23.4 9.8-14 19.9-27.6 31.5-40.1 1.6-1.8 3.3-3.6 4.9-5.4.7-.8 1.4-1.6 2.2-2.4 4.9-5.6 4.9-5.6 4.9-9.2-1.6-1.4-3.3-2.7-5-4-.6-.8-1.2-1.5-1.8-2.3-1.9-2.3-3.5-3.9-5.8-5.8-36.8-31.6-46.4-80.9-50.1-127.3-.4-6.7-.3-13.3-.2-19.9 0-4 .1-7.9.1-11.9.1-4.9.1-9.9.2-14.8.1-4.1.1-8.2.1-12.2 0-1.5.1-3.1.1-4.6.2-9.1-.4-15.4-5-23.4-2.5-4.4-4-8.9-5.5-13.6-.4-1-.7-2-1.1-3-.7-2.1-1.4-4.1-2.1-6.2-1-3.1-2.1-6.2-3.2-9.3-5.1-14.9-9.6-30-10.9-45.8-.1-.7-.2-1.5-.3-2.2-.8-8-.9-15 1.5-22.7.1-2.4.1-2.4 0-4zm-60 46c-17.6 11.1-35.1 22.7-51.3 35.7-1.7 1.3-1.7 1.3-3.7 2.3v2c-1.3.7-2.6 1.4-4 2-6.5 4.2-11.9 9.7-17.3 15.1l-2.1 2.1c-3.4 3.5-6.6 7-9.6 10.8-2.1 2.2-4.3 4.4-6.6 6.5-5.2 5.1-9.8 10.7-14.4 16.5-.4.6-.9 1.1-1.4 1.7-39.6 49.6-63.8 106.4-58.3 170.7.7 6.6 1.9 12.9 3.7 19.3.8 2.8 1.4 5.4 1.9 8.3 2.1 11.9 5.6 23 10.3 34.1.9 2.2 1.8 4.4 2.7 6.7 5.9 14.7 12.5 28.9 21.1 42.2.4.6.8 1.2 1.2 1.9 8.5 13.2 17.8 25.3 28.6 36.8 1.6 1.7 3.2 3.5 4.7 5.3 16.2 18.7 16.2 18.7 23.5 25h2v2c1.4 1.4 1.4 1.4 3.4 3.1 2.5 2.1 4.9 4.2 7.3 6.4.4.4.9.8 1.3 1.2l3.9 3.6c2.1 1.7 2.1 1.7 4.1 1.7v2c1.6 1.4 3.1 2.7 4.8 4 4.8 3.8 9.3 7.8 13.7 12 1.1 1 2.3 2 3.5 3 .7-.3 1.3-.7 2-1-1.8-4.7-3.8-9.2-5.9-13.8-1-2.3-2-4.6-3.1-6.9-.6-1.5-1.3-3-2-4.6-2.4-5.2-4.4-10.4-6.2-15.8-.7-1.8-1.3-3.6-1.9-5.3-.3-.9-.6-1.8-.9-2.8-1-2.8-2-5.6-3-8.5-5.3-14.8-10.2-29.8-13.5-45.2-.7-3-1.5-5.9-2.3-8.8-11.7-43-17.8-87.5-17.6-132.1v-9.9c-.1-23.8 1.4-47.2 7.4-70.3.5-1.8.9-3.7 1.4-5.5 5-19.7 10.7-38.7 18.6-57.5.7-1.8 1.5-3.6 2.2-5.4 5.5-13.1 11.3-25.8 19.4-37.5 3.6-5.3 6.8-10.9 9.8-16.6 2.4-4.3 5.1-8.2 8-12.2 1.3-1.8 2.5-3.6 3.7-5.5 1.9-2.8 3.9-5.6 5.9-8.3 1-1.5 1-1.5 1-3.5h2c1.7-1.8 1.7-1.8 3-4-.3-1-.7-2-1-3m-336 7c-.9 2-.9 2-2 4.9-5.1 12.9-12.6 24.2-21.7 34.6-2.4 2.8-4.7 5.7-7 8.7-.2.3-.2.3-1.3 1.6-.8 1.2-1.7 2.3-2.6 3.4-1 1.3-2 2.6-3.1 3.9-4.5 5.5-8.1 11.3-11.4 17.7q-.75 1.35-1.5 3c-9.9 19.6-12.2 38.8-11 60.4 0 .7 0 1.3.1 2 .3 4.6.3 4.6 2.5 6.8.4-1 .8-1.9 1.3-2.9 7.5-16.6 17.1-29.7 30.1-42.4 5.5-5.5 10.3-11.2 14.6-17.7.5-.8 1.1-1.6 1.6-2.4 1.8-3.3 2.6-6.6 3.5-10.4.1-.6.3-1.3.4-2 .4-1.3.7-2.7 1-4.1s.7-2.7 1-4c1.9-7.7 2.6-15.6 3.5-23.5.3-2.9.7-5.7 1-8.6 0-.4 0-.4.2-2.1.6-4.9 1.5-9.8 2.4-14.7.5-2.6.6-5.2.5-7.9v-2.5c-.1-.6-.1-1.2-.1-1.8zm201 84c-.3 1-.7 2-1 3-1 .3-2 .7-3 1-1.2 1.2-1.2 1.2-2.4 2.7-.2.2-.2.2-1.3 1.7-.5.6-.9 1.2-1.4 1.8s-1 1.2-1.5 1.9c-4.4 5.8-8.4 11.8-12.3 18.1l-3.6 5.7c-5.8 9.1-10.9 18.3-15.5 28.1l-1.2 2.4c-6.9 14.6-12.6 29.4-17.8 44.6-.3.8-.6 1.6-.8 2.4-1.9 5.4-3.2 10.7-4.2 16.4-.2.8-.3 1.7-.5 2.7-10 54.9-4.3 107.5 18.5 158.5.3.7.6 1.3.9 2 7.5 16.8 16.7 32.4 28.1 47 .3.3.3.3 1.6 2.1 3.7 4.9 7.6 9.6 11.6 14.4 2.1 2.4 4.2 4.9 6.1 7.5.2.2.2.2 1.2 1.4.9 1.3 1.9 2.6 2.9 3.8.3.3.3.3 1.6 1.8h2c.1.3.1.3.8 1.7 1.7 3.2 4.1 5.2 6.8 7.6.6.5 1.1 1 1.6 1.5 1.1.9 2.2 1.9 3.3 2.9 1.3 1.2 2.7 2.4 4 3.6.7.6 1.4 1.2 2.1 1.9.6.5 1.2 1.1 1.9 1.7 1.5 1.1 1.5 1.1 3.5 1.1v2c4.5 4 4.5 4 7 4v2c1.5 1.3 1.5 1.3 3.7 2.9 4 3.1 7.9 6.2 11.7 9.5 4.2 3.6 8.4 7.2 12.7 10.7.9.7 1.8 1.5 2.7 2.2 2.2 1.7 2.2 1.7 5.2 2.7v2c1.5 1.2 3 2.4 4.6 3.5 5.3 4.1 8.9 8.7 12.4 14.5l1.5 2.4c2.5 4.2 4.1 7.7 4.5 12.6 3-1 3-1 4-3.1.4-.9.7-1.9 1.1-2.9.4-1.2.8-2.3 1.2-3.5.3-.7.5-1.4.8-2.1 1.1-2.9 2.2-5.7 3.4-8.6.1-.3.1-.3.7-1.7.9-2.2 1.8-4.5 2.7-6.7.7-1.6 1.3-3.2 2-4.8.4-.9.8-1.9 1.1-2.8 1.1-3 1.7-5.7 2-8.8-1.4-1.5-1.4-1.5-3.6-2.8-4.3-2.5-8.3-5.2-12.3-8.1-1.2-.9-2.4-1.8-3.6-2.6l-5.1-3.6-4.2-3c-.3-.3-.3-.3-2.3-1.7-1.9-1.2-1.9-1.2-3.9-1.2v-2c-1.6-1.2-1.6-1.2-3.9-2.6-5.3-3.5-10.2-7.4-15.1-11.4-1.8-1.4-3.5-2.8-5.3-4.2-3.5-2.8-6.6-5.6-9.7-8.8-1.7-1.5-3.4-2.9-5.2-4.4-12.6-11.1-28.2-26.4-35.8-41.6h-2c-.3-.7-.5-1.4-.8-2.1-1.5-3.6-3.6-6.4-5.9-9.5-7.5-10.4-14.1-21.2-20.3-32.4-.3-.6-.7-1.2-1-1.9-7.2-13-12.8-26.2-17.7-40.2-.4-1.1-.7-2.2-1.1-3.3-3.8-10.8-6.4-21.7-8.3-33-.1-.9-.3-1.8-.4-2.8-.6-2.9-1-5.9-1.5-8.8-.2-1.1-.4-2.1-.6-3.2-1.5-9.4-1.8-18.6-1.8-28.1v-2.4c0-14.1 1.5-27.4 4.4-41.3.3-1.5.6-3 .8-4.5 1.8-9.8 4.3-19.2 7.6-28.6.2-.6.4-1.1.6-1.7 1.5-4 3.2-7.9 4.9-11.8 1.1-2.4 2.1-4.8 3.1-7.1 6.3-14.4 13.5-27.3 22.9-39.9 3.1-4.2 3.1-4.2 3.1-6.4h2c1.7-2.1 1.7-2.1 3.6-4.9.3-.4.3-.4 1.9-2.7 1.5-2.4 1.5-2.4 1.5-4.4zm321 2c-1.2 1.6-1.2 1.6-2.6 3.8-.5.8-1.1 1.6-1.6 2.5s-1.1 1.8-1.7 2.8c-.6.9-1.1 1.8-1.7 2.8-9.7 16-18.1 32.1-23.7 49.9-.6 2-1.3 3.9-2 5.9-6.9 18.8-10.2 39-14.1 58.6-.6 2.6-1.2 5.1-1.8 7.7-2.4 10.2-2.4 10.2-1 14.7 1.6 2.4 3.2 4.2 5.2 6.3.8 1 1.6 2 2.3 3 2.2 2.7 4.3 5.4 6.7 8h2c.3.6.6 1.1.9 1.7 1.3 2.8 3.1 4.4 5.3 6.5 5.7 5.6 10 11.3 12.8 18.8 2-1 2-1 2.7-2.6.2-.7.4-1.4.6-2.2.1-.3.1-.3.7-2.4.1-.4.1-.4.8-2.6.2-.9.5-1.8.7-2.7.9-2.8 1.7-5.7 2.5-8.6.6-1.9 1.1-3.8 1.7-5.7 6.4-22.3 8.7-41.9 5.3-65.1-2.4-17.2-3.4-34.1-3.5-51.4v-3.1c-.1-13.3 1-25.7 4.1-38.6.5-2.7 1-5.3 1.4-8zm-855 32c2.4 2.4 3.5 2.4 6.8 3.1 23.2 5.6 43.9 18.3 62.7 32.7 1.3 1.1 2.7 2.1 4 3.1 14.1 10.5 27.3 23.6 36.1 39 .5.7.9 1.4 1.4 2.1h2c-.8-6.3-2-12.6-3.3-18.8-.2-1-.4-2.1-.6-3.1-2-9.7-4.8-18.2-10.8-26.1-.4-.6-.9-1.2-1.3-1.8-15.1-20.2-33-31.9-58-36.2-2.6-.3-5.1-.3-7.6-.3h-2.1c-10.1.2-20 2.3-29.3 6.3m269 249c.6 5.5 2.5 10.4 4.5 15.6.4.9.7 1.8 1.1 2.7 2.8 7.4 5.9 14.7 9 21.9 2.6 5.9 5 11.9 7.4 17.9 6.3 16 13.6 31.4 21.7 46.5 1.3 2.4 2.5 4.8 3.7 7.1 8.2 15.9 17.3 31 28.5 44.9 1.6 2.1 3.2 4.1 4.8 6.2.5.6 1.1 1.3 1.6 2.1 1.2 1.5 2.4 3.1 3.6 4.7.6.8 1.3 1.6 1.9 2.5.6.7 1.1 1.5 1.7 2.2.5.6 1 1.1 1.5 1.7h2c.7 1.3 1.3 2.7 2 4 1.2 1.4 2.5 2.8 3.8 4.1l2.3 2.3c.8.8 1.6 1.5 2.4 2.4q1.2 1.05 2.4 2.4c.7.7 1.5 1.5 2.3 2.2.6.7 1.3 1.4 2 2.1 1.8 1.5 1.8 1.5 3.8 1.5v2c1.1 1 1.1 1 2.7 2.2l1.8 1.2c.7.5 1.3.9 1.9 1.4.4.2.4.2 2 1.3 1.9 1.3 3.7 2.6 5.6 3.9.8.6 1.7 1.2 2.5 1.8 4.8 3.2 9.7 6 14.8 8.7 2.6 1.4 5.1 2.9 7.6 4.5 27.1 16.3 62.6 25.7 94 19.5q2.55-.6 5.1-1.5c-1.1-3.3-1.8-3.9-4.4-6-3.4-2.7-3.4-2.7-4.7-4.7-.3-.4-.6-.9-.9-1.3h-2c-.1-.3-.1-.3-.8-1.6-1.7-3.4-4.1-5.8-6.7-8.6-.5-.6-1.1-1.1-1.6-1.7-3.9-4.2-8-8-12.3-11.7-3.6-3.3-6.8-6.9-10.1-10.4-3.4-3.8-6.9-7.5-10.4-11.1-.5-.4-.9-.8-1.4-1.3-7.6-7.6-7.6-7.6-10.7-7.6-.3-1-.7-2-1-3-1.4-1.3-1.4-1.3-3.2-2.7-.7-.5-1.4-1-2.1-1.6-.7-.5-1.4-1.1-2.2-1.6-.8-.6-1.5-1.2-2.3-1.8-7.9-5.9-16-11.6-24.2-17.3-8-5.6-16.1-11.3-24-17-.5-.4-1-.7-1.6-1.1-9.6-7-18.7-14.6-27.4-22.7-.5-.4-1-.8-1.4-1.2-1.3-1.2-2.5-2.3-3.7-3.5-1.9-1.5-1.9-1.5-3.9-1.5v-2c-1.7-1.5-3.4-3-5.2-4.4-2.9-2.2-5.5-4.3-8-6.9-1.8-1.7-1.8-1.7-3.8-1.7-.3-1-.7-2-1-3h-2c-.3-1-.7-2-1-3h-2c-.3-1-.7-2-1-3h-2c-.3-1-.7-2-1-3h-2c-.3-1-.7-2-1-3h-2c-.3-.5-.5-1.1-.8-1.6-1.7-3.4-4.2-5.8-6.8-8.5-4.6-4.9-8.9-9.8-12.9-15.2-.5-.5-1-1.1-1.5-1.7h-2c-.7-1.3-1.3-2.7-2-4-1.4-1.6-2.8-3.1-4.2-4.6-3.7-4.1-7-8.3-10-12.8-2-2.8-4-5.6-6-8.3-2.2-3-4.3-6-6.1-9.4-1.6-2.7-2.2-3.4-4.7-4.9m544 3c-.3 1.7-.7 3.3-1 5h-2c-.7 1.4-1.5 2.8-2.1 4.2-1.5 3.1-3.3 6-5 8.9-.7 1.2-1.4 2.4-2.1 3.7-.3.5-.6 1.1-.9 1.7-.9 1.5-.9 1.5-2 3.9-.9 1.6-.9 1.6-3.9 2.6-1.3 1.4-1.3 1.4-2.6 3.1-3.7 4.5-8.2 7.7-12.9 11.1-.4.3-.4.3-2.5 1.8-3.4 2.5-6.9 5-10.4 7.3-4.2 2.8-6.6 5.8-7.6 10.7-.2 1.6-.3 3.3-.4 4.9-.1 1-.2 1.9-.3 2.9 0 1.1-.1 2.1-.2 3.2-.2 2.2-.3 4.4-.5 6.6-.3 3.5-.5 7-.8 10.5-.2 3.4-.5 6.8-.8 10.1 0 .5 0 .5-.2 3.1-.4 5.7-1.1 11.1-2.4 16.6-.8 4-.9 8-1.1 12-.3 3.3-1.2 6-2.3 9.1-.1 3.4-.1 3.4 0 6h2c1.2-2 2.3-4 3.4-6.1l2.1-4.2c.4-.7.8-1.5 1.2-2.3 1.9-3.5 3.8-6.9 5.7-10.4 5.2-9.3 10-18.8 14.5-28.5 1.7-3.7 3.5-7.2 5.3-10.7 6.1-12.1 10.8-24.5 15.2-37.3 1.8-5.2 3.6-10.4 5.6-15.5 2.3-6.2 4.6-12.4 6.8-18.6.3-.9.6-1.7.9-2.6 1.5-4.3 2.7-8.3 3.3-12.8z"/><path fill="#060606" d="M1587.07 1593.762c9.8 9.2 15.1 21 19.9 33.2 2.6-.1 5.2-.3 7.8-.4.8 0 1.6-.1 2.4-.1 4.2-.3 8.3-.6 12.5-1 12.2-1.2 24.2-.4 36.3 1.2.7.1 1.5.1 2.2.2 21 2.6 43.1 7.3 61.5 18.4 6.3 2.1 12.9-1.5 18.6-3.9 12.3-4.8 24.9-8.2 37.7-11.4 1.1-.2 2.2-.5 3.3-.8 3-.7 6.1-1.4 9.1-2.2.9-.2 1.8-.4 2.8-.6.8-.2 1.7-.4 2.5-.6s1.5-.4 2.3-.5c2.2-.3 3.9.1 6 .7 0 1.9 0 1.9-1 4-6.1 3.1-12.7 5-19.1 7.1-12.4 4-24.7 8.3-36.8 13.1-1.4.6-2.8 1.1-4.2 1.6-1.9.8-1.9.8-4.9 2.2v3c1.7.7 3.4 1.4 5 2 2.1 1.8 2.1 1.8 4 3.9.4.3.4.3 2.1 2.1.6.7 1.3 1.4 1.9 2 .9.9 1.9 1.8 2.8 2.7 14.2 14.6 18.7 31.8 18.7 51.6-.5 24.4-12.1 44.8-28.3 62.4-2 2.1-3.9 4.3-5.7 6.5-17.6 20-43.4 36.1-67.8 46.1-2.3 1-4.5 2.1-6.7 3.3-11.1 5.6-22.7 9.4-34.6 12.8-2.6.7-5.2 1.4-7.7 2.2-1.9.5-3.7 1-5.5 1.6-.9.2-1.8.5-2.7.7-3.8 1.1-7.5 2.2-11.2 3.1-1 .2-2 .5-3 .7-.8.2-1.7.4-2.5.6-.6.2-1.2.5-1.8.7-.3 1-.6 2-1 3 .4.2.4.2 2.2.8 22.4 9.8 36 36.8 44.6 58.2 7.6 19.9 9.8 41.3 12.2 62.3 8.4 73.1 8.4 73.1 36.2 96.6 17.1 12.3 38.9 15.4 59.4 12.8 13.3-2.2 25.4-6.8 37.2-13.3.8-.4 1.5-.8 2.2-1.2s1.3-.8 2-1.2c.6-.3 1.2-.6 1.8-1 .4-.3.8-.6 1.2-1v-2c-1 0-2-.1-3-.2-13-1.1-24.1-4.7-33-14.8-2.3-3.1-4.2-6.4-6-10-.4-.8-.8-1.6-1.2-2.5-7.4-18-2.5-38.7 4.4-56 7-16.8 17.6-30.2 29.8-43.5 1-1.1 2-2.1 3-3.2 15.2-16.6 15.2-16.6 21-20.8h2v-2c2-1.7 4-3.3 6.1-5 .6-.5 1.3-.9 1.9-1.4 6.2-4.8 12.6-9.1 19.2-13.4 1.8-1.1 3.5-2.3 5.2-3.5 8.8-5.9 18-10.4 27.6-14.7 1.7-.8 3.4-1.7 5.1-2.6 3.6-1.7 7.3-2.8 11.2-3.9.7-.2 1.5-.5 2.3-.7 2.1-.6 4.3-1.2 6.4-1.8.9-.2 1.8-.5 2.7-.7 5.6-1.4 11.3-1.5 17-1.5h2.5c8.3 0 15 1.8 21.2 7.5 5.6 6.1 7.3 13.7 7 21.8-1.9 13.6-9.8 24.6-20.5 32.9-4.3 3.1-8.5 6.1-12.9 9-.9.7-1.8 1.3-2.7 2-15.8 11-34 18.7-52.5 24.3-.3.1-.3.1-2.3.7-2.5.7-5 1.4-7.5 2-1 .3-2.1.6-3.2.9-6.2 1.5-12 2.4-18.5 2.3h-1.9c-2.6 0-5.2-.1-7.8-.2-11-.4-11-.4-14.9 3.1-1.8 2.6-3.3 5.1-4.7 7.9l-2.1 3.3c-11.4 18.3-24.7 40.5-20.9 62.7 1.4 5.6 1.4 5.6 3.9 7.3.7.2 1.4.5 2.1.7.8.4 1.5.8 2.3 1.1 6.2 2.8 10.1 3.2 16.7 1.9 1.1-.1 2.1-.2 3.2-.3 30-3.2 58.9-25.6 80.4-45.5 1.4-1.2 1.4-1.2 3.4-1.2v-2c1.5-1.5 1.5-1.5 3.4-3.1.3-.3.3-.3 1.9-1.6 1.7-1.3 1.7-1.3 3.7-1.3.4-1 .7-1.9 1-3 1.5-1.4 1.5-1.4 3.3-3 9.3-7.8 18-16.1 26.5-24.6l2.5-2.5q6.15-6.15 12-12.9c3.8-4.3 7.9-8.5 11.9-12.7 3.1-3.3 6.2-6.6 9.1-10.1 2-2.3 3.9-4.4 6.2-6.3 2.6-2.2 5.1-4.4 7.6-6.6 7.9-7 16.2-13.2 25-19 1.8-1.2 3.7-2.4 5.5-3.7 8.4-5.6 17.3-10.2 26.4-14.6 1.4-.6 2.7-1.3 4.1-1.9 6.5-3.1 12.9-6.1 19.9-8.1.9-.2 1.8-.5 2.6-.7 15.1-4.2 33.9-7.4 48.4-.3 4.1 2.6 7 5.6 9 10 .5 2.4.8 4.6 1 7h3c1.9-1.9 1.9-1.9 3.9-4.6l2.1-2.7c.7-.9 1.3-1.8 2-2.7 1.6-2 3.3-4 5-6h2c.7-1.3 1.4-2.6 2-4 1.6-2 3.2-4 4.9-6 .4-.5.9-1 1.3-1.5 2.5-3 5-5.9 7.8-8.5h2c.7-1.3 1.4-2.6 2-4 .9-1.1 1.9-2.2 2.8-3.2 2.9-3.2 5-6.6 7.2-10.3.3-.5.7-1 1-1.5h2c.7-1.3 1.4-2.6 2-4 .9-1.1 1.8-2.2 2.8-3.2.2-.4.2-.4 1.6-1.9.3-.3.3-.3 1.7-1.9 1.2-1.4 2.4-2.7 3.5-4.1.6-.6 1.2-1.3 1.8-2 3.6-4.2 7.1-8.5 10.6-12.9 1.5-1.8 2.9-3.5 4.4-5.3.4-.5.7-.9 1.1-1.4 3.5-4.2 7.1-8.4 10.6-12.6 3.1-3.6 5.9-7.3 8.5-11.2 1.4-1.5 1.4-1.5 3.8-2.4 3.3-1.3 4.5-2.9 6.6-5.7.7-.9 1.3-1.8 2-2.7s1.4-1.8 2-2.7c.6-.7 1.1-1.4 1.7-2.2 1-1.3 2-2.6 3-4 1.6-2.1 3.4-4.2 5.2-6.2 1.1-1.6 1.1-1.6 2.4-3.9 2.1-3.2 4.4-6 6.9-8.8 1-1.2 2-2.4 3-3.5.3-.3.3-.3 1.5-1.8 4.3-5.1 8.4-10.4 12.5-15.7 6.3-8.2 12.7-16.2 19.4-24 5.3-6.2 10.4-12.7 15.2-19.5.4-.4.8-.9 1.2-1.4h2c.7-1.3 1.4-2.6 2-4 1.5-1.7 3-3.5 4.6-5.1.4-.5.8-1 1.2-1.4 4.1-4.5 4.1-4.5 6.8-4.7 1.2 0 2.3 0 3.5-.1h1.9c2-.1 4-.2 6-.2 1.4-.1 2.8-.1 4.2-.2 9.6-.2 19.2-.4 28.8-.3.3 1.7.3 1.7 0 4-1.6 1.9-3.1 3.5-4.9 5.2-5 4.7-5 4.7-6.1 6.8h-2c-.7 1.4-1.3 2.7-2 4-1 1.3-2.1 2.5-3.3 3.7-.6.7-1.3 1.4-2 2.1-.7.8-1.4 1.5-2.1 2.2-1.5 1.6-2.9 3.1-4.4 4.6-.7.8-1.4 1.5-2.2 2.3-6.8 7.2-13.4 14.5-19.6 22.3q-4.05 4.8-8.4 9.3c-4.5 4.8-8.7 9.8-12.8 14.9-2.2 2.6-4.4 5.1-6.7 7.6-3.1 3.4-6 6.9-8.9 10.5-3.9 4.8-8 9.4-12.2 14-8.5 9.2-16.5 18.8-24.6 28.4-.6.6-1.1 1.2-1.6 1.9-1.1 1.2-2.1 2.3-3.1 3.5-2.9 3.4-5.8 6.7-9.1 9.7h-2c-.6 1.4-1.3 2.7-2 4-1.2 1.5-2.5 3-3.8 4.4-2.4 2.6-4.7 5.2-6.5 8.2-.6.8-1.1 1.6-1.7 2.4h-2l-.3 1.8c-.8 2.6-1.8 3.8-3.7 5.8-2.9 3.2-5.7 6.5-8.4 9.8-.4.5-.8.9-1.2 1.4-3.1 3.9-6.2 7.8-9.3 11.6-1.5 1.9-3 3.7-4.5 5.5-.4.5-.9 1-1.3 1.6-.8 1-1.7 2-2.6 3-2.8 3.4-5.4 6.9-7.9 10.5-2.7 3.9-4.8 6-9.1 8-4.4 2.7-7.2 7.5-8.7 12.3-1.2 3.5-3 4.5-6 6.7-1.6 2.1-3.1 4.3-4.6 6.4-.5.6-.9 1.1-1.4 1.6h-2c-.3.6-.5 1.2-.8 1.7-1.4 2.9-3.4 4.9-5.6 7.2-4 4.3-7.7 8.7-11.3 13.3-3.4 4.4-6.8 8.7-10.5 12.9-2.1 2.4-4.1 4.8-6.1 7.3-3 3.7-6 7.2-9.2 10.6-3.4 3.8-6.7 7.7-10 11.7a104 104 0 0 1-6 7.2c-11.3 13.1-21.5 27-31.2 41.3-.5.9-1.1 1.7-1.7 2.6-5.4 8.2-10.4 16.1-8.6 26.2 1.7 2.7 1.7 2.7 4 4 5.5.7 8.9-1 13.6-3.5.7-.3 1.4-.7 2.1-1.1 2.1-1.1 4.2-2.2 6.3-3.4.6-.3 1.1-.6 1.7-.9 15.9-8.8 30.2-20.9 43.9-32.8 2.5-2.2 5-4.3 7.6-6.4.4-.4.9-.8 1.4-1.2q6.45-5.4 12.9-10.5c3.1-2.6 6-5.2 9-7.9 1.5-1.3 1.5-1.3 3.5-1.3v-2c1.9-1.6 1.9-1.6 4.4-3.5 2.4-1.7 4.5-3.4 6.6-5.5.8-.2 1.5-.5 2.3-.7 3.8-1.7 6.1-4.3 8.9-7.3 1.1-1.1 2.1-2.2 3.2-3.3.2-.3.2-.3 1.4-1.5 2-1.9 3.4-2.2 6.2-2.5 3 .3 3 .3 4.7 2.4.4 3.9-.8 5.3-3.2 8.3-2 2.2-4.1 3.9-6.5 5.6-.6.7-1.2 1.3-1.8 1.9-2.3 2.2-4.6 4.1-7.2 6-5.3 4.2-5.3 4.2-6.9 7.1-2.4 4-6.2 6.6-9.8 9.4-3.7 2.9-7.2 6-10.8 9.1-.3.3-.3.3-1.9 1.7-3.8 3.3-7.6 6.7-11.3 10.1-3.9 3.6-7.9 7-12 10.3-2.5 2-4.9 4-7.3 6.1-18.3 15.9-43.1 34.5-68.5 33.7-4.5-.7-8.4-2.4-12.5-4.4-.7-.2-1.3-.5-2-.8-4.9-2.9-8.2-8.4-10.4-13.3-2.1-10.1-.6-20.2 2.4-29.9h-3c-.3 1-.6 2-1 3-1.3 1.3-1.3 1.3-3.1 2.6-.3.2-.3.2-2 1.5l-2.1 1.5c-1.5 1.1-3 2.2-4.4 3.2-.8.6-1.5 1.1-2.3 1.7-2.4 1.8-4.7 3.6-7.1 5.4-16.4 13-32.2 24-54 22.1-4-.9-7.7-2.4-11-5v-2c-1-.3-2-.6-3-1-1.5-1.7-1.5-1.7-3-3.9-.5-.7-1-1.4-1.5-2.2-3.8-7.3-5-14.7-4.9-22.9v-2.8c.3-11.8 2.8-23.6 8.4-34.2-3.9 2.2-6.9 4.8-10 8-1.6 1.8-3.2 3.4-5 5h-2v2c-1.5 1.4-3.1 2.7-4.7 4l-3 2.4c-.6.5-1.1.9-1.7 1.3-2 1.7-4.1 3.4-6.1 5.2-12.5 10.7-25.2 21.1-39.6 29.1-1.9 1.1-3.7 2.1-5.6 3.2-7.1 4.1-13.9 6.7-21.9 8.9-5.1 1.5-7.8 3.6-10.4 8.4-.3.5-.6 1-1 1.5h-2v2c-1.3 1.1-1.3 1.1-3.2 2.2-.7.4-1.3.8-2.1 1.3-.3.2-.3.2-2.2 1.3-.8.4-1.6.9-2.4 1.3-27.8 15.9-62.2 21.8-93.5 13.6-12.1-3.4-22.6-8.5-33-15.6-1.4-1-3-1.9-4.5-2.9-.8-.5-1.6-1.1-2.4-1.6s-1.5-.9-2.2-1.4l-1.5-1.2v-2c-.5-.2-1.1-.5-1.6-.8-3.1-1.5-5.3-3.7-7.7-6.2l-1.5-1.5c-4.3-4.4-7.9-9.2-11.2-14.5-.1-.2-.1-.2-.9-1.5-12.1-19.6-18.6-41.8-22.1-64.5-.1-1-.3-2-.5-3-1.2-8.3-1.9-16.5-2.2-24.8-3.4-71.9-3.4-71.9-22.3-90.2-5-4.4-9.8-4.1-16.1-4h-4.9c-2.5.1-5 .1-7.6.1-2.4.1-4.9.1-7.3.1h-4.5c-.6.1-1.2.1-1.9.1-2-.3-3-1.1-4.7-2.3-2-.4-2-.4-4 0-1.3 1.9-2.3 3.6-3.2 5.6-.2.3-.2.3-.9 1.8-1 1.8-1.9 3.7-2.8 5.6l-1.8 3.6c-1 1.8-1.9 3.6-2.8 5.4-3.2 6.5-6.6 12.8-10.4 18.9-4 6.6-7.6 13.3-11.1 20.1-4.6 8.7-9.4 17.1-14.8 25.2-1.7 2.6-3.3 5.2-4.9 7.8-7.3 11.9-15.4 23.2-24.3 34l-2.1 2.7c-13.3 16.5-28.1 32.3-44.9 45.3-1.7 1.5-3.4 2.9-5.1 4.4-16.9 13.9-34.9 24-54.9 32.6-.6.3-1.3.6-2 .9-24.2 10.6-51.7 17.3-78.1 17.3h-9.7c-3.3 0-6.6 0-10 .1-10.9 0-21.4-.1-32.2-2.3-.9-.1-1.7-.3-2.7-.5-2.4-.5-4.9-1.1-7.3-1.6-.9-.3-1.8-.5-2.7-.7-20.5-5.1-41.7-12.2-59.3-24.2-.5-.3-1-.6-1.5-1-24.6-16-45.1-42.3-52.2-71.1-.3-1.7-.6-3.4-.9-5-.3-1.3-.5-2.6-.8-3.8-6.9-33.6-1.6-67.4 10.4-99.1.2-.5.5-1.1.7-1.7 3-7.9 6.9-15.1 11.3-22.3.4-.5.7-1.1 1.1-1.7 4-6.5 8.3-12.9 12.9-19.1.3-.6.7-1.1 1.1-1.6.9-1.2 1.9-2.4 2.9-3.6h2c.7-1.3 1.4-2.6 2-4 3.9-5.2 8.3-9.5 13.4-13.6 1.8-1.5 3.5-3.3 5.3-5 18.5-18.4 42.5-31.1 66.3-41.4 1-.4 2-.8 2.9-1.2 24.4-10 50-13.9 76.1-13.9 2.4 0 4.8-.1 7.3-.1 9.1 0 17.7.6 26.7 2.2 2 .3 4.1.5 6.1.8 14.1 2.2 27.7 6.9 40.3 13.4 1.5.8 3 1.5 4.5 2.3 17.4 8.9 30.4 22 39.3 39.3.3.6.7 1.2 1 1.8 5.7 11.5 7.5 22.7 7.3 35.4 0 .6 0 1.3-.1 2-.1 9.6-.6 18.7-3.4 28-.2 1-.5 2-.8 3-7.7 26-26.3 52.1-49.4 66.6-3.8 2-7.4 2.8-11.8 2.4-.6-.3-1.3-.6-2-1-.4-2.8-.6-5 1-7.5q1.95-2.25 4.2-4.5c1-1 2-2 2.9-3 .5-.4 1-.9 1.5-1.4 1.5-1.6 2.8-3.2 4.2-4.9.7-.9 1.5-1.8 2.2-2.7h2c.7-1.6 1.4-3.3 2-5 1.4-1.8 1.4-1.8 3-3.6 3.7-4.7 6.8-9.8 9.8-15 .5-.8.9-1.6 1.4-2.4 4.6-8.1 7.4-15.4 9.5-24.5.1-.4.1-.4.6-2.7 5.1-21.7 3-41.7-8.2-61.1-1.1-1.7-2.4-3.1-3.8-4.5-.8-.7-1.5-1.4-2.3-2.2v-2c-1-.3-2-.6-3-1v-2c-1.3-.7-2.6-1.3-4-2-1.2-.9-2.4-1.8-3.5-2.7-25.6-19.3-62.6-22.5-93.5-18.6-17.7 2.7-35.7 7.8-51.4 16.5-1.6.9-3.3 1.6-5 2.4-9.1 4.2-16.7 9.6-24.6 15.8-1.9 1.6-3.9 3.1-5.8 4.6-15.3 11.8-30 25.8-41.2 41.6-1 1.5-2.1 2.9-3.1 4.3-8.1 10.7-13.7 21.8-19 34-.7 1.8-1.5 3.6-2.3 5.4-3.7 8.3-6.3 16.9-8.6 25.7-.1.7-.3 1.3-.5 2-4.8 19-5 43.2.5 62 .2.7.4 1.5.6 2.2 7.5 26 21.7 46.2 44.4 60.8.5.3.5.3 2.6 1.8 6.5 4.1 13.3 6.8 20.4 9.2 1.1.4 2.1.8 3.2 1.1 14.6 4.9 29.2 6.5 44.6 6.4h2.3c12.7-.1 24.6-1.2 36.9-4.5 1.1-.2 2.1-.5 3.2-.7 2.7-.7 5.2-1.4 7.8-2.3.5-.1.5-.1 3.1-.9 7.2-2.4 14-5.4 20.8-8.6.4-.1.4-.1 2.4-1.1 5.1-2.4 9.9-5.3 14.7-8.4 1-.5 1.9-1.1 2.8-1.7 19.8-12.4 40.8-27.7 55.2-46.3 1.2-1.2 2.4-2.4 3.6-3.5 7.3-7.4 14.2-15.1 20.4-23.5 1.7-2.2 3.4-4.3 5.1-6.5 1.6-2.2 3.3-4.3 4.9-6.5.5-.6 1-1.2 1.4-1.8 3.9-5 7.5-10.2 11-15.4.6-.9 1.1-1.7 1.7-2.6 1.7-2.4 3.3-4.8 4.9-7.2.2-.2.2-.2 1.2-1.7 5.5-8.1 10.8-16.4 16-24.8 1.6-2.6 3.3-5.2 4.9-7.7 3.4-5.3 6.5-10.6 9.5-16.1 1.9-3.4 3.9-6.8 5.9-10.1 1.6-2.6 3-5.2 4.3-7.8 2.8-5.1 5.8-9.9 9-14.7 2.5-3.8 4.8-7.7 7-11.8 1.3-2.3 2.6-4.6 3.9-6.8.3-.5.3-.5 1.7-2.7.5-.9 1.1-1.8 1.6-2.8.6-.9 1.1-1.8 1.7-2.7 12.5-20.9 12.5-20.9 19.5-30.6q2.1-3 3.9-6c.7-.9 1.3-1.8 1.9-2.7h2c.7-1.3 1.4-2.6 2-4 7.7-11.3 17.5-21.2 27-31l2.4-2.4c16.5-16.9 16.5-16.9 25.3-23.8 3.1-2.3 5.9-4.9 8.8-7.5 1.5-1.3 1.5-1.3 3.5-1.3v-2c2-1.6 4-3.2 6-4.7.6-.5 1.2-.9 1.9-1.4 1.1-.9 2.3-1.8 3.5-2.7 1.3-.9 2.5-1.9 3.7-2.8 6.1-4.7 12.5-8.8 18.9-13 1.3-.9 2.7-1.8 4-2.7 17.7-11.7 35.9-23.3 55.4-31.7 1.6-1 1.6-1 2.6-4-.8-.1-1.7-.2-2.6-.3-3.3-.6-5.9-1.6-8.9-2.9-5.8-2.3-11.6-4-17.6-5.4-.8-.3-1.6-.5-2.4-.7-14.8-3.5-30-4-45.1-3.9-2.6.1-5.2.1-7.7.1h-7.3c-9.9.1-9.9.1-14.4 1.1-.9 1.7-.9 1.7-1 4 0 1.1-.1 2.2-.2 3.3 0 1.2-.1 2.5-.1 3.8-2 35.5-14.5 71.5-39.4 97.5-2 2.2-4 4.4-6 6.7-6.7 7.7-6.7 7.7-10.3 10.7h-2v2c-1.5 1.5-3.1 2.8-4.8 4.2l-1.5 1.2c-1.5 1.2-3.1 2.4-4.7 3.6-.8.7-1.7 1.4-2.6 2.1-21.1 16-48.5 26.1-75.2 22.5-14-2.3-27-7.3-36.2-18.6-7.1-10.1-8.9-22.4-7.4-34.6 2.3-11.7 6.5-21.6 13.4-31.4.3-.4.3-.4 1.7-2.5 15.1-22.2 34.5-36.8 57.3-50.5.4-.2.4-.2 2.2-1.3 25.7-15.3 62.1-32.7 92.8-32.7-2.6-10.9-9.7-20.6-19-27-22.5-13.8-49.8-14.8-75-9-.4.1-.4.1-2.6.6-14.8 3.4-28.6 8.2-42.4 14.4-.6.3-1.2.6-1.9.9-8.5 3.9-16.3 8.9-24.1 14.1-.5.4-1.1.8-1.7 1.2-1.7 1.1-3.3 2.3-5 3.4-.5.3-1 .7-1.5 1-9 6.2-17 13.3-24.7 21.1-.4.4-.9.8-1.3 1.3-8.7 8.8-16.2 18-23.4 28-.6.9-1.2 1.8-1.9 2.7l-3.6 5.1c-.6.8-1.1 1.6-1.7 2.4l-1.5 2.1c-2.1 2.1-3.8 3-6.7 3.7l-2-2c.4-4.6 1.9-8.4 4-12.5.3-.6.6-1.2 1-1.9 3.1-6 6.9-11.5 10.9-16.9 1.5-2.2 3-4.5 4.6-6.7 5.8-8.6 12.1-16.7 19.6-24 2-2 3.8-4.1 5.6-6.2 2.6-3 5.2-5.4 8.3-7.8.4-.3.4-.3 2.2-2.2 44-44.5 133.4-66.8 184.9-23m-4.7 49c-.5.1-.5.1-2.8.6-1 .2-2 .5-3 .7-.5.1-.5.1-3.2.7-15.7 3.6-30.5 8.5-45.4 14.7-.7.3-1.4.6-2 .9-11.9 4.9-23 10.9-34 17.6-.5.4-1.1.7-1.6 1.1-7.9 4.8-15.3 10-22.4 15.9-.6.6-1.2 1.1-1.9 1.6-4.5 3.7-8.3 7.9-12.1 12.4-.3.4-.3.4-2 2.4-12.1 14.8-19.7 31-18.8 50.4.7 7.7 3.2 14.7 8.8 20.2 9.7 7.7 18.6 9.6 30.8 9.5h1.7c8.9-.1 16.4-.7 24.5-4.5l3-1.2c14.2-6.7 28.6-16.9 38.6-29 1.4-1.8 1.4-1.8 3.9-4.1 1.5-1.7 1.5-1.7 1.5-3.7h2c1.4-1.5 1.4-1.5 2.9-3.6.6-.7 1.2-1.5 1.8-2.3s1.2-1.7 1.8-2.6c.7-.8 1.3-1.7 1.9-2.6 5.6-7.7 10.8-15.6 15.6-23.9.6-.9 1.2-1.9 1.8-2.8 4.4-7.7 7.4-15.8 10.2-24.2.3-.8.6-1.6.9-2.5 4.6-14 6-26.7 5.1-41.5-3.2-1-4.3-.9-7.6-.2m136.5 22.9c-.7.3-1.3.7-2 1.1-1.4.7-2.7 1.5-4 2.2-2.4 1.4-4.9 2.6-7.3 3.9-13.4 7.4-25.6 16-37.6 25.6-1.8 1.4-3.5 2.8-5.3 4.1-1 .8-1.9 1.5-2.8 2.2-.8.6-1.5 1.2-2.3 1.8-.5.5-1 .9-1.6 1.4v2c-.5.3-1.1.6-1.6.8-3.3 1.7-5.5 4.1-8.1 6.6-.2.3-.2.3-1.6 1.7-1.2 1.1-2.3 2.3-3.5 3.4-1.7 1.7-3.4 3.5-5.2 5.2-6.7 6.7-12.8 13.6-18.6 21.2-2.3 3.1-4.7 5.9-7.2 8.8-6.8 8-12.4 16.7-18.2 25.3-.6 1-1.3 2.1-2 3.1-26.3 39.6-26.3 39.6-35.5 59-1.5 2.9-1.5 2.9-2.6 4.4-.9 1.5-.9 1.5-.9 4.5.7.1 1.3.1 1.9.1 2.9.1 5.8.2 8.6.3 1 0 2 .1 3 .1 5.2.2 9.9.7 14.9 2.1 11.3 3.1 26.1-2.1 36.5-6.6 2-.9 4.1-1.6 6.2-2.2 39.6-13 79-42 103.7-75.2 1.1-1.4 2.1-2.7 3.2-4.1 4.9-6.7 8.5-14 12.1-21.5.6-1.3 1.3-2.7 2-4 2.2-4.3 3.9-8.5 5.1-13.1.2-.6.3-1.2.5-1.8 4.8-17.6 3.5-35.4-5.4-51.4-9.2-14-9.2-14-14.6-15.2-3.7.7-6.5 2.3-9.8 4.2m175.1 225.3c-.9.6-1.9 1.1-2.9 1.7-5.2 2.9-5.2 2.9-7.1 4.3v2c-.7.3-1.4.6-2.1.8-3.7 1.6-6.2 3.8-9.2 6.4-.5.5-1 .9-1.6 1.4-1.1 1-2.2 1.9-3.3 2.9-1.2 1.1-2.5 2.1-3.7 3.2-10.8 9.3-21.1 19.5-29.8 30.8-1.6 1.9-3.1 3.8-4.7 5.7-.6.7-1.2 1.4-1.8 2.2l-3.6 4.2c-.5.7-1.1 1.4-1.6 2l-1.5 1.8c-1.1 1.6-1.1 1.6-1.1 4.6 14.3 4.8 38.6-6.7 51.5-13 5.3-2.8 10.4-5.8 15.5-9 .9-.5 1.8-1 2.7-1.6 16.4-10.2 38.2-24.3 44.3-43.4.7-4 1.2-7.9-.9-11.6-2.9-3.2-6.5-5.2-10.8-5.5-10 .6-19.7 5.4-28.3 10.1m157.3 16.5c-1.6 1.1-3.2 2.1-4.8 3.2-.8.5-1.7 1-2.5 1.6-.8.5-1.5.9-2.3 1.4-.6.5-1.1.9-1.7 1.3v2c-1.3.7-2.6 1.4-4 2-2.3 1.7-4.5 3.5-6.8 5.2-.6.5-1.2 1-1.9 1.5-3.9 3.2-7.6 6.4-11 10.1-1.3 1.2-1.3 1.2-3.3 2.2v2c-1.3.7-2.6 1.4-4 2-1.4 1.5-1.4 1.5-2.7 3.2-2.3 2.8-4.6 5.1-7.3 7.3-3.7 3.2-7.2 6.5-10 10.5v2h-2c-1.4 1.6-2.8 3.2-4.1 4.9l-1.2 1.5c-.8 1.1-1.7 2.1-2.5 3.2-1 1.3-2.1 2.5-3.2 3.8-16.6 20.2-40.6 50.8-39.3 78.6.5 2.9 1.5 4.8 3.3 7 .4.6.9 1.1 1.3 1.6 3.1 2.6 6.6 2 10.5 1.9 9.4-1.3 17-8.3 24.3-14.1q3.45-2.85 7.2-5.4c.9-.6 1.8-1.3 2.7-2v-2c.6-.2 1.2-.5 1.7-.8 2.9-1.5 4.9-3.5 7.1-5.8 2.8-2.9 5.6-5.7 8.6-8.3 6.2-5.3 11.9-11.1 17.6-16.9 2-2 4.1-4 6.1-6l3.9-3.9 1.8-1.8 1.7-1.7 1.5-1.5c1-1.3 1-1.3 1-3.3h2c1.5-1.4 1.5-1.4 3.1-3.5 3.8-4.4 7.9-8.5 12.1-12.6 9.1-8.9 9.1-8.9 12.8-13.9v-2c1-.3 2-.6 3-1 1.5-1.5 1.5-1.5 3.1-3.4 2.8-3.3 5.7-6.4 8.8-9.4 3.9-3.8 7.4-7.7 10.7-12 2.4-2.9 4.8-5.6 7.4-8.3 7.1-7.6 12.1-15.5 12.3-26.2 0-1.2 0-2.3.1-3.4-.5-4.5-2-7.1-5.3-10-16.8-10.2-42.7 10.2-55.8 19.2m689.447-335.545c2 .3 4 .6 5.9 1 17.5 2.8 32.8 8.3 45.4 21.1l1.9 1.9c8 8.4 11.8 19.2 15.1 30.1.5-.1.5-.1 3.1-.2 25.2-1.6 50.9-2.4 75.9 2.2.8.1 1.6.3 2.5.4 13.7 2.4 27.3 6.2 39.7 12.8 3.5 1.8 5.8 2.4 9.8 1.8 2.9-1 5.6-2.2 8.4-3.5 9.1-3.8 18.3-6.7 27.7-9.5.7-.2 1.3-.3 2-.6 7.6-2.2 14.9-4.1 22.9-4.4.7 1.8.7 1.8 1 4-2.2 3.5-6.2 4.3-10 5.5-.7.2-1.4.4-2.1.7-2.2.7-4.4 1.4-6.7 2.1-26 8.3-26 8.3-36.2 13.7.7.6 1.4 1.1 2.2 1.7 3.5 2.9 6.9 6 10.3 9.1 2.5 2.2 2.5 2.2 5 4.1 6.7 5.6 11.5 13.4 15 21.3.2.6.5 1.1.7 1.7 5.5 13.6 3.5 30.3-.2 44.1-.3 1-.5 2.1-.8 3.2-3.8 15-13.6 26.9-23.9 38.2-1.3 1.6-2.6 3.2-4 4.8-1.8 2.2-3.6 4.1-5.8 6-.7.6-1.4 1.1-2.1 1.7l-2.4 2.1c-1 .9-2.1 1.7-3.1 2.6-10.6 9.2-22 16.9-34 24.2-1.2.7-2.3 1.4-3.5 2.2-12.5 7.7-25.9 13.9-39.6 18.9-2.5 1-4.9 2-7.3 3.1-4.3 2-8.8 3.6-13.3 5.1-3.4 1.2-6.7 2.5-10 3.9-10 4.1-20.8 6.4-31.2 9 2.7 2.9 5.3 4.9 8.8 6.9 5.2 3.2 9.8 6.9 14.4 10.9.6.6 1.3 1.1 2 1.7.6.6 1.2 1.1 1.9 1.7.5.5 1.1 1 1.7 1.5 1.2 1.3 1.2 1.3 1.2 3.3 1 .3 2 .6 3 1 2.2 2.5 4.1 5.2 6 8l1.5 2.1c6 8.6 9.9 18.2 13.7 27.9.2.7.4 1.3.7 1.9 3.7 9.9 5.6 20.3 7.1 30.7.2 1.1.4 2.3.6 3.4 1.8 12.5 3.3 24.9 3.8 37.5 1.1 25.7 3.4 59.6 23.6 78.5 17.4 13.9 36.2 17.5 58 15.7 12.6-1.9 24.6-7.1 35.5-13.4 2.5-1.3 2.5-1.3 4.5-1.3v-3c-.7.1-1.4.3-2.2.5-11.6 2.1-21.9-.4-31.8-6.5-2.6-2.1-4.9-4.4-7-7-.4-.5-.8-.9-1.2-1.4-7.6-10.2-9.9-24.8-8.5-37.1.4-2.6.8-5.1 1.3-7.6.2-1 .4-1.9.5-2.8 4.8-22.8 16.8-46.4 31.9-64.1h2c.7-1.3 1.3-2.7 2-4 1.1-1.5 2.2-3 3.4-4.5.6-.7 1.2-1.5 1.8-2.3s1.2-1.5 1.8-2.2c.2-.3.2-.3 1.2-1.6 2.2-3 4.8-5.1 7.8-7.4 1.2-1.2 2.4-2.4 3.6-3.7 2.3-2.2 4.6-4.3 6.9-6.4.5-.5 1-.9 1.5-1.3 7.2-6.6 7.2-6.6 10-6.6v-2c1.8-1.3 3.5-2.5 5.4-3.7 3.9-2.5 7.7-5.1 11.3-8 3.4-2.8 6.9-4.9 10.8-7 2.3-1.2 4.6-2.6 6.8-3.9 5.4-3.3 10.9-5.9 16.9-8.3 2.5-1 5-2.1 7.5-3.2 14.4-6.4 35.3-11.9 50.7-6.2 7.6 3.5 13 7.5 16.6 15.3 2.6 9.3 2.1 21.9-1 31-.4 1.1-.8 2.1-1.1 3.3-3.8 10.3-9.2 19.4-14.9 28.7-.9 1.4-1.7 2.7-2.5 4.1-14.7 23.8-14.7 23.8-23.3 34.2-1.2 1.7-1.2 1.7-1.2 3.7 8.7 3.7 17.4 2.4 26-1 3.2-1.4 6.4-2.9 9.5-4.5 3.1-1.5 5.9-2.7 9.2-3.5 3.4-1.1 5-2.1 7.6-4.5l1.2-1.2c1.5-1.4 3-2.9 4.5-4.3l2-2c8.1-7.8 16-15.6 22.9-24.4 2.4-3 5-5.8 7.6-8.6 4.5-4.7 8.3-9.7 11.9-15 .5-.7 1.1-1.3 1.6-2h2c.2-.5.5-1.1.8-1.6 1.7-3.5 4.3-6.1 6.9-9 7.6-8.8 13.1-17.3 17-28.3 4.1-11.4 9.5-21 17.1-30.5 2.2-2.6 2.2-2.6 3.2-4.3.3-.4.6-.9 1-1.3h2c.3-1 .6-2 1-3 1.7-1.5 3.4-2.8 5.3-4.1l3.3-2.4c.5-.4 1.1-.8 1.7-1.3 1.7-1.2 3.3-2.5 4.9-3.8.6-.4 1.1-.8 1.6-1.3l3-2.4c2.5-1.9 4.2-2.7 7.3-3.2 3.7.6 4.6 1.7 6.8 4.6.6.8 1.1 1.5 1.8 2.3 1.6 3.2 1.8 5 1.3 8.6-1.7 2.4-1.7 2.4-4.1 4.8-.8.9-1.7 1.7-2.5 2.6-.4.4-.8.9-1.3 1.3-1.6 1.8-3 3.7-4.5 5.7-3.7 4.8-7.8 9.3-12 13.8-2 2.1-4 4.4-5.9 6.7-3.4 3.9-7.1 7.4-10.7 11-16.1 16-16.1 16-16.4 27.4 0 9.7 1.8 18.4 4.4 27.7.3 1 .5 1.9.8 3 1.2 4.3 2.4 8.7 3.7 13 3.1 10.9 5.9 21.6 6.5 33 0 .4 0 .4.1 2.3.5 19.7-5 38.4-16.1 54.7h-2c-.7 1.3-1.4 2.6-2 4-11.5 14.7-28.5 28.8-47 33-.6.1-1.1.2-1.7.4-19.6 4.6-40.8 4.5-58.7-5.8-7.3-5.1-12.3-12-14.6-20.6-.5-3.4-.5-6.7-.5-10.1v-2.8c.3-12.7 4.7-25.1 12.8-35.1 1.7-2 1.7-2 1.7-4h-1.7c-2.4.1-4.9.1-7.4.1-.8 0-1.7 0-2.5.1-6.6 0-11.5-.9-17.5-3.6-2.9-.6-2.9-.6-5.4.7-2.8 2.7-5.1 6-7.5 9.1-12.2 15.5-27.3 31.2-43.4 42.6-2.3 1.8-4.2 3.6-6.3 5.7-2.5 2.4-5.5 4.4-8.4 6.3-10.3 7.2-10.3 7.2-11.9 11.9-1.2 3.7-3.1 5.6-6 8.1-.6.6-1.3 1.2-1.9 1.8-11 9.7-25.9 15.8-40.1 19.2-.6.1-1.2.3-1.9.4-27.7 6.5-57.5 2.7-81.8-12.3-28-17.9-41.9-45.4-49.3-77.1-2.6-12.5-3.6-25-4.4-37.7-.2-4.8-.6-9.7-.9-14.5 0-.9-.1-1.9-.2-2.8-4.6-68.7-4.6-68.7-24.1-86.5-10.2-8.7-19.6-7.7-32.4-7.2-9.2.1-9.2.1-12-2.3l-2-2c-2-.4-2-.4-4 0-1.4 1.9-1.4 1.9-2.6 4.5-.4 1-.9 2-1.3 3-.3.5-.3.5-1.4 3.1-.5 1.1-1 2.1-1.5 3.2-1 2.1-1.9 4.2-2.9 6.3-1.6 3.5-3.3 6.9-5 10.3-.6 1.1-1.1 2.2-1.7 3.3-.2.6-.5 1.1-.8 1.6-.8 1.7-1.7 3.4-2.5 5.1-19.4 39.1-19.4 39.1-30.2 56.8-1.1 1.8-2.2 3.5-3.2 5.3-4.3 7.1-8.9 13.8-13.9 20.5-.7 1-1.5 2-2.2 2.9-5.1 6.9-10.3 13.6-15.8 20.1l-2.1 2.4c-.6.8-1.2 1.5-1.9 2.3-.5.6-1 1.3-1.6 1.9-1.4 1.4-1.4 1.4-3.4 1.4-.7 1.3-1.4 2.6-2 4-1.3 1.4-2.6 2.9-4 4.2-.7.7-1.4 1.4-2.1 2.2-1.9 1.6-1.9 1.6-3.9 1.6-.3 1-.7 2-1 3-1.5 1.5-1.5 1.5-3.4 3.1-.7.6-1.4 1.2-2.2 1.9-.8.6-1.6 1.3-2.4 2-.9.7-1.7 1.4-2.6 2.2-49.3 41.1-114.4 62.6-178.6 57.2-38.6-4.2-76-19.3-103.8-46.4-.8-.8-1.6-1.5-2.4-2.3-23.1-23.9-33.3-58.6-33.1-91.2v-2.3c.1-28.7 7.7-55.1 21.5-80.2.3-.6.6-1.1.9-1.7 4.1-7.5 8.9-14.5 14.1-21.3.6-.8 1.2-1.7 1.9-2.5 14.4-18.4 31.5-33.8 51.6-45.9 2-1.3 3.9-2.6 5.8-4.1 3.7-2.7 7.7-4.6 11.9-6.5.8-.4 1.5-.7 2.3-1.1 1.5-.6 3-1.3 4.5-2l5.1-2.4c23.9-11.1 50.5-18.7 77.1-18.7h17.6c9.6-.1 18.8 0 28.2 2.2.9.2 1.8.3 2.7.5 10.5 2.3 20.6 4.8 30.3 9.5 1.1.5 2.3 1 3.4 1.6 7.9 3.7 14.8 8 21.6 13.4.4.3.4.3 2.5 1.9 14.3 12.1 23.6 30.8 26.5 49.1q.45 6.75.3 13.5v3.5c-.2 24.9-9.9 47.6-25.3 67-.3.4-.3.4-2 2.6-8.1 10.5-21.3 23.3-34.9 25.7-1.9.2-1.9.2-5.1-.3-1.5-2.2-1.5-2.2-2-5 1.3-2.4 3.2-4.1 5.1-6 1-1 2-2.1 3-3.1l1.5-1.5c1.3-1.3 2.5-2.8 3.6-4.3l1.8-2.1h2c.7-1.3 1.3-2.7 2-4 1-1.5 2.1-3 3.2-4.5 18-24.3 29.9-50.3 25.6-81.1-2.5-15-9.9-29.3-22.2-38.5-7-5-14.3-8.9-22.2-12.5l-2.7-1.2c-33.9-15-78-8.9-111.7 3.8-15.2 6.3-28.7 14.5-42 24-.5.3-1.1.7-1.6 1.1-1.5 1-2.9 2.1-4.4 3.1-.9.6-1.7 1.2-2.6 1.9q-3.15 2.55-6 5.4l-5.1 5.1c-7.6 7.4-14.9 14.8-21.3 23.4-.5.6-1 1.3-1.5 2-7.2 9.6-14 19.3-19.5 30-.4.7-.7 1.3-1.1 2-4.9 9.6-8.9 19.3-12.4 29.5-.3 1-.6 1.9-1 2.9-8.5 26.4-8.3 57.3 4.1 82.5 1.4 2.7 2.9 5.4 4.4 8.1.4.7.7 1.3 1.1 2 10.7 19.2 25.7 31.8 45.3 41.2 1.3.7 2.7 1.4 4 2.1 27.6 15.5 66.6 16.5 96.6 8.7l2.4-.6c13.7-3.5 26.1-9 38.6-15.4.3-.2.3-.2 1.7-.9 6-3.1 11.8-6.6 17.5-10.1.7-.4 1.4-.8 2-1.2 4.1-2.6 7.8-5.4 11.3-8.7 1.5-1.1 1.5-1.1 3.5-1.1v-2c1.5-1.4 1.5-1.4 3.7-3 17.7-13.4 35.3-30.4 48.2-48.5 1.2-1.6 2.4-3.1 3.7-4.7 15-17.9 27.3-38.4 39.7-58.2 1.7-2.7 3.5-5.4 5.2-8.2 4.9-7.8 9.8-15.6 13.8-24 6-12.6 13.5-24.5 20.6-36.4 2.3-3.9 4.6-7.9 6.8-11.8 13.4-23.3 27.4-46.2 44.9-66.6 1.7-2 3.3-4 4.9-6 11.9-14.8 25.2-28.8 40.1-40.5 1.5-1.2 2.9-2.4 4.4-3.7 8.5-7.5 17.6-14 27-20.4.4-.3.4-.3 2.5-1.8 10-6.8 20.1-13.3 30.7-19.1 3.9-2.2 7.8-4.5 11.7-6.8.6-.4 1.2-.8 1.9-1.2 2.6-1.5 5.2-3.1 7.7-4.7 6.2-4 12.8-6.9 19.6-9.7.8-.3 1.5-.6 2.3-1l2.1-.9c.5-.2 1-.5 1.5-.8v-2c-14-5.2-27.2-8.9-42-10.4-.8 0-1.5-.1-2.2-.2-.7 0-1.4-.1-2-.2-1.8-.2-1.8-.2-4.8-1.2-1.6-.1-3.3-.1-4.9-.1-.5 0-.5 0-3-.1-1.1 0-2.2 0-3.3.1-1.1-.1-2.2-.1-3.3-.1-2.3 0-4.7 0-7 .1-3 0-6 0-9-.1-2.8 0-5.6 0-8.5.1-1.1-.1-2.1-.1-3.2-.1-.5 0-.5 0-3 .1h-2.7c-2.1.1-2.1.1-4.1 1.1-.3 1.6-.3 1.6-.3 3.6 0 .8-.1 1.6-.1 2.4s0 1.6-.1 2.5c-.6 15.8-3.8 29.7-9.5 44.5-.4 1-.8 2.1-1.2 3.1-8.6 21.9-21.7 41.8-37.8 58.9-.6.6-1.2 1.3-1.8 2-20.9 22.3-55.2 40.9-86.2 42-5.1 0-10-.4-15-1-1.1-.1-2.2-.3-3.3-.4-11.4-1.6-22.1-6.2-29.8-15-8.7-11.7-10-24.5-7.9-38.6 5.6-27.1 28.3-49.7 49.4-65.8 2.1-1.6 4.1-3.2 6.1-4.8 9.1-7.1 19.2-13.1 29.5-18.4.9-.5 1.9-1 2.8-1.5 24.4-12.5 50.8-20.6 77.9-24.2 2.3-.3 2.3-.3 4.3-1.3-2.5-11.4-10.5-22.4-20-29-3.3-1.9-6.6-3.5-10-5-1-.5-1.9-.9-2.9-1.3-29.3-13-61.9-7.6-91.1 3.3-17.6 7-33.6 16.8-48 29-.6.4-1.1.9-1.7 1.3-11.5 9.7-22 19.7-31.3 31.7-.5.6-.9 1.1-1.4 1.7-6.8 8.7-12.9 17.7-18.7 27.1-.5.7-.9 1.5-1.4 2.3-.2.3-.2.3-1.3 2.1-1.2 1.8-2.5 3.3-4.2 4.8-2.2-.3-2.2-.3-4-1-.7-5.9 1.5-9.6 4.5-14.6.4-.8.9-1.6 1.4-2.4 3.2-5.7 6.7-11.2 10.4-16.6 1.4-1.9 2.5-3.9 3.6-6 3-5.3 7.2-9.8 11.1-14.4l1.5-1.8c9.2-10.9 18.5-20.2 29.9-29 1.3-1 2.7-2.1 4-3.2 10.9-8.7 23-15.1 35.6-21 .6-.3 1.3-.6 2-1 14.1-6.5 27.7-10.9 43-13.3 1.1-.2 2.1-.4 3.2-.5 13.1-2 25.5-1.5 38.5.7m29.5 71.6-3.3.9c-10.5 2.6-20.8 5.9-30.9 9.6-.9.3-1.7.6-2.6.9-26.6 9.9-51.7 24.6-72.4 44.1-.8.7-1.7 1.5-2.5 2.3-14.5 13.8-25.2 31.7-25.9 52.1-.1 10.4 1.1 18.1 8.4 25.9 3.1 2.7 6.2 4.3 10 5.7.7.3 1.5.6 2.3.9 13.7 4.5 28.3 2.7 41.7-1.9 1-.4 2-.7 3.1-1 8.8-3.3 16.2-8.6 23.9-14 .4-.3.4-.3 2.7-1.9 4-2.9 4-2.9 5.3-4.1v-2c1.3-.7 2.6-1.4 4-2 3.9-2.8 6.8-6 9.9-9.6 1.5-1.7 3-3.4 4.6-5 7.4-7.7 13.4-16.1 19.1-25.2 1.3-2 2.5-4 3.8-6 11.8-18.4 20-39.3 21.3-61.2 0-.9.1-1.7.1-2.6.1-.8.1-1.6.1-2.4.1-.7.1-1.5.1-2.2 0-1.8 0-1.8-1-3.8-7.4-1.1-14.7.8-21.8 2.5m147 19.2c-.7.3-1.5.7-2.2 1.1-2 1-4 2.1-6 3.2-.4.2-.4.2-2.5 1.3-2.2 1.2-4.3 2.4-6.5 3.7-.6.3-1.2.6-1.8 1-19.4 10.9-37.6 23.9-53.1 39.9-2.7 2.7-5.6 5.2-8.6 7.6-1.5 1.5-1.5 1.5-2.5 4.5h-2c-1.6 1.6-1.6 1.6-3.3 3.7-2.2 2.5-4.3 4.9-6.7 7.2-2 2.1-2 2.1-2 4.1-.5.1-.5.1-3 1-1.4 1.5-1.4 1.5-3 3.6-2.7 3.6-5.4 7.2-8.3 10.7-19.3 23.8-36.1 50.4-50.1 77.6-1.8 3.5-3.8 6.9-5.8 10.3-.9 2-1 3.5-.8 5.8.5 0 1-.1 1.5-.1 4.6-.1 8.9.3 13.4 1.1 14 2.2 26.7 1.4 40.1-3 1.5-.5 3-1 4.5-1.4 8.7-2.8 17.2-5.8 25.5-9.6.7-.3 1.4-.7 2.2-1 17.1-7.8 17.1-7.8 23.6-12.4 2.3-1.7 4.7-3.2 7.1-4.7 12.6-8 24.3-16.6 35.5-26.5 1.4-1.3 2.9-2.5 4.3-3.8 21.2-18.5 41.7-44.8 45.3-73.6 1-18.8-2.3-34.7-15-49-.5-.6-1.1-1.3-1.6-1.9-3.5-4-3.5-4-7.1-4.5-4.3.5-7.4 2.1-11.1 4.1m154.8 233.3c-1.4 1.1-2.7 2.2-4.1 3.3-8.7 6.9-16.9 14.4-24.6 22.4-1.3 1.3-1.3 1.3-3.3 2.3v2c-.5.1-.5.1-3 1-1.5 1.5-1.5 1.5-3.1 3.4-2.8 3.3-5.6 6.4-8.4 9.6-3.9 4.3-7.7 8.6-11.5 13-.4.5-.8.9-1.3 1.4-5.5 6.4-10.7 12.6-15 19.9-1.4 2.2-2.9 4.3-4.5 6.4-3.4 4.4-6.3 9-9.1 13.8-.3.4-.3.4-1.6 2.6-9.1 15.6-17.6 31.3-17.8 49.8v2.1c-.1 5.7 1.2 9.3 4.7 13.8 2.7 2 5.1 2 8.4 1.8 12.3-2.5 23.3-11.4 32.6-19.3l3.3-2.7c1.5-1.2 2.9-2.4 4.3-3.6v-2c1.3-.7 2.6-1.4 4-2 1.6-1.3 1.6-1.3 3.1-2.9.6-.5 1.2-1.1 1.8-1.7s1.2-1.2 1.8-1.9c.7-.6 1.3-1.3 2-1.9 1.3-1.4 2.6-2.7 4-4 2-2.1 4.1-4.2 6.2-6.2l3.9-3.9c.6-.7 1.2-1.3 1.9-1.9.5-.6 1.1-1.2 1.7-1.8l1.5-1.5c1.1-1.3 1.1-1.3 1.1-3.3h2c1.3-1.3 1.3-1.3 2.9-3.1.6-.8 1.2-1.5 1.8-2.2.4-.4.7-.9 1.1-1.3 1.9-2.3 3.9-4.6 5.8-6.8 1.1-1.3 2.1-2.5 3.2-3.8.5-.6 1-1.1 1.5-1.7s.9-1.1 1.4-1.6c1.3-1.5 1.3-1.5 3-3 1.8-2.1 1.3-3.6 1.1-6.2.5-7.5 3.4-15.3 8.2-21 1-1.3 1-1.3 1-3.3 1.3-.7 2.6-1.4 4-2 17.3-12.9 31.5-29 35-51 .5-6.2 1-12.3-2.7-17.7-3-3-6.5-4.2-10.8-4.5-13.7.9-27.5 12.6-37.5 21.2m141 18c-1.8 1.9-3.4 3.8-5.1 5.8l-1.5 1.8c-1.5 1.8-2.9 3.6-4.4 5.4-.8 1-1.6 2-2.5 2.9-2.8 3.5-5.7 7-8.5 10.6-5.8 7.4-12 14.7-18.8 21.2-1.2 1.3-1.2 1.3-1.2 3.3-1 .3-2 .6-3 1-1.5 1.5-1.5 1.5-3.1 3.4-3.3 4-6.9 7.7-10.7 11.3-1.1 1-2.2 2.2-3.2 3.3v2c1.5.8 3.1 1.5 4.7 2.2 5 2.4 7.3 4.6 9.3 9.8 1.6 4.9 2.4 11.1 0 15.9-3 3.9-6.8 6.7-11.7 7.6-6.9 0-11.8-1.1-17.8-4.4-2.8-1.3-4.5-1.6-7.5-1.1-4.7 4.1-7.3 10.1-9 16-.2.6-.4 1.2-.6 1.9-1.8 8.8-.1 16.8 3.9 24.6 1.9 2.8 3.6 4 6.6 5.7.4.3.4.3 2.5 1.5 7.8 3.8 17.5 3.2 25.6.8 6.6-2.4 11.6-6.1 17-10.5.6-.5 1.3-1 2-1.6 1.4-1.1 2.7-2.2 4-3.4v-2c1-.3 2-.7 3-1 1.2-1.3 1.2-1.3 2.5-2.8.2-.3.2-.3 1.4-1.8.4-.6.9-1.2 1.4-1.9.5-.6 1-1.2 1.5-1.9 3.3-4.2 6.2-8.6 8.9-13.3.9-1.6 1.8-3.1 2.8-4.6 17.4-27.3 16.3-58.7 14.5-89.7-.1-1.8-.2-3.5-.3-5.3-.2-4.2-.5-8.5-.7-12.7z"/><path fill="#b80000" d="M2874.297 859.879c5.7-.1 10.3-.1 15.7 2.1 2 2 2 2 2.4 4.8-.5 4.1-2.3 5.8-5.4 8.2-3.3 2.1-6.8 4-10.2 5.9-9.2 5-17.2 10.6-24.9 17.6-.7.7-1.5 1.4-2.2 2.1-.2.2-.2.2-1.3 1.1-1 1-2.2 2-3.3 2.9-4.8 4-8.6 8.3-12.3 13.4-.6.7-1.1 1.4-1.7 2.2-2.3 3-4.5 6-6.7 9-10.9 14.8-21.3 26.2-36.4 36.8-.7.5-1.3.9-2 1.4-7.7 5.4-15.6 10.3-24 14.6l-1.8.9c-12.1 6.3-24.4 12.1-37.4 16.3-17.2 5.8-25.8 27.7-33.4 42.8-5.6 11.3-10.8 22.8-15.4 34.5-5 12.6-10.5 24.8-17 36.7-1.7 3.2-3.4 6.4-5 9.7-.3.7-.7 1.3-1 2-2.1 4.2-4 8.4-6 12.6-3.1 6.6-6.3 13-10 19.3s-6.9 12.8-10.1 19.3c-.6 1.3-1.3 2.7-2 4-1.8 3.7-3.5 7.3-4.8 11.3-1.6 4.5-3.6 8.7-5.7 12.9-4.3 8.6-7.7 17.3-10.4 26.6-1.3 4.2-3.1 8.2-4.8 12.3-2.2 5.3-4 10.6-5.1 16.2-1 4.5-2.5 8.6-4.1 12.9-.9 2.5-1.8 4.9-2.6 7.4-.2.7-.5 1.3-.7 2-.6 1.9-1.1 3.9-1.6 5.9-1.2 5-2.6 9.9-4 14.8-.3.9-.5 1.8-.8 2.7l-3.9 13.2c-1 3.4-2 6.8-2.8 10.2-1.3 4.6-2.9 9.1-4.6 13.6-1.1 3.1-1.9 6.2-2.7 9.3-2.7 9.9-7.1 19.3-11.3 28.6-.3.6-.5 1.2-.8 1.8-6.6 14.5-15.3 27.9-25.9 39.7-1.7 2-3.3 4-5 6.1-3 3.8-5.9 7.2-9.8 10.1-1.7 1.5-3 3.1-4.5 4.8-4.7 5.4-9.8 10.4-14.9 15.4-1.9 1.9-3.8 3.7-5.7 5.6-.4.4-.8.9-1.3 1.3-1.7 1.7-3 3.1-4.1 5.2h-2c-.7 1.3-1.4 2.7-2 4-1 1.2-2 2.4-3.1 3.5-7.9 9-14.5 18.8-20.9 28.9-1.9 3-3.9 5.9-5.9 8.9-1.1 1.7-1.1 1.7-2.1 4.7.6-.5 1.2-1 1.9-1.5 2.1-1.5 2.1-1.5 4.1-1.5v-2c2.1-1.2 4.2-2.2 6.4-3.2 5.1-2.5 9.8-5.1 14.4-8.3 4.2-2.8 8.7-5.1 13.2-7.5 1.2-.6 2.5-1.3 3.7-2 6.2-3.4 12.4-6.6 19.1-9.1 2.3-.9 4.4-2 6.5-3.3 4.2-2.4 8.4-4.1 12.9-5.8 3.1-1.1 6.1-2.3 9.1-3.7 4.3-2 8.8-3.6 13.3-5.2.7-.3 1.5-.5 2.2-.8 3.3-1.1 6.6-2.2 10-3.2 2.5-.7 4.8-1.5 7.3-2.6 3.6-1.4 6.1-1.5 9.9-.3 2.4 1.2 2.4 1.2 4 3 .6 2.8.6 2.8 0 6-3.6 5.5-8.2 8.6-13.9 11.6-7 4-13.1 8.4-19.3 13.6-5.8 4.9-11.8 9.3-18.1 13.6-1.7 1.2-3.5 2.5-5.2 3.7-24.1 17-55.7 29-85.5 26.5-.3-.1-.3-.1-2.1-.4-2.1-.5-3.8-.8-5.9-.6-2.2 1.8-3.3 4-4.6 6.5-.8 1.3-1.5 2.6-2.3 3.9-.2.3-.2.3-1.1 1.9-1.9 3.2-4.2 6.3-7 8.7h-2c-.3 1-.7 2-1 3h-2c-.3 1-.7 2-1 3h-2c-.7 1.3-1.4 2.7-2 4-5.9 7.6-14.2 12.6-22.2 17.8-1.5 1-2.9 2-4.4 3-12.9 8.5-28.2 11.4-43.3 11.4h-5.6c-7 .1-13.6-.4-20.5-2.2-.6-.1-1.2-.3-1.9-.5-9.8-2.8-17.8-7.7-26.1-13.5 0 3 .5 4.9 1.4 7.6.5 1.8 1.1 3.6 1.6 5.4.2.6.4 1.2.5 1.9 3.9 14.8 4.4 35.7-3.2 49.3-.7 1.3-1.5 2.5-2.3 3.8-1 1.7-1.9 3.4-2.9 5-1.5 2.8-3.1 5.5-4.7 8.2-4.6 8-8.3 16.1-11.4 24.8l-1.2 3.3c-2.3 7.1-3.7 14.2-5.1 21.6-1.7 9-4.4 17.7-7.1 26.5-1 3.4-1.9 6.7-2.6 10.1-1.9 8.9-5.3 14.5-11.7 21.1-1.8 2-3.5 4.1-5.1 6.2-1.2 1.2-1.2 1.2-4.2 2.2-.3-.3-.7-.6-1-1q0-3.6.3-7.2c0-.7 0-1.4.1-2.1.4-5.9 1.4-11.4 2.8-17 2.3-10.1 3.4-20.4 4.3-30.7 2-22.3 5.4-44.3 18.9-62.9 9.3-12.7 17.9-30 15.6-46.1-1.2-4.5-2.8-8.8-4.4-13.2-2.7-7.8-5.2-16.5-3.6-24.8 2.1-4 4.7-6.3 8.7-8.4 12.8-2.2 22.1 1.7 33.4 7.4.7.4 1.4.7 2.1 1.1.7.3 1.3.7 2 1 .7.4 1.4.7 2 1 1.5.8 2.9 1.5 4.3 2.3 13.7 6.4 32.2 6.1 46.3 1.4 14.5-5.3 27.3-13.5 37.9-24.6 1.3-1.2 1.3-1.2 3.3-1.2.7-1.3 1.4-2.6 2-4 1.5-2.2 1.5-2.2 3-4h2c.7-1.3 1.4-2.6 2-4 .9-1.2 1.8-2.4 2.8-3.6 3.3-4.4 6.2-9 9.1-13.7 1.1-1.7 2.1-3.4 3.2-5 .5-.8 1-1.6 1.5-2.5 2.3-3.6 4.6-7.1 6.8-10.7 1.1-1.7 2.2-3.4 3.3-5.2 4-6.5 8.5-12.6 13.2-18.8l3.3-4.5c4.3-5.8 8.7-11.3 13.6-16.5 3.1-3.3 3.1-3.3 4.2-5.5h2c.7-1.3 1.3-2.6 2-4 1.5-1.6 1.5-1.6 3.2-3.2 2.5-2.4 4.8-4.9 7-7.5 3.7-4.3 7.7-8.2 11.7-12.1 5.4-5.3 10.4-10.7 15.1-16.6 1.4-1.8 2.8-3.4 4.2-5.1 20.4-23.6 31.2-54.6 37.9-84.6 1.8-7.6 3.9-15.1 6.2-22.6 1.8-6.3 3.6-12.6 5.3-18.8 3.1-11.1 6.4-22 10.4-32.8l3.3-9c16.3-44.8 36-88.4 60-129.7 6-10.4 11.1-21.1 15.9-32.2.1-.4.1-.4.9-2.2l.9-2.1c3.7-8.6 7.5-17 11.9-25.3 1.1-2.2 2.2-4.4 3.4-6.6 11.6-23 11.6-23 18.7-32.6-3.7 1.4-7.4 2.9-11.1 4.3-1.2.5-2.5.9-3.7 1.4-15.4 5.9-29.6 13-43.2 22.3-.6.4-1.1.8-1.7 1.2-19.7 13.6-39.1 28.4-52.7 48.4-1.5 2.3-3.2 4.5-4.8 6.7-2.2 2.8-4.1 5.7-5.8 8.7-1.1 1.8-1.1 1.8-2 3h-2c.3-17.2 15.4-33.1 25.9-45.6l3.6-4.5c.4-.5.8-1 1.2-1.6.8-.9 1.6-1.9 2.4-2.9.9-1.2 1.9-2.3 2.9-3.4h2c.7-1.3 1.4-2.6 2-4 20.1-25.6 63.7-44.3 94.2-53.2.4-.1.4-.1 2.2-.7 1.3-.4 2.7-.7 4.1-1.1 7.5-2.2 11.7-7 16.6-12.9 3.2-3.6 6.7-7 10.2-10.4 1.4-1.4 2.8-2.8 4.3-4.2l1.8-1.8c1.6-1.7 1.6-1.7 2.7-3.4.3-.4.6-.8.9-1.3h2c.3-1 .7-2 1-3h2c.7-1.3 1.3-2.6 2-4 1.5-1.6 1.5-1.6 3.2-3.2 2.4-2.4 4.7-4.7 6.9-7.3 4.2-4.9 8.7-9.6 13.2-14.4.6-.6 1.2-1.2 1.8-1.9.5-.6 1.1-1.1 1.6-1.7 1.3-1.5 1.3-1.5 2.3-3.5h2c.3-1 .7-2 1-3h2c.3-1 .7-2 1-3h2c.7-1.3 1.3-2.6 2-4 1.2-1.4 2.5-2.7 3.7-4 .8-.7 1.5-1.5 2.3-2.2l2.3-2.3c.8-.8 1.5-1.6 2.3-2.4.8-.7 1.5-1.4 2.3-2.2l2-2c2.2-2 4.5-3.4 7.1-4.9l3-3c11-8.8 22.7-14.3 36.2-18.4 1.7-.6 3.5-1.1 5.3-1.7 7.7-2.6 14.7-3.7 22.8-4m-36.2 24.6c-.5.2-.5.2-2.9 1.6l-1.5.9c-1.8 1.1-3.6 2.1-5.4 3.1-3.5 2-6.9 3.9-10.3 5.9-.6.3-1.1.7-1.7 1-.4.3-.8.7-1.3 1v2c-1.3.7-2.7 1.4-4 2-2.1 1.6-4.2 3.1-6 5v2c-.5.3-1.1.5-1.7.8-3.2 1.7-5.2 4.1-7.6 6.8-.5.6-1 1.1-1.5 1.7-1.4 1.6-2.8 3.1-4.2 4.7-.7.8-1.3 1.5-2 2.3-1.1 1.2-2.2 2.5-3.3 3.8-1.3 1.4-2.6 2.9-3.9 4.3-.4.4-.4.4-2.2 2.5-.7.7-1.4 1.5-2.1 2.2-1.5 1.9-1.5 1.9-1.5 3.9h-2c-.9 1.1-1.8 2.3-2.7 3.4-1.5 1.9-3.2 3.5-4.9 5.2-1.5 1.5-3 3-4.5 4.6l-3.3 3.3c-.2.3-.2.3-1.6 1.7-3.7 3.8-7.6 6.9-12 9.8.3 1 .7 2 1 3 13.5-6.1 25.5-12.9 37.3-21.9 2.3-1.7 4.6-3.4 7-5l2.7-2.1v-2c1.3-.7 2.7-1.3 4-2 1.8-1.5 1.8-1.5 3-3v-2h2c1.3-1.5 1.3-1.5 2.8-3.6.6-.8 1.2-1.6 1.7-2.4.7-.9 1.3-1.7 1.9-2.6 5.7-8 11.7-15.5 18.3-22.9 1.2-1.4 2.4-2.8 3.7-4.2 5.3-6.2 11.2-11.3 17.6-16.3-3.8-1.4-5.5-.5-8.9 1.5m-308.3 603.8c-.6.2-1.1.5-1.6.7-1.8.8-3.5 1.6-5.2 2.4-.6.3-1.2.5-1.8.8-8.2 3.8-16.1 7.8-24 12.3-4.8 2.8-9.7 5.3-14.8 7.8-5.8 2.8-11.2 5.9-16.4 9.7 3.2 1.1 5 1 8.1-.2 3.2-1.2 6.4-2.2 9.7-3.2 16.3-4.8 30.1-13.4 43.6-23.4 1.6-1.2 3.3-2.3 5-3.4.9-.6 1.7-1.2 2.6-1.8v-2h2v-2c-2.8 0-4.7 1.1-7.2 2.3"/><path fill="#70c4c9" d="M1447.576 2147.95c2.4 0 4.7-.1 7.1-.1h2.1c3.5-.1 6.3 0 9.2 2.2 1.1 3.2 1.5 5 0 8.1-1.9 1.8-3 2.3-5.4 3.1-3.1 1.2-4.3 2.4-5.9 5.4-4.6 10.8-3.9 19.8-.1 30.8.3.7.6 1.5.8 2.3.8 2.4 1.7 4.8 2.5 7.2 1.1 3.2 2.2 6.3 3.2 9.5.3.8.6 1.5.8 2.3 1.3 3.8 2.5 7.5 3.6 11.2 2.3 7.9 5.1 15.5 7.7 23.2.6 1.7 1.2 3.5 1.8 5.2 3.1 9.1 6.3 18.3 9.5 27.5l.9 2.7c1.4 4 2.8 8.1 4.3 12.1 2.3 6.4 4.5 12.7 6.1 19.4 1.8 7 4.2 13.9 6.7 20.8.4 1 .8 2.1 1.2 3.1q2.55 7.2 5.4 14.1c1.5 3.6 2.6 7.1 3.5 10.8.3.9.6 1.9.8 2.9.2.8.4 1.5.6 2.3.1-24.8.2-49.6.2-74.3.1-11.5.1-23 .1-34.5.1-10 .1-20.1.1-30.1v-15.9c.1-5 .1-10 .1-15v-5.5c.1-8.7-.2-17.1-2.2-25.7-.1-.3-.1-.3-.4-1.9-1.3-4.7-3.2-7-6.9-10.1-2.2-1.2-2.2-1.2-4.3-2-2.1-.9-2.1-.9-3.7-2-.7-3.2-.7-3.2 0-6 2.6-2.6 5.5-2.3 9-2.3h53.3c2.7.2 3.9.4 5.7 2.3.5 2.9.5 2.9 0 6-2 1.8-2 1.8-4.7 3.3-6.6 4.3-9.5 9.1-11.3 16.7-1.1 5.1-1.3 10-1.2 15.3v3c-.1 3.3-.1 6.7-.1 10v155.3c0 6.8 0 13.6-.1 20.4v26.1c-.1 30.6-.1 30.6 6.4 42.9.4.9.7 1.9 1 3 2.2 1.3 4.2 2 6.7 2.6 2.3 1.4 2.3 1.4 2.9 3 .4 1.8.6 3.4.4 5.4-2.7 2.7-4.2 2.2-8 2.3h-1.9c-2.1.1-4.1.1-6.2.1-1.4.1-2.8.1-4.2.1-3 .1-6 .1-9 .1-3.8.1-7.7.2-11.5.2-2.9.1-5.9.1-8.8.2h-4.3c-1.9.1-3.9.1-5.9.1-1.1 0-2.2 0-3.4.1-2.7-.2-3.9-.4-5.8-2.2-.3-1.7-.3-1.7-.3-3.5v-1.9c.3-1.6.3-1.6 2.3-3.6 1.8-.9 3.6-1.6 5.5-2.3 1.5-.7 1.5-.7 2.5-2.7h2c.5-1.4.9-2.7 1.3-4 .5-1.5 1.1-3 1.7-4.4 6.3-15.4 3.9-28.6-1.9-43.9-1.1-2.9-2.1-5.9-3-8.9-1.4-4.9-3.1-9.7-4.8-14.5-2.7-7.3-5-14.7-7.2-22.2-3.9-12.9-8-25.9-13.2-38.3-1.6-4-2.8-8-4-12-2.4-8.3-4.9-16.4-7.6-24.5-.2-.7-.4-1.4-.6-2-2.4-7.5-4.9-15-7.4-22.5-.2-.7-.5-1.4-.7-2-1-3.2-2.1-6.4-3.2-9.5-2.7-8.1-5.1-16.2-7.4-24.3-1.6 1.6-1.1 3.5-1.1 5.7v141.3c0 35.8 0 35.8.5 53.5 0 .6 0 .6.1 3.5.4 11.2 1.2 22.7 9.5 31 2.2 1.6 2.2 1.6 4.3 2.8 3.7 2.1 3.7 2.1 4.7 3.2.2 2.4.2 2.4 0 5-2.6 2.5-3.6 2.2-7.2 2.3h-3.3c-1.2 0-2.4.1-3.6.1h-3.7c-3.2.1-6.4.1-9.7.2-3.3 0-6.5 0-9.8.1-5.9.1-11.8.2-17.6.2-2 0-4 .1-6 .1-.9 0-1.8.1-2.7.1-.4 0-.4 0-2.4.1-2.2-.3-3.3-.7-5-2.2-.3-2.9-.5-5.1.8-7.7 1.5-1.6 2.5-2 4.5-2.7 5.3-2.1 8-5.9 10.4-10.9 6.2-16.1 4.5-35.4 4.5-52.4v-6.7c0-6.6.1-13.3.1-19.9v-51.1c0-10.9.1-21.8.1-32.7v-33.7c0-6.3.1-12.6.1-18.8v-24.3c.2-30.7.2-30.7-8.5-40.1-2.9-2.3-5.9-4.2-9-6-.3-.4-.6-.7-1-1 .1-1.6.1-1.6.3-3.5.1-.7.2-1.3.3-2 .1-.5.3-1 .4-1.5 2.2-1.2 3.5-1.2 5.9-1.3h2.5c.8 0 1.7 0 2.6-.1h2.8c1.9-.1 3.9-.1 5.8-.2 2.9 0 5.8-.1 8.7-.1l14.1-.3c1.7 0 3.5-.1 5.2-.1m549.584 7.464c12.4 8.9 22.3 22 25.2 37.3 3.4 25 3.1 49.7-12.2 70.6-7.4 9.2-17.2 16-29.1 17.3-1.3.2-2.7.3-4.1.4 2.3 3.9 4.6 7.9 6.9 11.8.8 1.4 1.6 2.7 2.3 4 4.2 7.2 8.4 14.2 13.3 20.9 2.5 3.6 4.5 7.4 6.5 11.2 3.4 6.1 6.8 12 10.7 17.8 1.3 2.3 1.3 2.3 2.4 5.1.3.7.6 1.4.9 2.2h2c.1-.6.1-.6.4-3.5.7-5.3 1.9-10.4 3.2-15.5.9-4.2 1.6-8.2 1.9-12.4.5-5.7 1.6-11.2 3-16.7.4-1.9.8-3.8 1.3-5.6l.6-2.7c.8-3.2 1.5-6.5 2.1-9.8.8-2.8 2-4.2 4.5-5.8 2.7.4 2.7.4 5 1 .5 9.8-.8 19.4-2.1 29.1-.3 1.7-.5 3.5-.7 5.2-1.8 13.4-3.8 26.8-5.9 40.2-.2 1.8-.5 3.6-.8 5.4s-.6 3.7-.9 5.5c-.9 5.1 0 8.1 2.6 12.6.3.7.7 1.3 1 2 1.3 2.3 2.6 4.7 3.8 7 1.1 1.9 2.1 3.8 3.2 5.8 1.9 3.6 3.9 7.2 5.8 10.8 2.6 4.7 5.1 9.3 7.5 14.1 3.8 7.3 7.9 14.4 12.2 21.4.6.9 1.1 1.8 1.6 2.7 2.9 4.6 5.8 8.7 9.6 12.6 1.4 1.9 1.9 3.2 2.1 5.6-.7 1.6-.7 1.6-2 3-1.6.4-1.6.4-3.5.4-.7 0-1.5 0-2.2.1h-10c-2.6 0-5.2 0-7.9.1h-7.3c-4 0-5.5-.1-8.5-2.9-2.6-4.5-2.6-4.5-3.6-6.4-.3-.7-.6-1.4-1-2.1-.3-.6-.6-1.3-1-2-.3-.7-.6-1.4-1-2.1-1.3-2.7-2.7-5.5-4-8.3-.4-.7-.7-1.4-1.1-2.1-.3-.7-.6-1.3-.9-1.9-1-1.8-2-3.4-3.2-5.1-1.7-2.6-2.2-3.7-1.8-6.7-3.1 1.6-4 4.8-5.5 7.9-.6 1.2-1.2 2.5-1.8 3.8-.3.5-.5 1.1-.8 1.7-.9 1.6-1.7 3.1-2.9 4.6h-2c-.2.5-.5 1.1-.8 1.6-5.1 10.3-15.9 15.3-26.2 19.4-4.9 1.5-10 1.2-15.1 1.2-1.8 0-3.6.1-5.4.1-11.9.1-22.1-1.7-31.5-9.3-.4-.4-.9-.8-1.4-1.1-11.4-9.4-19.4-20.6-23.6-34.9l-.6-2.1c-3.2-11.4-2.7-24-2.9-35.8-.1-2.9-.2-5.8-.2-8.7-.3-9.8-.3-19.5.1-29.3.1-.9.1-1.8.1-2.7.4-8 1.7-15.7 3.5-23.4.1-.5.1-.5.7-2.8 4.4-16.3 14.6-27.7 27.3-38.2.7-.3 1.4-.7 2-1-1.5-3.4-3.5-6.5-5.6-9.6-.8-1.1-1.5-2.1-2.2-3.2-1.3-2-2.7-3.9-4-5.9-12.5-18.3-17.5-42.6-13.5-64.5 3.7-16.6 12.4-31.1 26.3-40.8 2.6-1.6 5.2-2.9 8-4l2.1-.9c15.8-5.9 35.3-2.7 49.1 6.3m-50.2 15.6c-8.6 17.3-6.7 42.9-2 61 .2.9.4 1.8.7 2.7 3.6 14.4 15.8 28.3 26.3 38.3 2.5-1.4 2.5-1.4 5-3v-2h2c14.1-13.7 16.2-37.3 16.5-55.8.2-31.3.2-31.3-7.5-42.2-.4-.6-.8-1.2-1.2-1.9-4.3-5.7-10.1-9.1-17.1-10.6-9.2-.8-17.9 5.9-22.7 13.5m-2 117c-5.2 9.4-7.4 18.9-7.7 29.6 0 .9-.1 1.9-.1 2.9-.1 2.1-.2 4.1-.2 6.2-.1 3.1-.3 6.1-.4 9.2-.8 19.9-.8 39.8.1 59.7.2 2.8.3 5.7.4 8.5 1.3 32.9 1.3 32.9 11.6 44.9 6 5.4 12.3 7.5 20.3 7.4h2.1c5.5-.2 9.5-1.1 13.9-4.4l2.1-1.5c1.7-1.5 3.4-2.8 4.9-4.5v-2h2c6-7.9 10-16.7 13.2-26l.9-2.7c2.1-6.5 2.6-10.9-.5-17.2-.6-1-1.1-1.9-1.7-2.9-.7-1-1.3-2.1-2-3.1-.3-.5-.6-1.1-.9-1.6-2.5-4.1-4.7-8.3-7-12.5-.3-.6-.6-1.3-1-1.9-4.1-7.7-8.2-15.5-12-23.3-2.8-5.7-5.8-11.2-9-16.7-2.3-3.8-4.3-7.8-6.3-11.8-4-8.3-8.7-16.1-13.3-24-1.8-3.2-3.5-6.4-5.2-9.6-1.2-1.7-1.2-1.7-4.2-2.7m330.528-139.175h10c1.8 0 3.6-.1 5.4-.1h25.6c3.7-.1 7.4-.1 11.1-.1h5.3c12.1-.1 23.2.1 33.7 7 .5.3 1.1.7 1.6 1 14.9 9.9 24.3 23.1 28.8 40.4.1.4.1.4.8 2.8 2.3 9.4 2.7 18.4 2.6 28v7.6c.1 22-4.2 43-19.8 59.5-3.4 3.3-6.7 5.5-11.1 7.3-1.5.8-1.5.8-2.5 2.8.5.2.5.2 3.2 1.4 15.3 7.2 27.7 16.9 33.7 33.4 9.3 27.8 6.8 65.8-6.3 92.2-7.7 14.6-7.7 14.6-13.6 20h-2v2c-6.2 5.5-13.1 8.5-21 11-1 .3-2 .6-3 1-1.3.1-2.6.1-3.9.1h-35.9c-5.6 0-11.2.1-16.8.1h-34.7c-1.7-.2-1.7-.2-3.7-2.2.1-3 .1-3 1-6 2.1-1.8 2.1-1.8 4.8-3.4 7.9-5.1 10.2-11.8 12.6-20.7 1-4.6 1-9 1-13.7v-59.5c0-12.4 0-24.8-.1-37.3v-135.6c-.1-8.6-1.1-17.2-5.3-24.8-3.1-2.4-6.4-3.6-10-5-1.4-1.5-1.2-2.5-1.2-4.5v-1.9c0-.3 0-.3.2-1.6 3-1.6 6.2-1.2 9.5-1.2m38.5 12.2c-.2 2.2-.2 2.2-.2 5.3v34.2c0 7.3 0 14.7.1 22v25c0 17.2.1 34.3.1 51.5 5.1 1.3 10 1 15.2.8 1 0 2-.1 3-.1 8.8-.3 16.6-2.6 23.2-8.7 17.1-21 15.5-60.3 13.1-85.2-1.7-14.5-3.5-29.7-15.4-39.5-8.9-5.9-18.6-6.5-29-6.5h-6.4c-1.7.2-1.7.2-3.7 1.2m0 150v55.5c0 8.5-.1 17.1-.1 25.7v58.4c.1 2.4.1 2.4 1.1 3.4 2.5.1 4.9.1 7.3.2h6.9c2.4 0 4.8 0 7.2.1h6.7c7 0 12.9-2.5 18.2-7.2 18.1-21.6 17.4-60.3 15.2-86.8-1.4-14.2-4-29.7-14.5-40.3-10.4-8-21.4-8.4-34.1-8.7-1.3 0-2.7 0-4-.1-3.3-.1-6.6-.2-9.9-.2m-699.004-162.411h20.6c3.7.1 7.4.1 11.1.1 2.8-.1 5.7 0 8.5 0h13.1c2.6.3 3.9.4 5.7 2.3-.1 3-.4 5.2-2.2 7.7-5.8 4.3-5.8 4.3-8.8 4.3-1.7 3.5-2.6 7.1-3.5 10.8-.3 1-.5 2-.8 3-1.4 6.7-1.8 12.9-1.8 19.7v35c.1 5.7.1 11.4.1 17v33.5c2.5-2.4 3.9-4.5 5.3-7.6 2.1-4.4 4.5-8.5 7.1-12.7 2.8-4.7 5.4-9.4 8.1-14.2.6-.9 1.1-1.9 1.7-2.9 2.7-4.8 5.3-9.6 7.9-14.4 2.3-4.2 4.8-8.3 7.3-12.4 4.3-7.2 8.2-14.5 11.8-22.1.7-1.5 1.5-3 2.2-4.5 3.3-7.2 4.2-15 1.9-22.6-3-5.6-7.5-7.4-13-10.1-2.3-1.5-2.3-1.5-3.1-3.4 0-1.9 0-1.9.8-5.1 2.5-1.3 4.3-1.2 7.1-1.2h3.3c1.1-.1 2.3-.1 3.5-.1h11.1c3.2 0 6.5-.1 9.7-.1h7.4c1.8-.1 3.5-.1 5.3-.1h6.1c3.2.6 4.4 2 6.5 4.5-1.7 3.6-3.4 5.4-6.7 7.7-8.6 6.2-14 14.5-19.2 23.5l-4.5 7.5c-1.6 2.5-3.1 5.1-4.6 7.6-1.3 2.2-2.7 4.4-4 6.7-.2.4-.2.4-1.4 2.4-1.1 1.8-2.2 3.7-3.4 5.5-3.7 6.1-7.3 12.3-10.9 18.5-.4.6-.7 1.2-1.1 1.8l-2.1 3.6c-.4.6-.7 1.2-1.1 1.9-.3.6-.7 1.2-1.1 1.8-4.1 7.1-8.3 14.1-12.5 21.1-.4.6-.8 1.3-1.2 1.9-1.8 3-3.6 5.9-5.4 8.8-5.3 8.7-10.3 17.5-14.8 26.7.8 0 1.5-.1 2.3-.1 2.7-.1 5.5-.1 8.2-.1 1.2-.1 2.4-.1 3.6-.1 1.7-.1 3.4-.1 5.2-.1 1 0 2-.1 3.1-.1 2.6.5 2.6.5 4.4 2.2 1.3 2.4 2.2 4.6 3 7.2l.9 3c.3 1 .7 2.1 1 3.1 2.7 8.5 5.7 16.6 9.2 24.7 2.8 6.5 5.3 13 7.7 19.6 2.6 7 5.3 13.9 8.3 20.7 2.3 5.1 4.1 10.4 5.9 15.7 1.7 4.9 3.6 9.7 5.8 14.5 1.6 3.8 3.1 7.7 4.6 11.7.4 1 .8 2.1 1.2 3.2.7 2.1 1.5 4.2 2.2 6.3 3.3 9 7 17 15.7 21.8 3 1.8 5.4 3.2 7.3 6.3.4 2.5.4 2.5-.8 4.6-1.8 1.9-1.8 1.9-3.8 2.4-.8 0-1.6 0-2.4.1h-5.6c-.5.1-.5.1-3 .1h-6.2c-3.2 0-6.4.1-9.6.2h-6.1c-.9 0-1.9.1-2.8.1-2.7-.1-4.8-.2-7.3-1-2.1-2.5-3-5-4-8l-1.5-3.9-1.5-3.9c-.2-.7-.5-1.4-.8-2.1-1.8-5.1-3.6-10.2-5.3-15.4-.8-2.6-1.8-5-2.8-7.5-1.7-4.2-3.1-8.4-4.5-12.6-1.5-4.5-3.1-8.9-5-13.3-2.2-5.2-4.1-10.5-5.9-15.8-2.7-8-5.7-15.8-8.9-23.6-2.2-5.4-4.1-10.8-5.9-16.4-1.1-3.2-2.5-6.2-3.9-9.2-5-11.4-5-11.4-5-16.3h-2c.1.7.2 1.3.2 2 .9 10 .9 19.9.9 29.9-.1 3.2-.1 6.4-.1 9.5 0 9 0 18-.1 26.9v16.6c0 2.1-.1 4.2-.1 6.2-.2 32.9-.2 32.9 7.9 41.7 2.4 2.1 4.5 3.8 7.5 5.1 1.8 1.1 1.8 1.1 2.6 2.7l.3 1.8c0 .3 0 .3.3 1.8-.4 1.8-.4 1.8-2.6 3.4-3 1.5-4.8 1.7-8.2 1.7h-3.3c-1.1 0-2.3-.1-3.5-.1h-3.6c-2.7-.1-5.3-.1-7.9-.2-3.8 0-7.5-.1-11.2-.1-3.1 0-6.3 0-9.4-.1h-4.5c-2.2 0-4.3-.1-6.4-.1h-2c-1.8-.1-1.8-.1-4.8-.7-1.9-2.4-1.9-2.4-3-5 .5-2.2.5-2.2 2-4 3-1.7 5.8-2.9 9-4 1.1-1.8 1.1-1.8 2-4 .3-.8.7-1.5 1-2.3s.7-1.6 1-2.4.7-1.6 1-2.4c2.4-7.1 3.3-13.9 3.3-21.4v-34.1c-.1-6.2-.1-12.4-.1-18.5v-142.1q0-15.9-.6-31.8c-.1-.9-.1-1.8-.2-2.8-1.1-22.1-1.1-22.1-8.3-29-2.1-1.2-2.1-1.2-5.3-2.5-2.8-1.7-2.8-1.7-3.8-4.7 0-3 0-3 1.1-4.7 2.7-1.9 4.7-1.7 7.9-1.7m1174.979.113h54.3c3.9.4 3.9.4 5.7 2.3.2 3 .2 4.3-1 7-1.6 1.4-1.6 1.4-3.7 2.8-7.5 5.1-9.9 12.6-11.6 21.2-1.5 8-1.1 16.3-1 24.5v6.1c-.1 5.5 0 11.1 0 16.6v126.5c0 5.4 0 10.8.1 16.2v16.5c0 4.7.6 9 1.8 13.5.6 2.6.8 5.1 1.1 7.7 1.1 11.7 4 24.3 10.3 34.4.2.2.2.2 1.1 1.6 3.3 4.7 7.7 6.4 12.9 8.4.7.3 1.4.6 2 1 7.9.9 14.1.5 20.7-4.1 18.5-15.3 25.1-40.4 27.6-63.5.8-8.9.9-17.8 1-26.7v-5.1c0-4.6 0-9.2.1-13.8v-11.6c.1-9.2.1-18.3.2-27.4 0-9.4.1-18.8.2-28.1 0-8.1.1-16.2.1-24.3 0-4.8.1-9.6.1-14.4 0-4.5 0-9.1.1-13.6v-5c.1-8.2 0-16.4-.5-24.7 0-.6 0-1.3-.1-2-.6-10-4.1-19.9-10.5-27.7-1.8-1.2-3.6-2.1-5.5-3-1.5-1-1.5-1-2.2-2.7-.4-2.5-.5-4.7.4-7 1.3-1.3 1.3-1.3 3.5-1.7h12.8c2.4 0 4.9.1 7.3.1h9.3c3 0 6 0 8.9.1h9.3c2.2.2 2.2.2 4.2 1.2 1 2.3 1.2 3.5.3 5.9-1.9 3.1-4.8 4.3-8 6.1-7.9 6.7-10.4 21.5-11.5 31.3-.5 5.6-.4 11.2-.4 16.9v17.2c.1 6.2.1 12.4.1 18.6-.1 12.1-.1 24.2 0 36.2v61.5c.1 26 .1 51.4-8.5 76.3-.3 1-.7 2.1-1.1 3.3-5.5 15.6-14.1 28.2-27.9 37.7-.3.2-.3.2-2 1.5-10.2 7.4-26.3 6.2-38.2 4.3-8.6-1.7-17.4-6.7-23.8-12.8v-2c-1-.4-1.9-.7-3-1v-2c-1-.4-1.9-.7-3-1-1.5-1.8-2.9-3.6-4.3-5.5-.4-.5-.8-1.1-1.2-1.6-5.1-7.1-8.4-14.4-11.1-22.7l-.6-1.8c-3.4-11.4-5.2-22.1-5-34v-12.2c.1-4.4.1-8.9.1-13.4v-7c.1-2.4.1-4.8.1-7.2.1-17.6 0-35.2-.1-52.9v-4.8c-.1-6.3-.1-12.7-.2-19.1 0-9-.1-18-.1-26.9 0-6.5-.1-13-.1-19.5 0-3.8-.1-7.6-.1-11.4v-14.5c-.1-21.7-.1-21.7-7.4-29.5-2.8-2-5.8-3.5-9-5-1.7-1.8-1.1-4-1.2-6.3.6-4.7 4.5-4 8.2-4m-273.833.019c5.4 0 10.9 0 16.3-.1h29.4c3.2 0 5.7.1 8.7 1.3 2.4 3.3 2 6.4 2 10.3v2.6c0 2.8 0 5.6-.1 8.4v18c-.1 5.3-.1 10.5-.1 15.7v28.3c0 .7-.1 1.5-.1 2.2v1.9c-.2 1.6-.2 1.6-2.2 3.6-3.2.2-3.2.2-6 0-1.6-4.3-2.3-8-2.6-12.6 0-1.3-.1-2.6-.2-3.9 0-.3 0-.3-.1-2-2.3-45.8-2.3-45.8-12.1-56.5-9-4-9-4-54-4-.4 34.7-.7 69.3-1 105 8.6-.3 17.1-.6 26-1h7c3.6-1.2 5.6-3.4 7.7-6.6 3.4-8 4.8-15.9 5.4-24.5.1-1.9.3-3.8.4-5.7l.3-2.7c.7-9 .7-9 2.2-10.5 2.9-.3 2.9-.3 6 0 1.9 2.9 2.2 5.3 2.2 8.6 0 1 0 1.9.1 2.8 0 1-.1 2-.1 3.1.1 1 .1 2.1.1 3.2v75c.1 3.3.1 6.7 0 10.1.1 1 .1 2 .1 3 0 .9 0 1.8-.1 2.8v2.4c-.4 2.6-1.2 3.5-3.3 5-2.7-.1-2.7-.1-5-1-1.5-3-1.5-6.1-1.9-9.4-.1-1.6-.3-3.1-.4-4.6-.3-2.5-.5-4.9-.8-7.3-2-20.3-2-20.3-5.9-26.7-3.9-3-7.4-3.4-12.2-3.4-.6-.1-1.3-.1-2-.1-2.1 0-4.3-.1-6.4-.1s-4.3-.1-6.4-.1c-1.3 0-2.7-.1-4-.1-3.2 0-5.8-.4-9-1.2.3 57.8.6 115.5 1 175h51c.3-.9.6-1.9 1-3h2c1-2.1 1-2.1 2-5 .3-.8.6-1.6.9-2.5 1.1-2.8 2.1-5.6 3.1-8.5.1-.4.1-.4.8-2.3 1.6-4.9 2.6-9.8 3.2-14.9q.15-.9.3-2.1c1-9 1.4-18.2 1.8-27.3l.3-6.9c0-.7.1-1.4.1-2.1.2-3.5.3-6.5 2.5-9.4 3-.3 3-.3 6 0 2.3 2.4 2.2 2.7 2.2 5.8 0 .8 0 1.6.1 2.4 0 .9-.1 1.8-.1 2.7.1.9.1 1.8.1 2.7v64.9q.15 4.35 0 8.7c.1.9.1 1.8.1 2.6s0 1.6-.1 2.4v2.1c-.3 1.7-.3 1.7-1.5 3-2.4 1-4.3 1-7 1-1 0-2.1 0-3.2-.1h-7.2c-3.4 0-6.7-.1-10.1-.1-3.5 0-7 0-10.6-.1-5.9 0-11.8-.1-17.7-.1-6.8-.1-13.6-.1-20.5-.2-5.8 0-11.7-.1-17.6-.1-3.5-.1-7-.1-10.5-.1-3.3 0-6.6-.1-9.9-.1h-3.6c-1.6 0-3.3 0-4.9-.1h-2.8c-2.2-.3-2.2-.3-4.2-2.3-.4-4.3-.4-4.3 1-7 2.4-1.7 4.9-3 7.5-4.5 7.6-4.6 8.5-15.4 10.5-23.5.1-.3.1-.3.5-1.8.5-2.2.6-4.1.6-6.3v-25c.1-6.3.1-12.7.1-19v-55.5c0-11.5 0-22.9.1-34.4v-80.6c.2-31.1.2-31.1-6.3-42.4-.7-.3-1.3-.6-2-1v-2c-1-.1-1.9-.2-2.8-.3-4.9-1-4.9-1-6.2-2.7-.3-2.4-.2-4.5 0-7 2.5-2.5 8.9-1.4 12.5-1.5.6 0 1.2 0 1.9-.1 19.2-.6 38.5-.6 57.7-.6M2724 2150c1.1 2.3 1.1 2.3 1 5-1.9 3.1-3.9 5-7 6.9-4.6 2.9-6.4 6.4-7.6 11.7-1.3 10.6.8 21 2.6 31.4.2.9.3 1.8.5 2.8 1.6 9.4 3.4 18.8 5.4 28.1 2.6 11.8 4.4 23.8 6.2 35.7.8 5.1 1.7 10.2 2.6 15.3l.3 1.8c.6 3.2 1.2 6.3 2 9.5 1.2 5.6 2.1 11.3 2.9 16.9 1.5 9.4 3.2 18.6 5.1 27.9.7 3.3 1.3 6.7 2 10 .2 1.1.4 2.2.7 3.3 2.7 13.7 5.3 27.4 7.5 41.2 2.8 17.8 2.8 17.8 4.8 26.5.2.7.3 1.5.5 2.2 3.5 14.8 7.3 23.4 20.5 31.8 1 1 1 1 1.3 3.4-.3 2.6-.3 2.6-2 4.2-2.9 1.7-4.7 1.8-8.1 1.8h-11.3c-2.7 0-5.5 0-8.2-.1h-31c-2.7-.3-4.4-.8-6.7-2.3-.5-1.7-.5-1.7-.4-3.5 0-.3 0-.3.1-1.8.3-1.7.3-1.7 2.3-3.7 1.1-.4 2.2-.7 3.3-1.1 4.1-1.7 5.9-4.1 7.8-8.1 3.7-11.7-.1-25.4-2.1-37.1-.9-5-1.7-10-2.5-15-3-17.7-3-17.7-4.2-24.9-.3-1.7-.5-3.4-.8-5.1-.1-.4-.1-.4-.4-2.7-.1-.8-.3-1.5-.4-2.3-.1-.3-.1-.3-.7-1.7-3.1-1.1-6-1.1-9.2-1.1h-19.2c-3.1 0-6.2 0-9.3.1H2654c-2.3 12.5-4.6 25-6.1 37.6-.3 2.4-.7 4.9-1 7.3 0 .3 0 .3-.2 1.8-.5 4.1-1.1 8.1-1.8 12.1-.8 5.2-1.3 10.1-1.2 15.3v2.3c.1 6.3 1.1 11.7 3.3 17.6h2l4 4c.5.2.5.2 2.8 1.4 2.2 1.6 2.2 1.6 2.8 4.6-.6 3-.6 3-2.3 4.7-2.6 1.5-4 1.7-7 1.6h-2.9c-.5 0-.5 0-3-.1h-3.1c-2.2 0-4.4-.1-6.6-.1-3.3-.1-6.7-.1-10-.2-2.1 0-4.2 0-6.4-.1h-3c-2.5-.1-4.8-.2-7.3-.8-1.7-2.4-1.7-2.4-2-5 1.7-4.2 4-6 8-8h2c.7-1.3 1.4-2.6 2-4 .8-1.2 1.6-2.3 2.4-3.5 5-7.9 6.9-17.1 8.7-26.1 1-5.2 2.3-10.4 3.5-15.6 3.4-14.4 6.1-28.7 8.1-43.3 1.2-8.3 2.8-16.5 4.4-24.7 1.3-6.8 2.6-13.7 3.7-20.6 1.9-11.8 4-23.5 6.1-35.2.1-1 .3-1.9.5-3 2.5-13.9 5-27.8 7.7-41.7 1.2-6.4 2.3-12.8 3.2-19.3.6-4.4 1.4-8.7 2.3-13 2.7-13.2 4.6-25.4-1.6-38-2.3-2.7-3.9-3.9-7.1-5.4-2.9-1.6-2.9-1.6-4.5-4-.4-2.6-.4-2.6 1.1-4.7 3.5-2.6 6.1-2.3 10.4-2.1 1.6 0 3.2.1 4.9.1.8 0 1.7 0 2.6.1 4.4 0 8.9-.1 13.3-.3 1.9 0 3.7-.1 5.5-.2 2.8 0 5.6-.1 8.4-.2 2.7-.1 5.5-.2 8.3-.3.8 0 1.6 0 2.5-.1 4.7-.1 8.3.1 12.6 2.1m-44 48c-.6 3.6-1.2 7.2-1.8 10.9-.1 1.1-.3 2.2-.5 3.4-.9 5.7-1.8 11.5-2.7 17.3-2.1 14-4.6 27.8-7.4 41.7-2.4 11.7-4.5 23.5-6.1 35.3-.8 5.6-1.6 11-3.1 16.4-.7 3.4-.9 6.9-1.1 10.4-.3 2.6-.3 2.6-1.4 5.2-1 2.7-.7 3.7.1 6.4 5.3 0 10.6 0 15.9.1h5.5c10.2 0 20.4-.1 30.6-1.1-.1-.4-.1-.4-.4-2.2-.8-5.2-1.7-10.5-2.5-15.7-3.1-19.1-6.7-38.1-10.4-57.1-2.5-12.8-5-25.7-7.2-38.5-1-6.2-2.3-12.3-3.8-18.4-1.1-4.7-1.9-9.4-2.7-14.1zm479.082-49.275h20.5c3.7 0 7.4-.1 11-.1h21.6c3.2.4 4.6 1.1 6.8 3.4.3 2.8.3 2.8-1 6-1.9 1.4-3.9 2.6-6 3.8-3.4 2-5.4 4.4-6.7 8.2-3.2 13 1 22.4 6 34.2 2 5 4 10.1 5.8 15.1 1.7 4.6 3.4 9 5.5 13.3 2.1 4.6 3.9 9.3 5.5 14.1 1.9 5.3 4 10.4 6.2 15.5.8 2.1 1.7 4.1 2.5 6.2.3.8.6 1.5 1 2.3.6 1.5 1.2 3.1 1.8 4.6l.9 2.1c.2.6.5 1.2.7 1.9.8 1.7 1.7 3.1 2.8 4.7.2-.5.4-1.1.6-1.6 3.8-9.5 7.6-19 11.8-28.4 2.6-6 5.1-12 7.6-18 1.8-4.2 3.6-8.3 5.6-12.4 3.7-7.4 6.5-15.1 9.3-22.9.2-.6.4-1.1.6-1.7 3.2-9.1 6-18.5 3.5-28q-1.8-3.3-3.9-6.3c-1.1-1.7-1.1-1.7-1.1-3.7-.9-.3-1.8-.6-2.8-.9-4.9-1.7-4.9-1.7-6.2-3.1-.4-3-.4-3 0-6 2.9-2 5.3-2.3 8.7-2.3h8.8c2.1 0 4.2.1 6.4.1h24.2c1.9.2 1.9.2 3.9 1.2 1.1 3 1.2 4.5.1 7.5-2 2.4-3.3 3.3-5.9 4.8-8.5 5-11.8 13.7-15.2 22.5-1.3 3.3-2.6 6.5-3.9 9.7-.3.7-.6 1.3-.8 2q-3.45 8.25-7.2 16.5c-3.3 7.2-6.3 14.5-9.1 22-.7 2-1.5 4-2.2 6-.5 1.3-1 2.7-1.5 4-1.7 4.6-3.7 9.1-5.8 13.6l-5.4 12.3c-.4.7-.7 1.5-1.1 2.3-1.1 2.5-2.2 4.9-3.2 7.3-1.5 3.3-2.9 6.5-4.4 9.8-.3.7-.6 1.5-1 2.2l-.9 2.1c-.2.6-.5 1.2-.8 1.8-.5 1.2-1.1 2.4-1.7 3.6-.1 1.7-.1 3.4-.1 5.1v7c0 1.2-.1 2.5-.1 3.8v37.2c0 7.9 0 15.7-.1 23.5v39.2c0 1.3 0 2.5-.1 3.8 0 10.5 1 22.2 8.4 30.4 1.7 1.2 3.5 2.4 5.3 3.5 4.5 3 4.5 3 5.7 5.4.3 1.9.3 1.9 0 5.1-2.4 2.3-2.9 2.2-6.1 2.3-.9 0-1.7.1-2.6.1h-2.8c-.5 0-.5 0-2.9.1-2.1 0-4.2.1-6.2.1-3.1.1-6.2.1-9.3.2-10 .2-20 .2-30-.2-.9 0-1.8 0-2.7-.1-.4 0-.4 0-2.4-.1-.4 0-.4 0-2.2-.1-1.8-.3-1.8-.3-3.8-2.3-.1-4.5-.1-4.5 1-7 1.9-1.3 3.9-2.2 6-3.1 5.4-2.5 7.9-8.7 9.8-14.1 2.6-8.3 2.7-16.2 2.7-24.9 0-1.5.1-3.1.1-4.7 0-4.1.1-8.3.1-12.4 0-4.3.1-8.6.1-12.9 0-5.2.1-10.3.1-15.5.1-8.6.1-17.3.3-25.9.1-4.3.2-8.6.2-12.8 0-1.9.1-3.8.1-5.7.3-11.8-1.1-21.3-5.7-32.2-1.1-2.5-2-5-3-7.5-.6-1.6-1.3-3.2-1.9-4.8-.3-.8-.6-1.6-1-2.5-1.9-4.6-3.9-9.3-5.9-13.9-1.4-3.1-2.7-6.3-3.9-9.4-3.1-7.8-6.2-15.5-9.6-23.1-3.7-8.4-7.2-16.7-10.5-25.2-.2-.3-.2-.3-.7-1.6-2-5.2-4.1-10.3-6.1-15.4-10.2-26.2-10.2-26.2-21.2-31.4-1-1-1-1-1.3-4l.3-3c3.2-2.3 6.2-2.3 10.1-2.3M3105 2149c1.9 2.2 2.3 3.7 2.3 6.6v32.7c-.1 5.1 0 10.2 0 15.3v27.5c-.1 6.9-.1 6.9-2.3 9.9-2.4.9-2.4.9-5 1-2.1-1.2-2.1-1.2-4-3-.5-2.5-.5-2.5-.5-5.4-.1-1.1-.1-2.2-.1-3.3v-1.8c0-3.1-.1-6.1-.2-9.2v-1.9c-1-40.9-1-40.9-11.6-51.9-2.5-1.8-4.7-2.5-7.7-3-3.7.6-5.2 1.9-7.9 4.5-5 10.5-3.4 24.3-3.4 35.5v207.7c-.1 30.8-.1 30.8 7.4 39.5 1 1.3 1 1.3 1 3.3.9.3 1.8.5 2.8.8 3 1.1 4.9 2 7.2 4.2 1.1 2.4 1.1 3.6.5 6.1-1.5 1.9-1.5 1.9-3.1 2.3-2.3.2-4.6.2-6.9.2-.8 0-1.7 0-2.6.1-2.7 0-5.5 0-8.3.1h-5.4c-4.5.1-9 .2-13.5.2-2.7 0-5.5 0-8.3.1h-5.3c-.4 0-.4 0-2.5.1-4.9 0-8.9-.6-13.6-2.2l-1-1c.1-4.5.1-4.5 1-7 2.8-1.7 2.8-1.7 4.4-2.3 5.5-2.3 8.1-6.6 10.6-11.7 1-2.6 1.6-5.3 2.2-8.1.2-.7.4-1.5.5-2.3 2-9.9 1.8-19.7 1.8-29.7v-6.5c0-5.2 0-10.4-.1-15.6v-50.9c-.1-10.5-.1-21-.1-31.5v-9.8c0-10.7 0-21.4-.1-32.1v-34.2c0-10.1-.2-20.1-.6-30.2-.1-.8-.1-1.6-.1-2.4-.5-8.8-2.3-17.2-4.5-25.7-1.6-.3-3.1-.5-4.7-.8-.9-.1-1.7-.2-2.6-.4-3.7.3-5.1 1.6-7.7 4.2-1.7 2.6-1.7 2.6-3.2 5.6-.5.9-1 1.9-1.5 2.8-3.4 8.2-3.6 17.5-4 26.3-.1 2.2-.2 4.4-.3 6.5-.2 3.4-.3 6.8-.5 10.2-.1 3.4-.3 6.7-.4 10-.1 1-.1 2-.1 3.1-.4 7-.4 7-3.4 9.7-3 .9-4.6.8-7.6-.2-1.8-1.8-1.4-5-1.5-7.5-.1-.7-.1-1.3-.2-2-.4-7.9-.5-15.7-.5-23.6 0-.7 0-1.5-.1-2.3v-12.3c0-4.2 0-8.4-.1-12.6v-9.7c0-1.6 0-3.2-.1-4.7v-8.4c0-3.1.4-4.8 2.1-7.3 3.1-2.1 5-2.1 8.7-2 .3 0 .3 0 1.9.1h4c3 .1 5.9.1 8.9.2h4.7c7.9.1 15.7 0 23.6-.1 2.4-.1 4.7-.1 7.1-.1l19.1-.3c4-.1 8-.2 12-.2 1.5-.1 2.9-.1 4.4-.1 2.1-.1 4.2-.1 6.2-.1.6 0 1.2 0 1.9-.1 3.7 0 7.2.2 10.9 1.1"/><path fill="#b80000" d="M2235 1817c1 .3 2 .7 3 1 .2 31 .2 31-.5 42.4-.5 9-.6 18-.6 27v1.9c-.1 8.7.1 17.4.5 26 .6 18.8.8 37.6.8 56.4v7.8c0 26-.6 51.9-1.8 77.9-.5 10.8-.7 21.6-.9 32.4-.3 16.6-.9 33.3-1.6 49.9-.7 14.9-1.2 29.7-1.5 44.5-.1 9.8-.4 19.4-.9 29.1 0 .5 0 .5-.1 2.7-.2 3.6-.4 7.2-.5 10.8-.7 12.9-1 25.7-1 38.6 0 2.5-.1 5-.1 7.4v22.5c0 3.1 0 6.2-.1 9.3 0 1.5 0 3 .1 4.4 0 7.6 0 13.6-5.3 19.6-1.5 1.4-1.5 1.4-3.9 2.8-6.7-1.1-10.7-8.8-14.4-13.9-3.9-5.6-7.7-11.3-11.5-17q-4.05-6.15-8.4-12.3c-1.1-1.5-2.2-3.1-3.3-4.7-.9-1.4-1.9-2.8-2.9-4.2-12-18-17.2-37.7-17.3-59.2v-3.9c0-2.9 0-5.7-.1-8.5v-13.6c-.1-8.9-.1-17.9-.2-26.8-.1-12.6-.1-25.3-.2-37.9v-7.1c-.1-17.7-.3-35.3-.6-52.9v-2.4c-.1-7.6-.3-15.2-.4-22.8-.5-24.5-.5-24.5-.2-33.8.1-1.1.1-2.2.1-3.4 1.6-6.1 6.7-9.8 11.8-13 2.3-.8 2.3-.8 4-1 5.1 5.1 2.1 25 2.1 32.4 0 5.3 0 10.5-.1 15.8v14.8c0 13.2 0 26.4-.1 39.5-.2 71.6-.2 71.6 1 94.4 0 .8.1 1.5.1 2.3 1.4 26.1 5 52.7 18 75.8.5.8.9 1.7 1.4 2.6 3.5 5.9 7.4 11.6 11.3 17.3.2.3.2.3 1.2 1.9.4.5.8 1.1 1.2 1.6.9 1.6.9 1.6 1.9 4.6.7.3 1.3.7 2 1v-2c0-8.4-.1-16.7-.1-25.1v-2.1c0-21.3.2-42.7.8-64 0-.5 0-.5.1-2.9v-2.2c.2-5.5.2-11 .2-16.4 0-13.1.2-26.1.4-39.2 0-2.1 0-4.2.1-6.4l.3-22.3.3-20.6.3-17.8c0-3.6.1-7.1.1-10.6.2-14 .5-28 1.2-42 .4-9.6.4-19.2.4-28.9v-31.6c.1-17.1.1-34.3-.7-51.4-.6-12.6-.8-25.1-.9-37.7 0-3.8-.1-7.6-.2-11.4 0-3.8-.1-7.5-.1-11.3 0-1.4 0-2.8-.1-4.2-.2-8.7.7-14.3 6.9-20.9l2-2c1-1.2 1.9-2.4 2.9-3.6 2.1-2.4 2.1-2.4 4.1-3.4"/><path fill="#060606" d="M3460.074 1870.762c4.8 5.6 5.5 11.3 5.4 18.5 0 .4 0 .4-.1 2.5-.4 15.2-8.7 27-19.4 37.2h-2v2q-2.85 2.55-6 4.8l-3.6 2.7c-.3.2-.3.2-1.8 1.3-1.2 1-2.5 2-3.7 2.9-5.9 4.9-12.9 8-19.8 11.3-2 1-4 2-6 2.9-8.2 4-16.4 7.2-25.1 10.1-.8.3-1.5.6-2.4.9l-6.6 2.1c-1 .4-2.1.7-3.1 1-14.8 4.6-29.5 6.4-44.9 4-.2.6-.5 1.2-.8 1.8-1.2 2.3-2.5 4.4-3.9 6.6-3.5 5.8-6.5 11.9-9.5 18-1.1 2.4-2.3 4.7-3.5 7.1-6.8 13.5-11.8 28.2-8.1 43.4 2.1 5.4 5.7 8.6 10.8 11.1 2.4.4 4.4.7 6.8.8.6 0 1.2.1 1.9.1 20.5.9 40.8-10.5 57.3-21.9l2.7-1.8c10.1-7.2 19.5-15.4 28.6-23.8 1.7-1.4 1.7-1.4 3.7-1.4.4-1 .7-1.9 1-3h2c.4-1 .7-1.9 1-3 1.7-1.6 1.7-1.6 3.8-3.3 2.5-2.1 4.9-4.2 7.1-6.6 2.1-2.1 2.1-2.1 4.1-2.1v-2c1.2-.9 2.3-1.8 3.5-2.6 2.5-2.2 4.5-4.6 6.6-7.1 2-2.4 4.2-4.7 6.3-7.1 7.4-8.2 14.2-16.8 20.9-25.5.6-.7 1.2-1.5 1.9-2.3 2.4-3.2 4.8-6.3 7-9.7 1.7-2.5 3.3-4.2 5.6-6 .3-.3.3-.3 1.8-1.6.5-.3 1-.7 1.4-1.1 1.5 1.4 1.5 1.4 3 3 .3 7.2-4.1 12.3-8 18-.2.4-.2.4-1.5 2.3-2.9 4.6-6 8.9-9.2 13.3-.2.3-.2.3-1.2 1.6s-2 2.6-3.1 3.8h-2c-.7 1.4-1.3 2.7-2 4l-3.3 4.5c-.7.8-1.3 1.5-1.9 2.3s-1.2 1.5-1.8 2.2c-.4.6-.8 1.2-1.3 1.7q-1.2 1.8-2.7 3.3h-2c-.7 1.4-1.3 2.7-2 4-1 1.4-2.1 2.7-3.3 4-.6.6-1.1 1.3-1.7 1.9-1.8 2-3.6 3.8-5.5 5.7-1.7 1.7-3.5 3.4-5.2 5.2-1.3 1.4-2.7 2.7-4.1 4.1-.7.7-1.3 1.4-2 2.1q-6 6-12.3 11.4c-2 1.7-3.8 3.5-5.7 5.2-23.8 21.1-56.8 43.7-90 42.3-14.4-.9-26.1-5.1-36-15.8-11.5-13.9-11.9-30.3-10.5-47.4 2.6-23.3 15.5-44.3 29.3-62.7.4-.5.9-1.1 1.3-1.7 4.9-6.5 10-12.8 15.6-18.8 1.6-1.8 3-3.3 4.1-5.5h2c.4-1 .7-1.9 1-3h2c.4-1 .7-1.9 1-3h2c.4-1 .7-1.9 1-3 1.6-1.4 3.2-2.8 4.9-4.1l3-2.4c.6-.4 1.1-.8 1.6-1.2 2.3-1.9 4.6-3.8 6.8-5.7 5.8-4.8 11.9-9.1 18-13.4 1.2-.8 2.4-1.6 3.5-2.5 5.2-3.7 10.6-6.7 16.2-9.7.9-.5 1.9-1 2.8-1.5 22.2-11.6 56.9-23.9 78.3-5.7m-65.8 18c-.2.2-.2.2-1.3 1.2v2c-1.3.7-2.6 1.4-4 2-1.7 1.5-3.3 3-5 4.5-4.7 4.3-4.7 4.3-7.3 6.2-.5.4-1.1.9-1.7 1.3v2c-1 .4-2 .7-3 1v2c-1 .4-2 .7-3 1v2c-1 .4-2 .7-3 1-1.4 1.5-1.4 1.5-3 3.4-2.1 2.4-4.2 4.9-6.5 7.3-5.3 5.6-10.2 11.4-14.9 17.7-.3.3-.3.3-1.5 1.9-2.7 3.6-5.1 7.3-7.2 11.2-.9 1.5-.9 1.5-2 3.1-1.2 1.9-1 3.3-.9 5.4 3.8-.5 7.6-1.1 11.4-1.7 1.3-.2 2.7-.4 4.1-.6 18.1-3.1 38.3-11.6 52.9-22.5 1.6-1.2 3.3-2.1 5-3 4.6-2.6 8.5-5.9 12.6-9.2.8-.6 1.7-1.2 2.5-1.9 12.5-9.7 25.9-22 29.5-38.1.6-4.9.6-8.6-2-13-13.5-13.5-40.2 5.2-51.7 13.8"/><path fill="#70c4c9" d="M1349.125 2148.375c.9.1 1.8.1 2.7.2 2.2.4 2.2.4 4.2 2.4.4 2.9.4 2.9 0 6-2.1 2-2.1 2-4.9 3.7-3.1 1.9-5.2 3.2-7.1 6.3h-2c-.1.5-.3 1.1-.4 1.6-.5 1.8-1 3.7-1.6 5.5-3.6 12-3.6 23.7-3.5 36.2 0 2.3-.1 4.6-.1 6.9v36.3c0 12.3 0 24.7.1 37v31.6c-.1 12.3-.1 24.6-.1 36.9v36.1q.15 4.2 0 8.4c0 10.7.3 21 2.3 31.5.1.8.3 1.6.4 2.4 1.4 6.5 4 12.4 9.3 16.5.4.2.4.2 2.3 1.3 4.1 2.5 4.1 2.5 5.5 6.1-.2 2.7-.2 2.7-2.2 4.7-2.2.2-4.2.3-6.4.3h-12.9c-3.2 0-6.3-.1-9.4-.1h-34c-4.2-.1-4.2-.1-5.3-1.2-.9-4.4-.9-4.4 0-7 2.2-1.9 4.4-3.3 6.9-4.7 2.1-1.3 2.1-1.3 3.1-3.3h2c5.6-9 6.1-18.9 6.1-29.2v-52.9c.1-13.7.1-27.4.1-41.1v-137.3c0-8.7-1.4-18.3-7.6-25-3-2.5-6.2-4.5-9.6-6.5-1-1-1-1-1.3-3.9.1-1 .2-2 .3-3.1 2.6-1.7 4.8-2.2 8-2.3.8 0 1.6 0 2.4-.1h5.2c2.8-.1 5.6-.2 8.4-.2 1.8 0 3.7-.1 5.5-.1 26-.6 26-.6 33.6.1"/><path fill="#b80000" d="M2570.313 530.875c5.8 2.4 9.8 7.7 12.7 13.1 1 2.7 1.8 5.4 2.6 8.1.2.7.4 1.4.7 2.1.6 2 1.1 3.9 1.7 5.8.2.7.4 1.3.5 2 .5 2.2.6 4.3.6 6.6 0 .9.1 1.7.1 2.6v5.5c.2 7.4.2 7.4 3.2 10.3.5.3.5.3 2.6 2 5.5 8.9 6.5 19.1 6.4 29.3 0 1.8.1 3.6.1 5.4 0 7.6-1.2 13.5-4.5 20.3-.6 1.4-1.2 2.7-1.8 4.1-2.4 4.7-5.6 9.1-9.2 12.9h-2v2c-1.7 1.8-1.7 1.8-3.9 3.7-.7.6-1.4 1.2-2.2 1.9-1.9 1.4-1.9 1.4-3.9 1.4v2c-17.7 15.4-40.7 22.6-63 28-1.3.3-2.6.7-3.9 1-7.3 1.8-14.7 2.9-22.1 4-2.2.4-4.5.7-6.7 1.1-1 .1-1.9.3-2.9.5-2.4.4-2.4.4-4.4 1.4-2.9.4-5 .6-7.6-.9-1.3-1.3-1.3-1.3-3.4-4.1.6-9.7 12-18.2 18.7-24.7 2.8-2.7 5.6-5.5 8.3-8.3 6.4-6.8 13.6-12.3 21-18l5.1-3.9c6-4.6 12-9.1 18-13.7 1.9-1.4 3.7-2.8 5.5-4.2.5-.4 1-.8 1.6-1.2 1.9-1.5 3.8-3 5.5-4.7 1.3-1.3 1.3-1.3 3.3-1.3v-2l3.3-3.3c6.7-6.6 12.4-13.3 16.7-21.7.3-.6.7-1.3 1-1.9 4.2-9.3 2.4-19.6-.8-28.9-1.2-3.2-2.5-6.3-3.9-9.5-4.4-10.4-4.4-10.4-2.6-15.8 2.1-4.6 4.2-8.7 9.6-9m11.7 71.1c-.3.5-.5.9-.8 1.4-3.1 5.1-6.6 9.9-10.3 14.6-2.9 3.8-2.9 3.8-2.9 6-.5.2-.5.2-3 1v2c-1.3.7-2.7 1.4-4 2-2.1 1.6-4.1 3.4-6.1 5.1-5.7 4.8-5.7 4.8-7.9 5.9v2c-1.7 1-1.7 1-4 2-1.4.8-2.9 1.7-4.3 2.5-.3.2-.3.2-2.1 1.3-.5.4-1.1.8-1.6 1.2v2c-1.8 1-1.8 1-4 2-6.1 3.6-11.3 7.9-16.5 12.7-4 3.7-8.3 7-12.5 10.3-2.1 1.6-4.1 3.3-6.1 4.9-.3.2-.3.2-1.5 1.2-1.2.9-2.3 1.9-3.4 2.9v2c-1.3.7-2.7 1.4-4 2-1.3 1.7-1.3 1.7-2 3 3.6.2 5.9-.2 9.1-1.7 4.9-2 9.9-3.4 15-4.6 14.3-3.7 27.3-9.1 40.4-15.9 1.2-.6 2.3-1.2 3.5-1.8v-2c.7-.2 1.4-.5 2.1-.8 3.6-1.5 6.2-3.6 9.2-6.2.6-.5 1.1-1 1.7-1.5 10.3-9 18.6-20.2 19.6-34.2.1-.7.1-1.3.1-2 .1-.7.1-1.4.2-2.1.2-5.5.1-11-1.9-16.2-.3-.1-.3-.1-2-1m-408.887 1291.451c.3.1.3.1 1.9.6 1.3 13.1 1.9 26.2 2.5 39.4.1 4.2.3 8.3.6 12.5.2 4.1.4 8.1.5 12.2.1 1.5.2 3.1.3 4.6.5 6.7.8 12.5-3.5 18-5.7 6.4-5.7 6.4-9.4 8.3-2.9-.2-2.9-.2-5-1-1.3-10.7-1.3-21.3-1.5-32-.1-3.7-.2-7.4-.2-11.2-.1-.9-.1-1.8-.1-2.7q-.3-10.5-.9-21c-.6-9.6.6-15.7 6.8-23.2 5-5.1 5-5.1 8-4.5"/></svg>