<svg xmlns="http://www.w3.org/2000/svg" width="1505.000000pt" height="1045.000000pt" viewBox="0 0 1505.000000 1045.000000">
<g transform="translate(0.000000,1045.000000) scale(0.100000,-0.100000)" fill="#060606" stroke="none">
<path d="M4955 5200 c-169 -36 -325 -154 -427 -322 -65 -105 -46 -107 34 -3
96 124 235 217 384 255 140 36 232 22 302 -47 23 -23 42 -49 42 -57 0 -9 -24
-20 -67 -30 -108 -27 -198 -64 -276 -115 -86 -57 -123 -91 -163 -151 -93 -137
-61 -249 79 -281 44 -9 64 -8 117 5 83 21 133 51 204 121 104 102 158 212 172
348 l7 67 91 0 c97 0 206 -19 253 -43 l27 -15 -35 -15 c-56 -23 -227 -134
-304 -198 -146 -120 -232 -224 -351 -427 -177 -301 -250 -406 -364 -526 -171
-179 -328 -253 -520 -244 -118 6 -190 32 -260 95 -279 251 -32 791 407 889
138 30 292 -6 370 -88 104 -108 76 -290 -68 -443 -34 -37 -36 -45 -8 -45 31 0
131 106 165 175 26 53 29 70 29 155 0 86 -3 100 -27 141 -48 82 -137 139 -257
165 -293 62 -624 -86 -768 -343 -91 -164 -105 -358 -35 -502 138 -283 629
-350 955 -129 90 60 224 200 288 298 31 47 86 141 124 210 l68 125 79 -1 c68
-1 82 -4 103 -24 35 -33 53 -101 66 -253 23 -279 84 -401 241 -484 48 -26 62
-28 158 -28 119 1 195 23 250 75 17 16 46 34 65 40 50 16 139 77 234 160 64
56 82 67 77 49 -34 -109 -31 -165 9 -205 29 -29 90 -32 138 -8 36 19 150 104
155 116 2 5 7 6 12 3 4 -2 3 -22 -2 -42 -13 -51 2 -89 45 -109 31 -15 39 -15
89 0 31 9 82 35 114 59 60 44 223 183 282 240 30 29 42 57 25 57 -12 0 -61
-34 -76 -52 -12 -15 -159 -138 -232 -195 -55 -42 -129 -77 -149 -70 -27 10
-18 51 23 113 34 51 212 269 305 374 31 36 45 53 190 228 43 51 84 96 92 99 8
3 14 10 14 15 0 10 214 261 368 433 l81 90 -71 3 c-85 4 -76 10 -207 -153 -53
-66 -134 -165 -181 -220 -47 -55 -107 -127 -135 -160 -27 -33 -62 -73 -77 -90
-15 -16 -53 -60 -84 -97 -31 -38 -61 -68 -66 -68 -5 0 -7 4 -4 9 3 5 -4 20
-15 35 -17 22 -28 26 -73 26 -68 0 -145 -23 -226 -67 -91 -49 -161 -108 -271
-226 -167 -178 -333 -305 -429 -326 -66 -15 -88 -13 -110 9 -38 38 -19 122 52
233 28 44 33 47 72 47 58 0 183 33 248 65 144 73 206 153 174 228 -17 43 -44
52 -119 44 -139 -15 -375 -182 -470 -333 -28 -46 -57 -133 -57 -176 0 -78 61
-148 129 -148 95 0 -48 -72 -155 -78 -176 -10 -255 85 -289 350 -9 68 -21 143
-26 167 -17 75 -60 154 -116 210 -30 29 -53 54 -51 55 2 2 50 17 108 35 286
90 463 248 478 426 4 56 1 72 -22 119 -15 31 -43 69 -63 85 l-35 29 82 31 c45
18 95 34 111 38 16 3 32 10 35 15 8 13 -33 4 -146 -30 -101 -30 -118 -31 -193
-3 -75 28 -205 44 -283 36 l-62 -6 -10 30 c-33 94 -129 151 -266 157 -45 2
-99 -1 -121 -6z m345 -270 c0 -81 -44 -183 -127 -292 -79 -104 -168 -158 -260
-158 -106 0 -153 55 -132 152 23 102 120 197 282 273 58 28 194 72 230 74 4 1
7 -21 7 -49z m498 -47 c52 -74 53 -162 3 -260 -67 -133 -169 -224 -348 -311
-95 -46 -100 -47 -186 -46 -48 1 -90 4 -94 7 -8 9 81 160 156 268 34 48 103
127 154 176 89 86 243 193 278 193 10 0 26 -12 37 -27z m640 -715 c26 -26 13
-59 -46 -117 -72 -70 -203 -139 -282 -148 l-54 -6 34 44 c125 159 301 274 348
227z m576 -8 c22 -8 26 -16 26 -49 0 -35 -8 -50 -62 -113 -108 -125 -320 -339
-387 -389 -70 -54 -113 -63 -131 -29 -54 102 284 500 489 575 20 8 37 14 38
14 1 1 13 -3 27 -9z"/>
<path d="M8943 5195 c-114 -32 -247 -117 -318 -203 -49 -60 -121 -180 -112
-188 3 -3 24 23 48 58 124 185 323 308 496 308 63 0 157 -31 191 -62 28 -27
55 -75 48 -87 -3 -5 -28 -11 -56 -15 -140 -19 -322 -115 -421 -224 -63 -68
-88 -121 -89 -182 0 -98 65 -146 187 -138 158 10 303 119 388 291 39 79 48
108 53 166 l5 71 97 0 c102 0 200 -14 238 -34 22 -12 18 -16 -87 -74 -296
-163 -424 -299 -626 -662 -265 -476 -510 -690 -790 -690 -181 0 -326 85 -393
229 -23 48 -27 69 -26 146 0 105 28 188 96 293 58 89 180 200 270 246 99 50
232 74 330 58 276 -42 340 -275 138 -504 -62 -71 -54 -87 21 -40 52 34 91 82
127 160 22 47 26 72 26 137 1 70 -3 87 -29 133 -67 122 -198 178 -400 170 -85
-4 -128 -11 -190 -32 -205 -69 -366 -218 -435 -401 -33 -86 -40 -251 -14 -332
27 -86 89 -170 162 -220 258 -177 665 -114 924 142 100 100 158 184 261 383
44 87 82 159 84 161 2 3 9 -1 15 -7 7 -7 38 -12 69 -12 50 0 61 -4 87 -30 42
-42 62 -107 73 -245 14 -166 35 -279 65 -341 79 -166 297 -232 473 -142 37 19
71 45 80 60 9 15 36 42 61 59 25 17 84 72 132 121 49 50 89 84 93 79 3 -6 26
-11 51 -11 24 0 44 -2 44 -4 0 -3 -9 -20 -20 -39 -29 -49 -36 -116 -15 -156
33 -64 136 -87 245 -55 76 23 171 118 194 194 22 74 20 119 -9 228 -39 148
-37 160 43 245 105 112 126 142 112 166 -6 12 -13 21 -17 21 -3 0 -27 -16 -53
-35 -50 -37 -102 -107 -121 -166 -12 -35 -167 -226 -236 -290 -58 -55 -180
-98 -198 -70 -3 6 17 44 45 85 102 151 124 237 76 293 -22 25 -30 28 -83 26
-196 -4 -477 -238 -543 -451 -25 -79 -25 -115 -1 -169 22 -47 44 -62 110 -72
l46 -8 -55 -26 c-78 -36 -128 -42 -195 -23 -68 20 -116 66 -139 132 -9 26 -21
100 -26 163 -23 259 -61 353 -180 442 l-48 36 41 12 c183 52 361 147 459 244
76 74 110 140 116 219 5 71 -23 135 -79 180 -21 17 -39 34 -39 38 0 3 41 19
90 35 50 16 90 32 90 37 0 13 -13 10 -115 -23 l-96 -30 -52 19 c-79 30 -182
44 -285 40 l-94 -3 -14 40 c-17 50 -79 110 -130 125 -64 19 -212 22 -271 5z
m364 -274 c-9 -109 -116 -278 -228 -363 -70 -52 -127 -71 -194 -66 -80 7 -110
38 -109 111 1 31 10 69 22 92 24 47 106 127 178 173 85 54 240 110 308 111
l29 1 -6 -59z m504 -48 c28 -44 30 -53 26 -118 -2 -40 -11 -85 -22 -105 -100
-193 -387 -374 -584 -369 -39 1 -71 5 -71 9 0 9 58 114 103 185 68 108 207
266 292 331 52 39 188 114 207 114 11 0 31 -20 49 -47z m587 -685 c17 -17 15
-71 -3 -115 -9 -21 -42 -63 -75 -94 -44 -43 -61 -67 -66 -96 -6 -30 -28 -59
-112 -146 -145 -148 -214 -191 -250 -155 -65 65 117 361 325 530 103 84 152
105 181 76z m325 -203 c11 -153 -21 -256 -108 -353 -74 -82 -161 -101 -205
-44 -24 30 -26 72 -5 112 17 33 31 36 70 18 19 -8 31 -8 50 0 36 16 36 75 0
98 l-26 17 63 66 c35 36 81 90 103 118 22 29 43 52 46 53 3 0 9 -38 12 -85z"/>
<path d="M11343 4219 c-102 -32 -245 -140 -338 -254 -18 -22 -50 -71 -71 -109
-32 -59 -38 -80 -42 -145 -3 -67 -1 -80 20 -111 82 -122 260 -84 461 100 97
89 237 262 237 293 0 20 -23 0 -75 -68 -68 -89 -229 -244 -300 -289 -232 -147
-335 -47 -192 187 27 45 31 47 73 47 68 0 129 18 229 65 150 72 223 163 199
247 -17 60 -88 73 -201 37z m147 -29 c25 -47 -59 -150 -177 -216 -65 -37 -168
-74 -204 -74 -18 0 -17 5 12 48 50 73 158 181 223 223 69 45 128 53 146 19z"/>
</g>
<g transform="translate(0.000000,1045.000000) scale(0.100000,-0.100000)" fill="#6cc2c8" stroke="none">
<path d="M8622 8540 c0 -19 2 -27 5 -17 2 9 2 25 0 35 -3 9 -5 1 -5 -18z"/>
<path d="M8572 8510 c0 -14 2 -19 5 -12 2 6 2 18 0 25 -3 6 -5 1 -5 -13z"/>
<path d="M6260 8397 c0 -2 15 -16 33 -33 l32 -29 -29 33 c-28 30 -36 37 -36
29z"/>
<path d="M8244 8168 l-19 -23 23 19 c21 18 27 26 19 26 -2 0 -12 -10 -23 -22z"/>
<path d="M7635 8120 c10 -11 20 -20 23 -20 3 0 -3 9 -13 20 -10 11 -20 20 -23
20 -3 0 3 -9 13 -20z"/>
<path d="M7059 8103 l-24 -28 28 24 c15 14 27 26 27 28 0 8 -8 1 -31 -24z"/>
<path d="M8332 7895 c0 -16 2 -22 5 -12 2 9 2 23 0 30 -3 6 -5 -1 -5 -18z"/>
<path d="M6722 7870 c0 -14 2 -19 5 -12 2 6 2 18 0 25 -3 6 -5 1 -5 -13z"/>
<path d="M6722 7725 c0 -16 2 -22 5 -12 2 9 2 23 0 30 -3 6 -5 -1 -5 -18z"/>
<path d="M8144 7628 l-29 -33 33 29 c30 28 37 36 29 36 -2 0 -16 -15 -33 -32z"/>
<path d="M6797 7493 c-10 -19 -17 -63 -8 -63 4 0 11 14 15 32 6 31 3 47 -7 31z"/>
<path d="M8012 7440 c0 -14 2 -19 5 -12 2 6 2 18 0 25 -3 6 -5 1 -5 -13z"/>
<path d="M9324 7408 l-19 -23 23 19 c21 18 27 26 19 26 -2 0 -12 -10 -23 -22z"/>
<path d="M6884 7258 l-29 -33 33 29 c30 28 37 36 29 36 -2 0 -16 -15 -33 -32z"/>
<path d="M9044 7168 l-19 -23 23 19 c21 18 27 26 19 26 -2 0 -12 -10 -23 -22z"/>
<path d="M8639 6893 l-24 -28 28 24 c15 14 27 26 27 28 0 8 -8 1 -31 -24z"/>
<path d="M8452 6875 c0 -16 2 -22 5 -12 2 9 2 23 0 30 -3 6 -5 -1 -5 -18z"/>
<path d="M6482 6865 c0 -16 2 -22 5 -12 2 9 2 23 0 30 -3 6 -5 -1 -5 -18z"/>
<path d="M8182 6870 c0 -14 2 -19 5 -12 2 6 2 18 0 25 -3 6 -5 1 -5 -13z"/>
<path d="M8547 6789 c-4 -16 -3 -18 9 -8 7 6 11 15 8 20 -8 13 -11 11 -17 -12z"/>
<path d="M7243 6530 c0 -30 2 -43 4 -27 2 15 2 39 0 55 -2 15 -4 2 -4 -28z"/>
<path d="M7542 6500 c0 -19 2 -27 5 -17 2 9 2 25 0 35 -3 9 -5 1 -5 -18z"/>
<path d="M5683 6453 c9 -2 25 -2 35 0 9 3 1 5 -18 5 -19 0 -27 -2 -17 -5z"/>
<path d="M5584 6429 c-3 -6 -2 -15 3 -20 5 -5 9 -1 9 11 0 23 -2 24 -12 9z"/>
<path d="M7072 6350 c0 -14 2 -19 5 -12 2 6 2 18 0 25 -3 6 -5 1 -5 -13z"/>
<path d="M5865 6240 c21 -22 41 -40 44 -40 3 0 -13 18 -34 40 -21 22 -41 40
-44 40 -3 0 13 -18 34 -40z"/>
<path d="M8354 5718 l-19 -23 23 19 c21 18 27 26 19 26 -2 0 -12 -10 -23 -22z"/>
<path d="M8334 5628 l-29 -33 33 29 c30 28 37 36 29 36 -2 0 -16 -15 -33 -32z"/>
<path d="M6370 5555 c30 -30 57 -55 59 -55 3 0 -19 25 -49 55 -30 30 -57 55
-59 55 -3 0 19 -25 49 -55z"/>
<path d="M6335 5510 c10 -11 20 -20 23 -20 3 0 -3 9 -13 20 -10 11 -20 20 -23
20 -3 0 3 -9 13 -20z"/>
<path d="M6800 5477 c0 -2 15 -16 33 -33 l32 -29 -29 33 c-28 30 -36 37 -36
29z"/>
<path d="M5033 5213 c9 -2 25 -2 35 0 9 3 1 5 -18 5 -19 0 -27 -2 -17 -5z"/>
<path d="M7233 5213 c9 -2 25 -2 35 0 9 3 1 5 -18 5 -19 0 -27 -2 -17 -5z"/>
<path d="M9033 5213 c15 -2 39 -2 55 0 15 2 2 4 -28 4 -30 0 -43 -2 -27 -4z"/>
<path d="M4958 5203 c6 -2 18 -2 25 0 6 3 1 5 -13 5 -14 0 -19 -2 -12 -5z"/>
<path d="M8958 5203 c6 -2 18 -2 25 0 6 3 1 5 -13 5 -14 0 -19 -2 -12 -5z"/>
<path d="M9148 5203 c6 -2 18 -2 25 0 6 3 1 5 -13 5 -14 0 -19 -2 -12 -5z"/>
<path d="M5201 5186 c2 -2 15 -9 29 -15 24 -11 24 -11 6 3 -16 13 -49 24 -35
12z"/>
<path d="M9003 5163 c9 -2 25 -2 35 0 9 3 1 5 -18 5 -19 0 -27 -2 -17 -5z"/>
<path d="M9088 5163 c6 -2 18 -2 25 0 6 3 1 5 -13 5 -14 0 -19 -2 -12 -5z"/>
<path d="M9270 5167 c0 -2 15 -16 33 -33 l32 -29 -29 33 c-28 30 -36 37 -36
29z"/>
<path d="M5038 5143 c17 -2 47 -2 65 0 17 2 3 4 -33 4 -36 0 -50 -2 -32 -4z"/>
<path d="M9218 5120 c29 -18 72 -73 72 -92 0 -5 -10 -9 -22 -9 -19 -1 -20 -2
-4 -6 30 -8 40 11 22 45 -17 32 -71 82 -89 82 -7 0 3 -9 21 -20z"/>
<path d="M5240 5085 c13 -14 26 -25 28 -25 3 0 -5 11 -18 25 -13 14 -26 25
-28 25 -3 0 5 -11 18 -25z"/>
<path d="M4644 5038 l-19 -23 23 19 c12 11 22 21 22 23 0 8 -8 2 -26 -19z"/>
<path d="M9354 5040 c1 -8 10 -16 21 -17 15 -1 15 0 3 3 -9 3 -19 11 -21 17
-2 7 -3 5 -3 -3z"/>
<path d="M5277 5029 c4 -13 8 -18 11 -10 2 7 -1 18 -6 23 -8 8 -9 4 -5 -13z"/>
<path d="M9453 5033 c15 -2 37 -2 50 0 12 2 0 4 -28 4 -27 0 -38 -2 -22 -4z"/>
<path d="M9996 5025 c4 -8 8 -15 10 -15 2 0 4 7 4 15 0 8 -4 15 -10 15 -5 0
-7 -7 -4 -15z"/>
<path d="M5363 5023 c9 -2 25 -2 35 0 9 3 1 5 -18 5 -19 0 -27 -2 -17 -5z"/>
<path d="M5533 5023 c9 -2 25 -2 35 0 9 3 1 5 -18 5 -19 0 -27 -2 -17 -5z"/>
<path d="M8660 4985 c-24 -25 -42 -45 -39 -45 3 0 25 20 49 45 24 25 42 45 39
45 -3 0 -25 -20 -49 -45z"/>
<path d="M9588 5023 c6 -2 18 -2 25 0 6 3 1 5 -13 5 -14 0 -19 -2 -12 -5z"/>
<path d="M8614 4988 l-19 -23 23 19 c21 18 27 26 19 26 -2 0 -12 -10 -23 -22z"/>
<path d="M4620 4945 c-24 -25 -42 -45 -39 -45 3 0 25 20 49 45 24 25 42 45 39
45 -3 0 -25 -20 -49 -45z"/>
<path d="M5408 4983 c28 -2 76 -2 105 0 28 2 5 3 -53 3 -58 0 -81 -1 -52 -3z"/>
<path d="M9361 4943 c1 -53 6 -49 11 10 2 20 0 37 -4 37 -4 0 -8 -21 -7 -47z"/>
<path d="M9548 4983 c6 -2 18 -2 25 0 6 3 1 5 -13 5 -14 0 -19 -2 -12 -5z"/>
<path d="M9060 4960 c-8 -5 -10 -10 -5 -10 6 0 17 5 25 10 8 5 11 10 5 10 -5
0 -17 -5 -25 -10z"/>
<path d="M5680 4950 c8 -5 20 -10 25 -10 6 0 3 5 -5 10 -8 5 -19 10 -25 10 -5
0 -3 -5 5 -10z"/>
<path d="M9820 4951 c0 -5 8 -15 18 -22 15 -12 16 -12 5 2 -7 9 -10 19 -6 22
3 4 1 7 -5 7 -7 0 -12 -4 -12 -9z"/>
<path d="M9302 4915 c0 -16 2 -22 5 -12 2 9 2 23 0 30 -3 6 -5 -1 -5 -18z"/>
<path d="M5090 4920 c-8 -5 -10 -10 -5 -10 6 0 17 5 25 10 8 5 11 10 5 10 -5
0 -17 -5 -25 -10z"/>
<path d="M7879 4913 l23 -5 -28 -31 -29 -32 33 29 c39 36 40 46 5 45 -26 -2
-26 -2 -4 -6z"/>
<path d="M5352 4890 c0 -14 2 -19 5 -12 2 6 2 18 0 25 -3 6 -5 1 -5 -13z"/>
<path d="M7719 4883 l-24 -28 28 24 c15 14 27 26 27 28 0 8 -8 1 -31 -24z"/>
<path d="M9004 4884 c-18 -14 -18 -15 4 -4 12 6 22 13 22 15 0 8 -5 6 -26 -11z"/>
<path d="M9584 4874 c-18 -14 -18 -15 4 -4 12 6 22 13 22 15 0 8 -5 6 -26 -11z"/>
<path d="M5896 4845 c24 -39 24 -40 24 -28 0 6 -9 21 -21 34 l-20 24 17 -30z"/>
<path d="M8514 4839 c-18 -36 -6 -61 17 -32 13 16 12 17 -3 4 -22 -17 -23 -9
-3 29 9 17 13 30 11 30 -3 0 -13 -14 -22 -31z"/>
<path d="M7664 4818 l-19 -23 23 19 c12 11 22 21 22 23 0 8 -8 2 -26 -19z"/>
<path d="M8829 4803 l-34 -38 38 34 c34 33 42 41 34 41 -2 0 -19 -17 -38 -37z"/>
<path d="M7795 4788 l-40 -43 43 40 c23 21 42 40 42 42 0 8 -9 0 -45 -39z"/>
<path d="M5833 4755 c0 -27 2 -38 4 -22 2 15 2 37 0 50 -2 12 -4 0 -4 -28z"/>
<path d="M5534 4768 l-19 -23 23 19 c12 11 22 21 22 23 0 8 -8 2 -26 -19z"/>
<path d="M5316 4765 c-9 -26 -7 -32 5 -12 6 10 9 21 6 23 -2 3 -7 -2 -11 -11z"/>
<path d="M9942 4750 c0 -14 2 -19 5 -12 2 6 2 18 0 25 -3 6 -5 1 -5 -13z"/>
<path d="M5933 4720 c0 -25 2 -35 4 -22 2 12 2 32 0 45 -2 12 -4 2 -4 -23z"/>
<path d="M9354 4718 l-19 -23 23 19 c12 11 22 21 22 23 0 8 -8 2 -26 -19z"/>
<path d="M9454 4718 l-19 -23 23 19 c12 11 22 21 22 23 0 8 -8 2 -26 -19z"/>
<path d="M7192 4710 c0 -14 2 -19 5 -12 2 6 2 18 0 25 -3 6 -5 1 -5 -13z"/>
<path d="M7704 4688 l-29 -33 33 29 c17 17 32 31 32 33 0 8 -8 1 -36 -29z"/>
<path d="M9265 4638 l-40 -43 43 40 c23 21 42 40 42 42 0 8 -9 0 -45 -39z"/>
<path d="M5275 4618 l-50 -53 53 50 c48 46 57 55 49 55 -1 0 -25 -24 -52 -52z"/>
<path d="M5399 4633 l-24 -28 28 24 c15 14 27 26 27 28 0 8 -8 1 -31 -24z"/>
<path d="M5229 4623 l-24 -28 28 24 c15 14 27 26 27 28 0 8 -8 1 -31 -24z"/>
<path d="M9374 4628 l-19 -23 23 19 c12 11 22 21 22 23 0 8 -8 2 -26 -19z"/>
<path d="M7639 4613 l-24 -28 28 24 c15 14 27 26 27 28 0 8 -8 1 -31 -24z"/>
<path d="M8723 4605 c0 -22 2 -30 4 -17 2 12 2 30 0 40 -3 9 -5 -1 -4 -23z"/>
<path d="M9785 4614 c-9 -15 -12 -23 -6 -20 11 7 35 46 28 46 -3 0 -12 -12
-22 -26z"/>
<path d="M5119 4583 l-34 -38 38 34 c34 33 42 41 34 41 -2 0 -19 -17 -38 -37z"/>
<path d="M8772 4595 c0 -16 2 -22 5 -12 2 9 2 23 0 30 -3 6 -5 -1 -5 -18z"/>
<path d="M4343 4583 c15 -2 39 -2 55 0 15 2 2 4 -28 4 -30 0 -43 -2 -27 -4z"/>
<path d="M7579 4543 l-24 -28 28 24 c15 14 27 26 27 28 0 8 -8 1 -31 -24z"/>
<path d="M8347 4563 c18 -2 50 -2 70 0 21 2 7 4 -32 4 -38 0 -55 -2 -38 -4z"/>
<path d="M5144 4538 l-19 -23 23 19 c12 11 22 21 22 23 0 8 -8 2 -26 -19z"/>
<path d="M5194 4528 l-19 -23 23 19 c21 18 27 26 19 26 -2 0 -12 -10 -23 -22z"/>
<path d="M5854 4528 l-19 -23 23 19 c21 18 27 26 19 26 -2 0 -12 -10 -23 -22z"/>
<path d="M9704 4508 l-29 -33 33 29 c17 17 32 31 32 33 0 8 -8 1 -36 -29z"/>
<path d="M4373 4513 c15 -2 39 -2 55 0 15 2 2 4 -28 4 -30 0 -43 -2 -27 -4z"/>
<path d="M4765 4490 c10 -11 20 -20 23 -20 3 0 -3 9 -13 20 -10 11 -20 20 -23
20 -3 0 3 -9 13 -20z"/>
<path d="M8383 4503 c15 -2 39 -2 55 0 15 2 2 4 -28 4 -30 0 -43 -2 -27 -4z"/>
<path d="M5679 4463 l-34 -38 38 34 c34 33 42 41 34 41 -2 0 -19 -17 -38 -37z"/>
<path d="M5814 4478 l-19 -23 23 19 c12 11 22 21 22 23 0 8 -8 2 -26 -19z"/>
<path d="M7384 4478 l-19 -23 23 19 c12 11 22 21 22 23 0 8 -8 2 -26 -19z"/>
<path d="M7514 4468 l-19 -23 23 19 c12 11 22 21 22 23 0 8 -8 2 -26 -19z"/>
<path d="M9774 4468 l-19 -23 23 19 c12 11 22 21 22 23 0 8 -8 2 -26 -19z"/>
<path d="M8014 4464 c-18 -14 -18 -15 4 -4 12 6 22 13 22 15 0 8 -5 6 -26 -11z"/>
<path d="M9644 4458 l-19 -23 23 19 c12 11 22 21 22 23 0 8 -8 2 -26 -19z"/>
<path d="M8878 4453 c12 -2 32 -2 45 0 12 2 2 4 -23 4 -25 0 -35 -2 -22 -4z"/>
<path d="M5754 4428 l-19 -23 23 19 c12 11 22 21 22 23 0 8 -8 2 -26 -19z"/>
<path d="M8665 4410 c10 -11 20 -20 23 -20 3 0 -3 9 -13 20 -10 11 -20 20 -23
20 -3 0 3 -9 13 -20z"/>
<path d="M7462 4408 c-7 -7 -11 -32 -10 -57 l1 -46 4 45 c3 24 9 50 15 57 13
16 6 17 -10 1z"/>
<path d="M8761 4380 c14 -31 19 -36 19 -24 0 6 -7 19 -16 30 -14 18 -14 18 -3
-6z"/>
<path d="M3844 4368 l-19 -23 23 19 c21 18 27 26 19 26 -2 0 -12 -10 -23 -22z"/>
<path d="M7864 4348 c-36 -39 -82 -97 -58 -73 27 26 106 115 102 115 -2 0 -22
-19 -44 -42z"/>
<path d="M7284 4358 l-19 -23 23 19 c12 11 22 21 22 23 0 8 -8 2 -26 -19z"/>
<path d="M3965 4308 l-60 -63 63 60 c34 33 62 61 62 62 0 8 -10 -1 -65 -59z"/>
<path d="M10944 4362 c4 -7 2 -21 -5 -30 -12 -15 -11 -15 6 0 16 15 17 20 6
30 -11 11 -13 10 -7 0z"/>
<path d="M7379 4312 c-13 -15 -12 -16 3 -4 13 10 17 10 21 0 4 -9 6 -9 6 -1 2
20 -16 24 -30 5z"/>
<path d="M4732 4300 c0 -14 2 -19 5 -12 2 6 2 18 0 25 -3 6 -5 1 -5 -13z"/>
<path d="M9167 4313 c-10 -9 -9 -33 1 -33 4 0 8 9 8 20 0 23 0 22 -9 13z"/>
<path d="M4803 4265 c0 -27 2 -38 4 -22 2 15 2 37 0 50 -2 12 -4 0 -4 -28z"/>
<path d="M8723 4255 c0 -27 2 -38 4 -22 2 15 2 37 0 50 -2 12 -4 0 -4 -28z"/>
<path d="M10793 4288 c-15 -20 -25 -38 -20 -38 3 0 12 11 21 25 17 26 16 35
-1 13z"/>
<path d="M7919 4263 l-24 -28 28 24 c15 14 27 26 27 28 0 8 -8 1 -31 -24z"/>
<path d="M9198 4283 c6 -2 18 -2 25 0 6 3 1 5 -13 5 -14 0 -19 -2 -12 -5z"/>
<path d="M7334 4258 l-19 -23 23 19 c12 11 22 21 22 23 0 8 -8 2 -26 -19z"/>
<path d="M7181 4251 c-1 -8 -9 -24 -18 -35 -16 -20 -16 -20 6 0 13 12 21 28
18 35 -4 11 -6 11 -6 0z"/>
<path d="M4732 4220 c0 -14 2 -19 5 -12 2 6 2 18 0 25 -3 6 -5 1 -5 -13z"/>
<path d="M7294 4208 l-19 -23 23 19 c21 18 27 26 19 26 -2 0 -12 -10 -23 -22z"/>
<path d="M7760 4210 c-6 -11 -8 -20 -6 -20 3 0 10 9 16 20 6 11 8 20 6 20 -3
0 -10 -9 -16 -20z"/>
<path d="M8970 4210 c-6 -11 -8 -20 -6 -20 3 0 10 9 16 20 6 11 8 20 6 20 -3
0 -10 -9 -16 -20z"/>
<path d="M10810 4185 c-24 -25 -42 -45 -39 -45 3 0 25 20 49 45 24 25 42 45
39 45 -3 0 -25 -20 -49 -45z"/>
<path d="M5395 4190 c10 -11 20 -20 23 -20 3 0 -3 9 -13 20 -10 11 -20 20 -23
20 -3 0 3 -9 13 -20z"/>
<path d="M6393 4203 c9 -2 23 -2 30 0 6 3 -1 5 -18 5 -16 0 -22 -2 -12 -5z"/>
<path d="M8782 4190 c0 -14 2 -19 5 -12 2 6 2 18 0 25 -3 6 -5 1 -5 -13z"/>
<path d="M6963 4193 c9 -2 25 -2 35 0 9 3 1 5 -18 5 -19 0 -27 -2 -17 -5z"/>
<path d="M5341 4170 c14 -31 19 -36 19 -24 0 6 -7 19 -16 30 -14 18 -14 18 -3
-6z"/>
<path d="M6429 4168 c7 -10 11 -29 9 -43 -3 -13 -1 -22 3 -19 15 9 10 51 -8
65 -16 13 -17 12 -4 -3z"/>
<path d="M7061 4163 c7 -12 15 -20 18 -17 3 2 -3 12 -13 22 -17 16 -18 16 -5
-5z"/>
<path d="M6497 4149 c4 -13 8 -18 11 -10 2 7 -1 18 -6 23 -8 8 -9 4 -5 -13z"/>
<path d="M7104 4148 l-19 -23 23 19 c21 18 27 26 19 26 -2 0 -12 -10 -23 -22z"/>
<path d="M7250 4155 c-6 -8 -10 -19 -8 -24 1 -6 8 1 15 14 13 28 11 31 -7 10z"/>
<path d="M7840 4150 c-6 -11 -8 -20 -6 -20 3 0 10 9 16 20 6 11 8 20 6 20 -3
0 -10 -9 -16 -20z"/>
<path d="M9445 4150 c10 -11 20 -20 23 -20 3 0 -3 9 -13 20 -10 11 -20 20 -23
20 -3 0 3 -9 13 -20z"/>
<path d="M10462 4135 c0 -16 2 -22 5 -12 2 9 2 23 0 30 -3 6 -5 -1 -5 -18z"/>
<path d="M5445 4126 c10 -14 19 -26 22 -26 7 0 -17 39 -28 46 -6 3 -3 -5 6
-20z"/>
<path d="M11284 4128 l-19 -23 23 19 c21 18 27 26 19 26 -2 0 -12 -10 -23 -22z"/>
<path d="M10674 4088 l-19 -23 23 19 c21 18 27 26 19 26 -2 0 -12 -10 -23 -22z"/>
<path d="M11099 4073 l-24 -28 28 24 c15 14 27 26 27 28 0 8 -8 1 -31 -24z"/>
<path d="M7017 4057 l-17 -32 20 24 c17 20 26 41 18 41 -2 0 -11 -15 -21 -33z"/>
<path d="M10135 4038 l-50 -53 53 50 c48 46 57 55 49 55 -1 0 -25 -24 -52 -52z"/>
<path d="M10381 4063 c-10 -26 -10 -27 4 -9 8 11 15 23 15 28 0 15 -7 8 -19
-19z"/>
<path d="M11424 4058 l-19 -23 23 19 c21 18 27 26 19 26 -2 0 -12 -10 -23 -22z"/>
<path d="M5480 4065 c0 -5 5 -17 10 -25 5 -8 10 -10 10 -5 0 6 -5 17 -10 25
-5 8 -10 11 -10 5z"/>
<path d="M6174 4038 l-29 -33 33 29 c17 17 32 31 32 33 0 8 -8 1 -36 -29z"/>
<path d="M7702 4050 c0 -14 2 -19 5 -12 2 6 2 18 0 25 -3 6 -5 1 -5 -13z"/>
<path d="M10707 4050 c3 -11 7 -20 9 -20 2 0 4 9 4 20 0 11 -4 20 -9 20 -5 0
-7 -9 -4 -20z"/>
<path d="M6624 4038 l-19 -23 23 19 c12 11 22 21 22 23 0 8 -8 2 -26 -19z"/>
<path d="M9382 4020 c0 -19 2 -27 5 -17 2 9 2 25 0 35 -3 9 -5 1 -5 -18z"/>
<path d="M10619 4023 l-24 -28 28 24 c15 14 27 26 27 28 0 8 -8 1 -31 -24z"/>
<path d="M7129 4013 l-24 -28 28 24 c25 23 32 31 24 31 -2 0 -14 -12 -28 -27z"/>
<path d="M10664 4018 l-19 -23 23 19 c21 18 27 26 19 26 -2 0 -12 -10 -23 -22z"/>
<path d="M11034 4008 l-29 -33 33 29 c30 28 37 36 29 36 -2 0 -16 -15 -33 -32z"/>
<path d="M11174 4018 l-19 -23 23 19 c21 18 27 26 19 26 -2 0 -12 -10 -23 -22z"/>
<path d="M5990 3973 l-55 -58 58 55 c53 50 62 60 54 60 -1 0 -27 -26 -57 -57z"/>
<path d="M10329 3993 l-34 -38 38 34 c34 33 42 41 34 41 -2 0 -19 -17 -38 -37z"/>
<path d="M3662 3995 c0 -16 2 -22 5 -12 2 9 2 23 0 30 -3 6 -5 -1 -5 -18z"/>
<path d="M5382 4000 c0 -14 2 -19 5 -12 2 6 2 18 0 25 -3 6 -5 1 -5 -13z"/>
<path d="M8591 3986 c-18 -19 -31 -40 -28 -48 4 -10 6 -10 6 2 1 8 15 29 33
47 18 18 30 33 27 33 -3 0 -20 -15 -38 -34z"/>
<path d="M4604 3978 l-29 -33 33 29 c17 17 32 31 32 33 0 8 -8 1 -36 -29z"/>
<path d="M4674 3978 l-29 -33 33 29 c17 17 32 31 32 33 0 8 -8 1 -36 -29z"/>
<path d="M7693 3935 c0 -44 2 -61 4 -37 2 23 2 59 0 80 -2 20 -4 1 -4 -43z"/>
<path d="M11585 4000 c-4 -6 1 -7 11 -3 14 5 16 3 10 -13 -5 -14 -4 -16 5 -7
12 12 5 33 -11 33 -5 0 -12 -4 -15 -10z"/>
<path d="M6694 3978 l-19 -23 23 19 c21 18 27 26 19 26 -2 0 -12 -10 -23 -22z"/>
<path d="M6935 3958 l-40 -43 43 40 c39 36 47 45 39 45 -2 0 -21 -19 -42 -42z"/>
<path d="M6104 3958 l-19 -23 23 19 c12 11 22 21 22 23 0 8 -8 2 -26 -19z"/>
<path d="M10545 3938 l-40 -43 43 40 c23 21 42 40 42 42 0 8 -9 0 -45 -39z"/>
<path d="M3782 3945 c0 -16 2 -22 5 -12 2 9 2 23 0 30 -3 6 -5 -1 -5 -18z"/>
<path d="M7074 3948 l-19 -23 23 19 c12 11 22 21 22 23 0 8 -8 2 -26 -19z"/>
<path d="M7453 3890 c0 -47 2 -66 4 -42 2 23 2 61 0 85 -2 23 -4 4 -4 -43z"/>
<path d="M7773 3905 c0 -33 2 -45 4 -27 2 18 2 45 0 60 -2 15 -4 0 -4 -33z"/>
<path d="M10039 3933 l-24 -28 28 24 c15 14 27 26 27 28 0 8 -8 1 -31 -24z"/>
<path d="M9393 3900 c0 -30 2 -43 4 -27 2 15 2 39 0 55 -2 15 -4 2 -4 -28z"/>
<path d="M10723 3915 c0 -22 2 -30 4 -17 2 12 2 30 0 40 -3 9 -5 -1 -4 -23z"/>
<path d="M6470 3883 l-55 -58 58 55 c53 50 62 60 54 60 -1 0 -27 -26 -57 -57z"/>
<path d="M5522 3910 c0 -14 2 -19 5 -12 2 6 2 18 0 25 -3 6 -5 1 -5 -13z"/>
<path d="M10950 3900 c-6 -11 -8 -20 -6 -20 3 0 10 9 16 20 6 11 8 20 6 20 -3
0 -10 -9 -16 -20z"/>
<path d="M7024 3888 l-19 -23 23 19 c12 11 22 21 22 23 0 8 -8 2 -26 -19z"/>
<path d="M6604 3878 l-19 -23 23 19 c21 18 27 26 19 26 -2 0 -12 -10 -23 -22z"/>
<path d="M3782 3860 c0 -19 2 -27 5 -17 2 9 2 25 0 35 -3 9 -5 1 -5 -18z"/>
<path d="M5392 3865 c0 -16 2 -22 5 -12 2 9 2 23 0 30 -3 6 -5 -1 -5 -18z"/>
<path d="M6790 3803 l-85 -88 88 85 c81 79 92 90 84 90 -1 0 -41 -39 -87 -87z"/>
<path d="M9542 3860 c0 -19 2 -27 5 -17 2 9 2 25 0 35 -3 9 -5 1 -5 -18z"/>
<path d="M10325 3864 c-9 -15 -12 -23 -6 -20 11 7 35 46 28 46 -3 0 -12 -12
-22 -26z"/>
<path d="M10521 3856 l-22 -23 28 -17 c28 -17 28 -17 6 2 l-22 19 22 22 c12
11 19 21 16 21 -3 0 -15 -11 -28 -24z"/>
<path d="M11464 3848 l-29 -33 33 29 c30 28 37 36 29 36 -2 0 -16 -15 -33 -32z"/>
<path d="M11066 3862 c-2 -4 12 -6 32 -4 62 6 69 10 20 11 -26 0 -49 -3 -52
-7z"/>
<path d="M5532 3830 c0 -14 2 -19 5 -12 2 6 2 18 0 25 -3 6 -5 1 -5 -13z"/>
<path d="M6969 3823 l-24 -28 28 24 c15 14 27 26 27 28 0 8 -8 1 -31 -24z"/>
<path d="M11494 3828 l-19 -23 23 19 c21 18 27 26 19 26 -2 0 -12 -10 -23 -22z"/>
<path d="M4704 3798 l-29 -33 33 29 c17 17 32 31 32 33 0 8 -8 1 -36 -29z"/>
<path d="M8704 3808 l-19 -23 23 19 c12 11 22 21 22 23 0 8 -8 2 -26 -19z"/>
<path d="M10194 3798 l-29 -33 33 29 c17 17 32 31 32 33 0 8 -8 1 -36 -29z"/>
<path d="M10333 3823 c9 -2 25 -2 35 0 9 3 1 5 -18 5 -19 0 -27 -2 -17 -5z"/>
<path d="M6369 3783 l-34 -38 38 34 c34 33 42 41 34 41 -2 0 -19 -17 -38 -37z"/>
<path d="M9402 3790 c0 -14 2 -19 5 -12 2 6 2 18 0 25 -3 6 -5 1 -5 -13z"/>
<path d="M5980 3780 c-6 -11 -8 -20 -6 -20 3 0 10 9 16 20 6 11 8 20 6 20 -3
0 -10 -9 -16 -20z"/>
<path d="M6924 3768 l-19 -23 23 19 c12 11 22 21 22 23 0 8 -8 2 -26 -19z"/>
<path d="M8849 3763 l-24 -28 28 24 c15 14 27 26 27 28 0 8 -8 1 -31 -24z"/>
<path d="M10353 3783 c16 -3 25 -9 21 -15 -4 -7 -2 -8 4 -4 22 14 12 26 -20
25 -31 -2 -31 -2 -5 -6z"/>
<path d="M10552 3765 c0 -16 2 -22 5 -12 2 9 2 23 0 30 -3 6 -5 -1 -5 -18z"/>
<path d="M6390 3753 c-14 -15 -17 -21 -7 -14 14 11 17 11 17 0 1 -9 4 -8 11 4
19 32 4 39 -21 10z"/>
<path d="M5542 3750 c0 -14 2 -19 5 -12 2 6 2 18 0 25 -3 6 -5 1 -5 -13z"/>
<path d="M10686 3755 c-9 -26 -7 -32 5 -12 6 10 9 21 6 23 -2 3 -7 -2 -11 -11z"/>
<path d="M11354 3738 l-29 -33 33 29 c30 28 37 36 29 36 -2 0 -16 -15 -33 -32z"/>
<path d="M7174 3738 l-19 -23 23 19 c12 11 22 21 22 23 0 8 -8 2 -26 -19z"/>
<path d="M7815 3730 c9 -16 18 -30 21 -30 2 0 -2 14 -11 30 -9 17 -18 30 -21
30 -2 0 2 -13 11 -30z"/>
<path d="M9552 3735 c0 -16 2 -22 5 -12 2 9 2 23 0 30 -3 6 -5 -1 -5 -18z"/>
<path d="M11395 3718 l-40 -43 43 40 c23 21 42 40 42 42 0 8 -9 0 -45 -39z"/>
<path d="M4805 3708 l-40 -43 43 40 c39 36 47 45 39 45 -2 0 -21 -19 -42 -42z"/>
<path d="M9906 3735 c-9 -26 -7 -32 5 -12 6 10 9 21 6 23 -2 3 -7 -2 -11 -11z"/>
<path d="M10883 3695 c0 -27 2 -38 4 -22 2 15 2 37 0 50 -2 12 -4 0 -4 -28z"/>
<path d="M6284 3708 l-19 -23 23 19 c12 11 22 21 22 23 0 8 -8 2 -26 -19z"/>
<path d="M8604 3708 l-19 -23 23 19 c12 11 22 21 22 23 0 8 -8 2 -26 -19z"/>
<path d="M6649 3663 l-34 -38 38 34 c34 33 42 41 34 41 -2 0 -19 -17 -38 -37z"/>
<path d="M7099 3673 l-24 -28 28 24 c15 14 27 26 27 28 0 8 -8 1 -31 -24z"/>
<path d="M8759 3673 l-24 -28 28 24 c15 14 27 26 27 28 0 8 -8 1 -31 -24z"/>
<path d="M7875 3650 c21 -22 41 -40 44 -40 3 0 -13 18 -34 40 -21 22 -41 40
-44 40 -3 0 13 -18 34 -40z"/>
<path d="M11274 3668 l-19 -23 23 19 c21 18 27 26 19 26 -2 0 -12 -10 -23 -22z"/>
<path d="M10393 3645 c0 -22 2 -30 4 -17 2 12 2 30 0 40 -3 9 -5 -1 -4 -23z"/>
<path d="M6722 3644 c-1 -13 0 -24 2 -24 7 0 14 40 7 44 -4 3 -8 -6 -9 -20z"/>
<path d="M9430 3665 c0 -5 5 -17 10 -25 5 -8 10 -10 10 -5 0 6 -5 17 -10 25
-5 8 -10 11 -10 5z"/>
<path d="M9882 3650 c0 -14 2 -19 5 -12 2 6 2 18 0 25 -3 6 -5 1 -5 -13z"/>
<path d="M4724 3638 l-19 -23 23 19 c12 11 22 21 22 23 0 8 -8 2 -26 -19z"/>
<path d="M6254 3638 l-19 -23 23 19 c12 11 22 21 22 23 0 8 -8 2 -26 -19z"/>
<path d="M6830 3640 c-6 -11 -8 -20 -6 -20 3 0 10 9 16 20 6 11 8 20 6 20 -3
0 -10 -9 -16 -20z"/>
<path d="M10104 3628 l-19 -23 23 19 c21 18 27 26 19 26 -2 0 -12 -10 -23 -22z"/>
<path d="M10719 3613 l-34 -38 38 34 c34 33 42 41 34 41 -2 0 -19 -17 -38 -37z"/>
<path d="M7402 3595 c0 -16 2 -22 5 -12 2 9 2 23 0 30 -3 6 -5 -1 -5 -18z"/>
<path d="M6810 3586 c0 -14 4 -27 8 -30 5 -3 6 8 4 25 -5 35 -12 38 -12 5z"/>
<path d="M9580 3604 c0 -6 7 -19 16 -30 14 -18 14 -18 3 6 -14 31 -19 36 -19
24z"/>
<path d="M10417 3579 c12 -12 24 -21 27 -18 2 2 -8 13 -22 23 l-27 19 22 -24z"/>
<path d="M10925 3570 c10 -11 20 -20 23 -20 3 0 -3 9 -13 20 -10 11 -20 20
-23 20 -3 0 3 -9 13 -20z"/>
<path d="M10020 3565 c-7 -9 -11 -17 -9 -20 3 -2 10 5 17 15 14 24 10 26 -8 5z"/>
<path d="M9510 3535 c19 -19 36 -35 39 -35 3 0 -10 16 -29 35 -19 19 -36 35
-39 35 -3 0 10 -16 29 -35z"/>
<path d="M5520 3535 c13 -14 26 -25 28 -25 3 0 -5 11 -18 25 -13 14 -26 25
-28 25 -3 0 5 -11 18 -25z"/>
<path d="M6560 3545 c-14 -8 -20 -14 -14 -15 5 0 19 7 30 15 24 18 16 19 -16
0z"/>
<path d="M4550 3530 c-8 -5 -10 -10 -5 -10 6 0 17 5 25 10 8 5 11 10 5 10 -5
0 -17 -5 -25 -10z"/>
<path d="M5635 3520 c10 -11 20 -20 23 -20 3 0 -3 9 -13 20 -10 11 -20 20 -23
20 -3 0 3 -9 13 -20z"/>
<path d="M5973 3533 c16 -3 25 -9 21 -15 -4 -7 -2 -8 4 -4 22 14 12 26 -20 25
-31 -2 -31 -2 -5 -6z"/>
<path d="M8123 3533 c9 -2 23 -2 30 0 6 3 -1 5 -18 5 -16 0 -22 -2 -12 -5z"/>
<path d="M9910 3536 c0 -7 40 -14 44 -7 3 4 -6 8 -20 9 -13 1 -24 0 -24 -2z"/>
<path d="M6478 3523 c12 -2 30 -2 40 0 9 3 -1 5 -23 4 -22 0 -30 -2 -17 -4z"/>
<path d="M7443 3470 c0 -36 2 -50 4 -32 2 17 2 47 0 65 -2 17 -4 3 -4 -33z"/>
<path d="M8495 3520 c-13 -6 -15 -9 -5 -9 8 0 22 4 30 9 18 12 2 12 -25 0z"/>
<path d="M11028 3523 c12 -2 32 -2 45 0 12 2 2 4 -23 4 -25 0 -35 -2 -22 -4z"/>
<path d="M10493 3513 c9 -2 23 -2 30 0 6 3 -1 5 -18 5 -16 0 -22 -2 -12 -5z"/>
<path d="M8118 3473 c6 -2 18 -2 25 0 6 3 1 5 -13 5 -14 0 -19 -2 -12 -5z"/>
<path d="M8303 3473 c9 -2 23 -2 30 0 6 3 -1 5 -18 5 -16 0 -22 -2 -12 -5z"/>
<path d="M9763 3473 c9 -2 25 -2 35 0 9 3 1 5 -18 5 -19 0 -27 -2 -17 -5z"/>
<path d="M4338 3463 c6 -2 18 -2 25 0 6 3 1 5 -13 5 -14 0 -19 -2 -12 -5z"/>
<path d="M4188 3453 c23 -2 59 -2 80 0 20 2 1 4 -43 4 -44 0 -61 -2 -37 -4z"/>
<path d="M9753 3433 c9 -2 23 -2 30 0 6 3 -1 5 -18 5 -16 0 -22 -2 -12 -5z"/>
<path d="M5758 3423 c17 -2 47 -2 65 0 17 2 3 4 -33 4 -36 0 -50 -2 -32 -4z"/>
<path d="M7214 3280 c0 -69 1 -97 3 -62 2 34 2 90 0 125 -2 34 -3 6 -3 -63z"/>
<path d="M6496 3280 c-124 -38 -154 -239 -57 -382 l28 -41 -35 -31 c-51 -45
-73 -102 -79 -210 -9 -150 3 -238 40 -293 44 -64 74 -83 138 -90 81 -8 139 20
181 87 17 27 32 49 33 48 2 -2 17 -31 35 -65 29 -56 35 -63 64 -64 36 -1 80 2
84 6 2 1 -12 27 -31 56 -19 30 -55 95 -81 144 l-47 90 12 85 c23 177 26 205
23 209 -9 10 -16 -13 -36 -118 -11 -62 -25 -110 -30 -109 -12 4 -157 241 -152
247 3 3 14 6 25 8 35 5 78 42 102 86 18 34 22 57 21 127 0 57 -6 95 -16 115
-43 82 -135 121 -222 95z m105 -30 c37 -20 52 -68 51 -163 -1 -49 -6 -105 -13
-125 -14 -44 -48 -92 -64 -92 -7 0 -31 28 -55 61 -39 56 -44 68 -48 135 -2 40
-1 89 2 109 13 68 73 103 127 75z m-33 -555 c33 -60 78 -146 100 -189 39 -77
40 -80 26 -119 -33 -92 -99 -145 -158 -124 -70 24 -79 53 -84 285 -4 166 -2
200 13 239 22 56 24 54 103 -92z"/>
<path d="M4290 3272 c0 -4 9 -13 21 -20 47 -29 49 -54 49 -492 0 -439 -1 -453
-51 -499 l-23 -21 112 0 c62 0 112 2 112 5 0 3 -12 17 -27 30 l-28 23 -3 439
c-2 241 0 448 2 459 3 12 17 32 31 45 13 13 25 27 25 32 0 4 -49 7 -110 7 -60
0 -110 -3 -110 -8z"/>
<path d="M4670 3270 c0 -5 6 -13 14 -17 8 -4 22 -22 30 -38 14 -26 16 -88 16
-445 0 -242 -4 -430 -10 -450 -5 -19 -22 -45 -37 -57 l-28 -23 35 -2 c43 -2
184 3 188 7 2 2 -8 15 -21 29 -13 14 -27 43 -31 64 -9 58 -7 747 3 737 13 -14
231 -679 231 -704 0 -32 -25 -85 -51 -110 l-23 -21 22 -1 c12 0 45 0 72 0 28
0 69 0 92 0 l42 1 -30 31 -29 30 -3 442 c-3 460 -1 486 39 508 40 21 16 29
-86 29 -58 0 -105 -3 -105 -6 0 -3 9 -13 20 -22 12 -10 25 -35 30 -57 11 -44
12 -685 1 -685 -10 1 -223 653 -222 683 1 16 11 38 26 51 14 13 25 26 25 30 0
3 -47 6 -105 6 -60 0 -105 -4 -105 -10z"/>
<path d="M5360 3275 c0 -2 11 -15 24 -28 14 -14 27 -40 31 -58 3 -19 5 -226 3
-461 l-3 -427 -29 -30 -30 -31 35 -1 c60 -1 174 2 177 6 2 1 -8 14 -21 27 -17
17 -27 41 -31 74 -8 61 -4 374 5 379 9 6 43 -78 138 -340 22 -60 43 -118 46
-127 6 -15 20 -18 81 -18 41 0 74 3 74 6 0 3 -13 16 -29 30 -22 18 -47 71
-106 221 -120 307 -107 283 -156 283 -32 0 -40 3 -36 15 18 44 262 437 282
454 14 10 25 22 25 25 0 3 -40 6 -90 6 -49 0 -90 -4 -90 -9 0 -5 11 -16 25
-25 41 -27 34 -75 -28 -186 -143 -256 -133 -243 -141 -184 -9 69 -7 273 4 319
5 22 18 46 29 54 12 7 21 17 21 22 0 5 -47 9 -105 9 -58 0 -105 -2 -105 -5z"/>
<path d="M7560 3271 c0 -5 9 -12 19 -16 11 -3 23 -13 27 -23 10 -20 18 -841 9
-890 -3 -18 -20 -48 -37 -67 l-30 -35 167 0 c166 0 167 0 205 28 57 40 91 121
98 232 3 66 0 100 -12 138 -18 52 -64 104 -106 117 -19 6 -17 10 23 48 30 30
47 58 57 92 29 103 9 255 -42 320 -42 54 -84 65 -238 65 -80 0 -140 -4 -140
-9z m289 -47 c17 -14 35 -42 41 -62 16 -58 12 -218 -6 -284 -22 -76 -48 -98
-120 -98 l-54 0 0 235 0 235 54 0 c44 0 60 -5 85 -26z m7 -493 c55 -33 69 -79
68 -221 -1 -109 -4 -131 -24 -173 -32 -67 -90 -92 -167 -71 l-23 6 0 239 0
239 58 0 c38 0 67 -6 88 -19z"/>
<path d="M8150 3275 c0 -3 12 -17 28 -30 l27 -23 3 -419 c2 -230 0 -438 -3
-462 -5 -32 -16 -53 -37 -73 l-30 -28 28 0 c151 -3 387 0 394 5 10 6 10 294 0
300 -4 2 -10 -33 -14 -78 -7 -94 -29 -167 -55 -191 -15 -13 -35 -16 -97 -14
l-79 3 -3 298 -2 297 65 0 c78 0 90 -13 101 -107 12 -112 22 -57 21 122 0 174
-9 234 -20 131 -3 -30 -13 -68 -21 -85 -16 -30 -19 -31 -81 -31 l-65 0 0 180
0 180 88 0 c72 0 92 -3 104 -17 23 -27 38 -80 39 -137 2 -61 12 -115 20 -101
3 6 6 71 5 145 l-1 135 -207 3 c-115 1 -208 0 -208 -3z"/>
<path d="M8860 3272 c0 -4 9 -15 20 -24 32 -28 34 -65 11 -197 -12 -69 -33
-189 -47 -266 -14 -77 -33 -189 -44 -250 -25 -146 -53 -231 -86 -266 l-28 -29
55 -2 c61 -1 102 1 108 8 3 2 -3 10 -12 17 -31 23 -38 63 -27 160 6 51 12 99
14 107 2 8 7 27 10 43 l6 27 100 0 c55 0 100 -1 100 -3 0 -2 9 -53 20 -113 27
-150 26 -189 -5 -218 -13 -13 -22 -25 -19 -28 6 -6 197 1 203 8 2 2 -8 13 -22
24 -32 26 -38 46 -83 290 -20 107 -49 265 -65 350 -16 85 -32 189 -36 231 -5
69 -4 78 16 98 11 11 21 26 21 31 0 6 -42 10 -105 10 -58 0 -105 -3 -105 -8z
m120 -347 c16 -88 34 -182 40 -208 19 -90 22 -87 -80 -87 -75 0 -90 3 -90 16
0 8 16 108 36 222 19 114 38 223 41 242 l6 35 9 -30 c5 -16 22 -102 38 -190z"/>
<path d="M9280 3270 c0 -5 6 -13 14 -17 8 -4 22 -22 30 -38 14 -26 16 -83 16
-390 0 -377 5 -425 47 -496 10 -18 35 -46 56 -63 35 -28 46 -31 105 -31 81 0
116 22 156 96 47 85 56 169 56 517 1 329 7 383 44 404 34 19 12 28 -69 28 -80
0 -103 -9 -71 -27 7 -4 22 -24 32 -43 17 -32 18 -61 16 -380 -2 -279 -5 -357
-18 -410 -26 -102 -74 -159 -134 -159 -57 -1 -99 47 -114 129 -10 58 -17 513
-10 673 6 137 9 151 30 177 13 15 24 31 24 34 0 3 -47 6 -105 6 -60 0 -105 -4
-105 -10z"/>
<path d="M9978 3273 c-2 -5 -3 -70 -3 -145 0 -165 16 -190 28 -43 9 114 29
160 68 160 47 0 50 -38 47 -500 -3 -396 -4 -423 -22 -450 -11 -17 -27 -35 -35
-42 -14 -11 -12 -13 14 -14 44 -2 189 2 194 7 2 1 -10 14 -25 28 l-29 24 -3
448 c-3 462 0 504 37 504 44 -1 67 -53 77 -173 4 -48 11 -87 15 -87 5 0 9 65
9 145 l0 145 -184 0 c-102 0 -186 -3 -188 -7z"/>
<path d="M10500 3270 c0 -5 6 -13 13 -17 25 -15 52 -66 120 -232 117 -284 107
-241 107 -461 0 -211 -6 -249 -45 -290 l-26 -27 27 -6 c30 -5 184 0 192 7 2 3
-9 16 -24 30 l-29 24 -3 238 c-3 256 -4 251 54 379 12 28 45 106 74 175 28 69
62 135 76 147 39 36 30 43 -56 43 -44 0 -80 -3 -80 -6 0 -3 11 -15 24 -25 13
-10 26 -29 30 -43 6 -26 -21 -112 -79 -246 -20 -47 -41 -98 -47 -113 -6 -16
-14 -25 -18 -20 -13 14 -140 338 -140 357 0 22 19 59 36 69 34 20 7 27 -96 27
-63 0 -110 -4 -110 -10z"/>
<path d="M7212 3030 c0 -14 2 -19 5 -12 2 6 2 18 0 25 -3 6 -5 1 -5 -13z"/>
<path d="M7394 2910 c0 -52 1 -74 3 -47 2 26 2 68 0 95 -2 26 -3 4 -3 -48z"/>
<path d="M7423 2845 c0 -38 2 -53 4 -32 2 20 2 52 0 70 -2 17 -4 1 -4 -38z"/>
</g>
<g transform="translate(0.000000,1045.000000) scale(0.100000,-0.100000)" fill="#ae0608" stroke="none">
<path d="M8544 8655 c-4 -9 4 -46 16 -83 l23 -67 -21 -40 c-25 -49 -76 -101
-168 -171 -82 -61 -184 -162 -184 -181 0 -18 28 -16 137 6 121 25 191 58 252
119 75 75 89 165 40 250 -10 18 -19 50 -19 70 0 70 -58 144 -76 97z m76 -256
c0 -68 -30 -120 -95 -164 -47 -33 -147 -73 -220 -89 -28 -6 -27 -3 25 45 30
28 76 66 103 84 62 42 132 108 154 145 25 43 33 37 33 -21z"/>
<path d="M6205 8448 c64 -53 147 -140 180 -189 42 -60 105 -215 122 -303 17
-82 24 -339 10 -353 -4 -3 -20 5 -35 20 -66 63 -170 83 -248 48 -48 -22 -109
-81 -134 -131 -56 -112 -80 -240 -80 -429 l0 -145 -32 30 c-101 95 -185 96
-123 3 27 -41 59 -119 51 -126 -2 -2 -16 7 -31 21 -78 72 -195 93 -315 57 -44
-14 -70 -27 -67 -34 2 -6 30 -21 63 -32 32 -12 75 -29 94 -40 58 -30 177 -123
220 -173 82 -92 136 -246 116 -326 l-6 -26 -62 50 c-33 27 -81 56 -106 65 -60
20 -205 21 -222 0 -17 -20 -8 -29 47 -50 67 -26 150 -76 204 -124 65 -57 127
-154 207 -321 116 -242 245 -413 401 -531 92 -69 249 -144 366 -174 145 -38
190 -65 247 -150 26 -38 66 -114 89 -167 l42 -98 -11 -182 c-13 -200 -14 -344
-4 -369 6 -13 13 -10 41 18 19 19 28 31 20 28 -12 -4 -14 19 -12 152 2 87 8
197 14 246 16 129 -4 214 -84 351 -74 128 -160 188 -324 227 -176 41 -381 163
-503 297 -89 98 -167 217 -260 397 -84 162 -119 219 -163 266 -48 50 -113 98
-175 129 -34 17 -62 33 -62 37 0 3 24 3 54 0 94 -9 200 -76 237 -148 22 -43
30 -47 50 -22 10 12 14 50 14 142 0 114 -4 143 -43 306 -24 99 -55 209 -68
245 -13 36 -24 71 -24 79 0 21 73 -39 119 -97 23 -29 42 -52 44 -52 1 0 1 78
-1 174 -3 148 0 186 17 260 36 152 87 223 196 272 89 40 190 41 224 1 7 -9 -5
-59 -40 -172 -101 -321 -117 -422 -83 -534 9 -30 30 -69 51 -92 l36 -40 -40
-77 c-45 -84 -62 -137 -65 -201 -1 -22 -5 -41 -9 -41 -8 0 -71 147 -105 246
-49 147 -62 396 -24 481 23 52 20 68 -5 30 -59 -91 -80 -260 -51 -406 19 -94
63 -219 131 -371 26 -58 80 -188 122 -290 105 -259 219 -489 293 -588 149
-200 348 -308 551 -300 76 3 92 6 111 26 l23 22 -20 36 c-11 20 -59 79 -108
130 -78 83 -158 148 -372 304 -158 116 -326 309 -412 475 l-47 90 0 105 c0 93
3 114 31 185 50 133 134 292 184 351 54 64 68 107 75 233 4 57 13 104 29 141
12 30 25 69 29 85 6 29 5 28 -14 -7 -23 -42 -43 -51 -36 -15 4 20 17 100 50
322 16 106 46 177 83 194 14 6 27 10 29 8 2 -2 -5 -26 -16 -54 -11 -28 -31
-111 -45 -185 -15 -73 -28 -142 -31 -153 -4 -17 -4 -18 5 -3 6 9 29 82 51 163
39 141 75 235 89 235 4 0 25 -26 48 -57 32 -46 56 -67 119 -102 90 -51 144
-97 144 -123 0 -26 -68 -89 -191 -173 -191 -132 -250 -190 -223 -218 4 -3 37
21 75 53 37 32 103 82 146 111 142 95 201 148 228 205 30 64 50 78 140 105
173 52 427 140 498 174 42 20 102 59 132 87 59 54 101 69 152 56 42 -11 64
-53 66 -122 1 -78 -23 -116 -134 -212 -54 -46 -128 -122 -166 -169 -49 -61
-78 -87 -103 -96 -105 -34 -357 -185 -469 -280 -220 -187 -357 -495 -337 -759
22 -298 152 -526 432 -755 173 -143 183 -185 71 -302 -35 -36 -38 -43 -23 -49
50 -19 160 89 219 216 22 47 41 87 43 89 2 2 22 -11 46 -28 53 -39 61 -24 19
35 -17 25 -31 49 -31 54 0 5 28 29 63 54 93 67 115 94 127 156 7 36 23 73 48
107 20 28 66 91 101 140 35 48 84 110 108 137 25 28 51 63 59 79 9 16 18 27
20 24 27 -26 -136 -289 -234 -379 -66 -59 -66 -61 -82 -208 -13 -123 -33 -213
-66 -292 -28 -67 -28 -68 -11 -68 17 0 96 83 137 143 46 69 142 276 178 382
17 50 40 137 52 195 12 58 35 155 51 215 65 245 73 296 61 429 -17 207 2 292
95 428 33 49 44 71 36 79 -12 12 -38 -12 -86 -81 -17 -25 -58 -81 -91 -125
-72 -98 -126 -211 -156 -330 -31 -126 -30 -124 -42 -95 -32 84 -58 547 -38
690 6 46 9 104 5 127 -7 49 -47 103 -76 103 -10 0 -19 4 -19 9 0 6 40 45 88
88 126 112 144 139 150 228 8 129 -43 190 -150 182 l-58 -5 0 34 c0 63 -54
131 -135 172 -109 54 -210 34 -337 -69 -20 -16 -31 -19 -40 -12 -25 21 -98 34
-146 27 -34 -5 -56 -16 -79 -40 -28 -27 -33 -39 -33 -81 0 -27 6 -55 13 -62
10 -11 8 -11 -10 -2 -48 24 -93 123 -93 203 0 24 -5 41 -14 44 -19 7 -159
-100 -227 -173 -31 -33 -65 -81 -77 -107 -17 -35 -27 -46 -46 -46 -32 0 -86
-38 -109 -77 -24 -42 -47 -127 -47 -178 0 -22 -4 -46 -9 -53 -5 -8 -8 53 -9
145 0 184 -15 247 -83 353 -90 140 -188 219 -379 304 l-105 46 50 -42z m341
-280 c80 -82 100 -117 138 -236 30 -96 32 -149 11 -317 -8 -66 -15 -142 -15
-170 0 -50 -18 -125 -40 -165 -6 -11 -45 -64 -85 -116 -84 -106 -120 -196
-113 -279 5 -63 -8 -56 -22 12 -21 98 -7 181 69 401 85 248 101 346 82 513
-16 136 -48 260 -95 363 -20 43 -36 80 -36 83 0 12 44 -24 106 -89z m1403 65
c82 -33 141 -111 127 -167 -9 -35 -61 -92 -110 -121 -45 -26 -173 -78 -221
-89 l-29 -7 19 21 c11 13 46 42 78 67 31 24 57 50 57 58 0 8 -28 33 -62 56
-35 23 -82 58 -106 76 -48 39 -47 46 16 85 75 46 152 54 231 21z m-694 -140
c29 -77 114 -131 241 -155 35 -7 64 -15 64 -18 0 -3 -19 -14 -41 -25 -63 -30
-120 -78 -169 -144 -25 -33 -49 -61 -53 -61 -4 0 -20 11 -34 24 -15 14 -62 44
-106 67 -43 24 -89 56 -100 72 -12 16 -37 45 -54 64 -18 19 -33 41 -33 48 0 7
19 41 42 75 29 45 66 81 127 126 l86 64 7 -47 c4 -26 14 -66 23 -90z m285 81
l54 -16 -40 -34 c-21 -18 -63 -46 -92 -61 -52 -27 -53 -28 -68 -9 -30 42 -11
90 51 124 26 15 32 15 95 -4z m232 -153 l47 -27 -56 -44 c-148 -119 -213 -157
-313 -184 -24 -7 -24 -6 5 19 17 15 63 49 103 76 100 68 97 83 -17 105 -36 7
-79 17 -95 23 l-29 12 50 24 c27 14 73 45 102 70 l53 45 51 -46 c29 -25 73
-58 99 -73z m-1406 -380 c-3 -4 -25 -11 -48 -15 -24 -4 -68 -20 -98 -37 l-55
-30 37 34 c21 19 53 39 70 45 41 13 101 15 94 3z m1752 -152 c10 -18 11 -51 6
-129 -4 -58 -7 -113 -6 -122 0 -10 -3 -20 -8 -23 -13 -8 -50 146 -50 209 0 90
28 122 58 65z m-53 -269 c37 -101 38 -111 45 -285 6 -143 13 -200 33 -276 32
-122 43 -144 118 -224 l61 -65 -45 -52 c-24 -29 -76 -96 -115 -148 -39 -52
-91 -121 -116 -152 -32 -42 -48 -74 -57 -115 -18 -86 -32 -107 -104 -157 -36
-25 -68 -46 -70 -46 -11 0 -65 123 -93 210 -31 98 -72 260 -92 365 -22 116
-25 351 -5 466 21 129 74 292 122 378 69 126 164 262 232 334 l36 38 6 -83 c5
-59 17 -113 44 -188z m-302 23 c-132 -200 -203 -401 -216 -613 -7 -107 12
-326 39 -454 27 -129 89 -326 128 -407 13 -27 20 -49 15 -49 -13 0 -155 127
-229 206 -148 157 -236 350 -255 559 -25 268 182 597 514 817 31 20 59 37 62
37 4 1 -23 -43 -58 -96z m-1073 -58 c-18 -124 -29 -153 -88 -216 -29 -32 -66
-81 -82 -110 l-28 -53 -7 38 c-18 92 19 199 104 306 33 41 71 97 83 123 22 45
23 47 26 21 2 -16 -1 -64 -8 -109z m664 -186 c-130 -169 -190 -389 -159 -590
22 -150 66 -262 155 -395 68 -101 222 -254 327 -324 45 -30 82 -59 82 -65 0
-5 -15 -41 -33 -80 l-33 -70 -15 36 c-9 19 -40 56 -69 82 -30 25 -92 78 -137
118 -366 315 -452 752 -228 1153 38 68 146 210 154 202 2 -3 -17 -33 -44 -67z
m1084 -5 c-13 -49 -15 -165 -4 -319 8 -109 7 -128 -14 -205 -21 -77 -40 -122
-40 -93 0 6 -27 44 -60 83 -33 39 -60 75 -60 78 0 20 51 243 63 278 27 74 113
231 122 222 3 -2 0 -22 -7 -44z m-2672 -69 c95 -28 166 -113 189 -226 7 -32 9
-59 4 -59 -5 0 -9 4 -9 9 0 19 -112 130 -168 167 -31 21 -90 53 -131 70 l-74
33 34 9 c50 15 99 14 155 -3z m753 -882 c101 -147 261 -302 451 -436 114 -80
367 -317 353 -330 -3 -4 -41 -7 -84 -7 -241 0 -477 185 -631 495 -33 65 -138
317 -138 329 0 15 12 2 49 -51z m1745 -89 c-43 -120 -149 -343 -178 -372 -9
-10 -9 5 0 70 7 46 14 108 14 138 3 81 9 94 75 142 43 32 70 62 95 107 19 34
36 58 38 53 1 -5 -18 -67 -44 -138z"/>
<path d="M9498 7561 c-95 -31 -150 -75 -309 -245 -143 -152 -154 -162 -212
-182 -175 -59 -298 -150 -396 -292 -36 -51 -19 -47 20 5 37 51 165 150 243
190 50 26 126 55 126 49 0 -2 -15 -29 -34 -60 -19 -31 -52 -98 -75 -149 -22
-51 -66 -139 -97 -197 -107 -199 -180 -388 -249 -643 -49 -179 -85 -243 -217
-385 -66 -71 -142 -166 -193 -242 -92 -140 -142 -190 -222 -227 -70 -32 -145
-28 -219 11 -56 30 -95 33 -118 10 -19 -19 -19 -9 0 -74 24 -79 15 -136 -34
-217 -41 -69 -52 -109 -72 -258 -6 -44 -13 -93 -17 -110 l-6 -30 26 24 c27 24
49 86 69 189 6 31 33 104 61 162 46 93 51 112 50 165 -1 33 -6 73 -12 89 -7
16 -10 30 -8 32 2 2 25 -9 53 -24 42 -23 61 -27 129 -27 72 0 86 3 143 34 58
32 172 139 172 162 0 5 26 9 57 9 84 0 182 35 271 97 42 29 98 68 124 85 46
32 64 68 33 68 -42 0 -244 -89 -368 -163 -37 -22 -70 -38 -72 -35 -11 11 92
144 198 255 141 149 160 185 247 473 77 254 97 305 208 527 49 98 108 221 131
273 44 102 96 189 121 201 8 4 62 30 120 57 112 54 190 115 240 187 42 61 106
122 168 158 32 19 51 38 50 47 -5 22 -63 22 -130 1z m-65 -118 c-119 -134
-181 -191 -237 -217 -30 -14 -58 -26 -61 -26 -4 0 19 26 51 58 33 32 92 93
132 135 61 65 144 125 175 127 5 0 -22 -35 -60 -77z m-957 -1941 c-11 -18
-120 -86 -173 -108 -58 -24 -106 -32 -87 -15 16 15 167 94 214 112 53 21 52
21 46 11z"/>
<path d="M7422 4358 c-7 -9 -13 -278 -18 -773 -4 -418 -7 -768 -6 -778 2 -32
-20 -13 -60 53 -71 118 -72 122 -76 540 -2 206 -7 379 -12 384 -5 5 -17 2 -29
-6 -12 -8 -19 -17 -16 -19 2 -3 7 -178 9 -389 5 -369 9 -418 36 -471 26 -53
136 -209 147 -209 21 0 24 16 28 182 3 90 9 300 15 468 12 379 13 1030 1 1030
-5 0 -13 -6 -19 -12z"/>
<path d="M7210 4107 c-13 -19 -14 -41 -5 -150 9 -120 11 -127 28 -115 16 12
17 28 15 147 -2 79 -7 136 -13 137 -5 2 -17 -7 -25 -19z"/>
</g>
</svg>